<?xml version="1.0" encoding="utf-8"?>
<!-- Generator: Adobe Illustrator 16.0.0, SVG Export Plug-In . SVG Version: 6.00 Build 0)  -->
<!DOCTYPE svg PUBLIC "-//W3C//DTD SVG 1.1//EN" "http://www.w3.org/Graphics/SVG/1.1/DTD/svg11.dtd">
<svg version="1.1" id="Layer_1" xmlns="http://www.w3.org/2000/svg" xmlns:xlink="http://www.w3.org/1999/xlink" x="0px" y="0px"
	 width="60px" height="15px" viewBox="0 0 60 15" enable-background="new 0 0 60 15" xml:space="preserve">
<path fill="#FFFFFF" d="M5.055,6.157c0.011-0.702-0.052-1.394-0.859-1.394c-0.492,0-0.806,0.199-0.806,0.733
	c0,0.597,0.377,0.828,0.837,1.121C4.709,6.921,5.6,7.508,6.008,7.905c0.503,0.492,0.66,0.965,0.66,1.645
	c0,1.486-0.984,2.262-2.419,2.262c-1.759,0-2.388-0.984-2.388-2.388V8.849h1.467V9.31c-0.031,0.764,0.199,1.318,0.921,1.318
	c0.618,0,0.911-0.324,0.911-0.921c0-0.461-0.209-0.774-0.586-1.036C3.809,8.072,2.856,7.644,2.259,6.858
	c-0.24-0.356-0.376-0.786-0.376-1.204c0-1.341,0.754-2.074,2.304-2.074c2.335,0,2.272,1.801,2.283,2.577H5.055z"/>
<path fill="#FFFFFF" d="M7.265,11.623l1.874-7.854h1.98l1.78,7.854h-1.571L10.94,9.634H9.223l-0.388,1.989H7.265z M9.453,8.481
	h1.257l-0.397-2.23c-0.073-0.367-0.105-0.723-0.147-1.089c-0.011-0.178-0.031-0.355-0.052-0.523h-0.021
	c-0.021,0.167-0.042,0.345-0.052,0.523C9.998,5.528,9.967,5.884,9.894,6.251L9.453,8.481z"/>
<polygon fill="#FFFFFF" points="12.596,3.769 17.486,3.769 17.486,4.921 15.779,4.921 15.779,11.623 14.313,11.623 14.313,4.921 
	12.596,4.921 "/>
<polygon fill="#FFFFFF" points="18.325,11.623 18.325,3.769 22.45,3.769 22.45,4.921 19.79,4.921 19.79,6.9 22.241,6.9 
	22.241,8.052 19.79,8.052 19.79,10.471 22.45,10.471 22.45,11.623 "/>
<path fill="#FFFFFF" d="M25.047,8.241v3.382h-1.465V3.769h2.775c1.267,0,2.23,0.44,2.23,1.885c0,0.858-0.22,1.759-1.205,1.895v0.021
	c0.87,0.115,1.132,0.67,1.132,1.424c0,0.324-0.042,2.25,0.313,2.48v0.147h-1.612c-0.178-0.502-0.147-1.465-0.158-1.989
	c-0.01-0.481,0-1.142-0.501-1.288c-0.399-0.115-0.829-0.104-1.248-0.104H25.047z M25.047,7.089h1.152
	c0.482-0.032,0.858-0.346,0.858-1.131c0-0.88-0.367-1.026-0.92-1.037h-1.09V7.089z"/>
<path fill="#FFFFFF" d="M33.477,5.832c0.063-0.817-0.377-1.435-1.246-1.435c-1.268,0-1.403,0.796-1.403,1.403
	c0,0.545,0.24,0.88,0.744,1.069c0.419,0.157,0.826,0.314,1.245,0.471c1.487,0.556,1.76,1.078,1.76,2.115
	c0,1.487-0.932,2.356-2.439,2.356c-0.775,0-1.697-0.221-2.147-1.245c-0.167-0.389-0.158-1.017-0.167-1.436h0.868
	c-0.042,1.162,0.178,1.896,1.487,1.896c0.881,0,1.498-0.45,1.498-1.372c0-1.193-0.481-1.204-1.278-1.508
	c-0.429-0.167-1.12-0.388-1.539-0.608c-0.744-0.376-0.933-1.004-0.933-1.78c0-1.299,0.912-2.147,2.189-2.147
	c1.435,0,2.315,0.743,2.23,2.22H33.477z"/>
<path fill="#FFFFFF" d="M38.336,3.612c2.293,0,2.575,2.115,2.564,3.917c-0.01,2.18-0.292,4.283-2.585,4.283
	c-2.294,0-2.566-2.104-2.588-4.283C35.728,5.727,36,3.612,38.336,3.612 M38.294,4.397c-1.341,0-1.676,1.403-1.665,3.152
	c0.011,2.273,0.241,3.477,1.687,3.477c1.444,0,1.675-1.204,1.686-3.477C40.012,5.8,39.676,4.397,38.294,4.397"/>
<polygon fill="#FFFFFF" points="42.378,11.623 42.378,3.769 43.247,3.769 43.247,10.837 46.451,10.837 46.451,11.623 "/>
<path fill="#FFFFFF" d="M49.1,3.77h1.153l2.209,7.854h-0.964l-0.617-2.262h-2.482l-0.575,2.262h-0.964L49.1,3.77z M49.666,4.397
	h-0.021l-1.038,4.178h2.074L49.666,4.397z"/>
<path fill="#FFFFFF" d="M54.337,11.623h-0.869V3.769h2.021c1.645,0,2.691,0.429,2.639,2.241c-0.031,0.922-0.597,1.582-1.508,1.707
	v0.021c1.017,0.094,1.268,0.419,1.393,1.467c0.032,0.586,0.084,1.162,0.168,1.748c0.032,0.146,0.094,0.492,0.304,0.492v0.178h-1.016
	c-0.189-0.502-0.272-1.476-0.272-2c0-0.785-0.314-1.455-1.341-1.455h-1.518V11.623z M54.337,7.382h1.371
	c0.408-0.01,1.54-0.073,1.52-1.445c-0.021-1.35-1.079-1.382-1.666-1.382h-1.225V7.382z"/>
</svg>
