<?xml version="1.0" encoding="utf-8"?>
<!-- Generator: Adobe Illustrator 16.0.0, SVG Export Plug-In . SVG Version: 6.00 Build 0)  -->
<!DOCTYPE svg PUBLIC "-//W3C//DTD SVG 1.1//EN" "http://www.w3.org/Graphics/SVG/1.1/DTD/svg11.dtd">
<svg version="1.1" id="Layer_1" xmlns="http://www.w3.org/2000/svg" xmlns:xlink="http://www.w3.org/1999/xlink" x="0px" y="0px"
	 width="1160px" height="1115px" viewBox="0 0 1160 1115" enable-background="new 0 0 1160 1115" xml:space="preserve">
<g id="New_Symbol_106">
	<g>
		<path fill="#FF864A" d="M845.938,844.134c-3.801,0-13.093,0-16.894-3.802L300.968,306.484c-9.432-7.461-9.432-20.554,0-29.986
			c9.433-9.433,20.554-9.433,29.987,0l528.217,528.217c9.433,9.433,9.433,20.555,0,29.987
			C859.031,844.134,851.57,844.134,845.938,844.134z"/>
		<path fill="#FF864A" d="M317.722,844.134c-3.801,0-13.093,0-16.894-3.802c-9.433-9.433-9.433-20.554,0-29.986l528.217-530.048
			c9.433-9.432,20.555-9.432,29.986,0c9.433,9.433,9.433,20.555,0,29.987L330.955,840.332
			C325.324,844.134,321.522,844.134,317.722,844.134z"/>
	</g>
	<rect x="149.205" y="126.704" fill="none" width="861.59" height="861.591"/>
</g>
</svg>
