<?xml version="1.0" encoding="utf-8"?>
<!-- Generator: Adobe Illustrator 23.0.1, SVG Export Plug-In . SVG Version: 6.00 Build 0)  -->
<svg version="1.1" id="Ebene_1" xmlns="http://www.w3.org/2000/svg" xmlns:xlink="http://www.w3.org/1999/xlink" x="0px" y="0px"
	 viewBox="0 0 100 100" style="enable-background:new 0 0 100 100;" xml:space="preserve">
<style type="text/css">
	.st0{fill:#D62427;}
	.st1{fill:#DC3027;}
	.st2{fill:#F8D12E;}
</style>
<g>
	<circle class="st0" cx="50" cy="50" r="50"/>
	<path class="st1" d="M0,50C0,22.4,22.4,0,50,0c27.6,0,27.6,100,0,100C22.4,100,0,77.6,0,50z"/>
	<g>
		<polygon class="st2" points="28.8,13.8 31.2,21 38.7,21 32.6,25.4 35,32.6 28.8,28.1 22.7,32.6 25.1,25.4 19,21 26.5,21 		"/>
		<polygon class="st2" points="46.5,9.7 45.7,12.2 47.9,13.7 45.3,13.8 44.5,16.3 43.7,13.8 41,13.9 43.1,12.3 42.2,9.8 44.4,11.3 
					"/>
		<polygon class="st2" points="46.5,32.2 45.7,34.8 47.9,36.2 45.3,36.3 44.5,38.8 43.7,36.4 41,36.5 43.1,34.8 42.2,32.4 
			44.4,33.9 		"/>
		<polygon class="st2" points="52.9,16.6 52.1,19.1 54.3,20.6 51.7,20.6 50.9,23.2 50,20.7 47.4,20.8 49.5,19.2 48.6,16.7 
			50.8,18.2 		"/>
		<polygon class="st2" points="52.9,25.8 52.1,28.3 54.3,29.8 51.7,29.8 50.9,32.4 50,29.9 47.4,30 49.5,28.4 48.6,25.9 50.8,27.4 
					"/>
	</g>
</g>
</svg>
