<?xml version="1.0" encoding="utf-8"?>
<!-- Generator: Adobe Illustrator 23.0.1, SVG Export Plug-In . SVG Version: 6.00 Build 0)  -->
<svg version="1.1" id="Ebene_1" xmlns="http://www.w3.org/2000/svg" xmlns:xlink="http://www.w3.org/1999/xlink" x="0px" y="0px"
	 viewBox="0 0 100 100" style="enable-background:new 0 0 100 100;" xml:space="preserve">
<style type="text/css">
	.st0{fill:#E61E25;}
	.st1{fill:#E4E4E4;}
	.st2{fill:#3757A6;}
	.st3{fill:#EF4F4E;}
	.st4{fill:#F3F4F5;}
</style>
<g>
	<path class="st0" d="M66.7,2.9L60.8,19c5.4,17.8,5.4,44.2,0,61.9l5.8,16.2C86.1,90.3,100,71.8,100,50C100,28.2,86.1,9.7,66.7,2.9z"
		/>
	<g>
		<path class="st1" d="M66.7,19V2.9C61.5,1,55.8,0,50,0C57.7,0,47,26.1,66.7,19z"/>
		<path class="st1" d="M50,100c5.8,0,11.5-1,16.7-2.9V81C47.2,79,50,100,50,100z"/>
	</g>
	<path class="st2" d="M0,50c0,21.8,14,40.4,33.5,47.2V2.8C14,9.6,0,28.2,0,50z"/>
	<path class="st3" d="M66.7,19V81C72.1,63.2,72.1,36.8,66.7,19z"/>
	<path class="st4" d="M66.7,81V19C63.3,7.8,57.7,0,50,0c-5.8,0-11.3,1-16.5,2.8v94.4C38.7,99,44.2,100,50,100
		C57.7,100,63.3,92.2,66.7,81z"/>
</g>
</svg>
