<?xml version="1.0" encoding="utf-8"?>
<!-- Generator: Adobe Illustrator 23.0.1, SVG Export Plug-In . SVG Version: 6.00 Build 0)  -->
<svg version="1.1" id="Ebene_1" xmlns="http://www.w3.org/2000/svg" xmlns:xlink="http://www.w3.org/1999/xlink" x="0px" y="0px"
	 viewBox="0 0 100 100" style="enable-background:new 0 0 100 100;" xml:space="preserve">
<style type="text/css">
	.st0{fill:#FFFFFF;}
	.st1{fill:#EFECEC;}
	.st2{fill:#F3F2F2;}
	.st3{fill:#EC1C24;}
</style>
<g>
	<g>
		<circle class="st0" cx="50" cy="50" r="50"/>
		<circle class="st0" cx="50" cy="50" r="50"/>
	</g>
	<path class="st1" d="M97.1,33.3C97.1,33.3,97.1,33.3,97.1,33.3C90.7,15.2,74.3,2,54.5,0.2c7.7,4.2,9.9,17.5,11.8,33.1
		c1.3,10.7,1.3,22.4,0,33.1c-1.9,15.7-4.2,29.1-11.9,33.3C74.3,98,90.8,84.7,97.2,66.6c0,0,0-0.1,0-0.1C99,61.3,100,55.8,100,50
		C100,44.2,99,38.5,97.1,33.3z"/>
	<path class="st2" d="M68.9,33.3C67,17.7,62.1,4.4,54.5,0.2C53,0.1,51.5,0,50,0C28.2,0,9.8,13.9,2.9,33.3c0,0,0,0,0,0
		C1,38.5,0,44.2,0,50c0,5.8,1,11.3,2.8,16.5c0,0,0,0.1,0,0.1C9.7,86.1,28.2,100,50,100c1.5,0,3-0.1,4.5-0.2
		c7.7-4.2,12.5-17.6,14.4-33.3C70.3,55.8,70.2,44,68.9,33.3z"/>
	<circle class="st3" cx="50" cy="50" r="18.4"/>
</g>
</svg>
