<?xml version="1.0" encoding="utf-8"?>
<!-- Generator: Adobe Illustrator 23.0.1, SVG Export Plug-In . SVG Version: 6.00 Build 0)  -->
<svg version="1.1" id="Ebene_1" xmlns="http://www.w3.org/2000/svg" xmlns:xlink="http://www.w3.org/1999/xlink" x="0px" y="0px"
	 viewBox="0 0 100 100" style="enable-background:new 0 0 100 100;" xml:space="preserve">
<style type="text/css">
	.st0{fill:#F0F0F0;}
	.st1{fill:#D80027;}
	.st2{fill:#0052B4;}
	.st3{opacity:5.000000e-02;}
</style>
<g>
	<path class="st0" d="M100,50c0,27.6-22.4,50-50,50C22.4,100,0,77.6,0,50C0,22.4,22.4,0,50,0C77.6,0,100,22.4,100,50L100,50z
		 M100,50"/>
	<path class="st1" d="M67.4,50c0,4.3-7.8,15.2-17.4,15.2c-9.6,0-17.4-10.9-17.4-15.2c0-9.6,7.8-17.4,17.4-17.4
		C59.6,32.6,67.4,40.4,67.4,50L67.4,50z M67.4,50"/>
	<path class="st2" d="M67.4,50c0,9.6-7.8,17.4-17.4,17.4c-9.6,0-17.4-7.8-17.4-17.4"/>
	<path d="M68.4,65.4l4.6-4.6l3.1,3.1l-4.6,4.6L68.4,65.4z M68.4,65.4"/>
	<path d="M60.8,73.1l4.6-4.6l3.1,3.1l-4.6,4.6L60.8,73.1z M60.8,73.1"/>
	<path d="M77.7,74.6l4.6-4.6l3.1,3.1l-4.6,4.6L77.7,74.6z M77.7,74.6"/>
	<path d="M70,82.3l4.6-4.6l3.1,3.1l-4.6,4.6L70,82.3z M70,82.3"/>
	<path d="M73.1,70l4.6-4.6l3.1,3.1l-4.6,4.6L73.1,70z M73.1,70"/>
	<path d="M65.4,77.7l4.6-4.6l3.1,3.1l-4.6,4.6L65.4,77.7z M65.4,77.7"/>
	<path d="M77.7,34.6L65.4,22.3l3.1-3.1l12.3,12.3L77.7,34.6z M77.7,34.6"/>
	<path d="M65.4,31.6l-4.6-4.6l3.1-3.1l4.6,4.6L65.4,31.6z M65.4,31.6"/>
	<path d="M73.1,39.2l-4.6-4.6l3.1-3.1l4.6,4.6L73.1,39.2z M73.1,39.2"/>
	<path d="M74.6,22.3L70,17.7l3.1-3.1l4.6,4.6L74.6,22.3z M74.6,22.3"/>
	<path d="M82.3,30l-4.6-4.6l3.1-3.1l4.6,4.6L82.3,30z M82.3,30"/>
	<path d="M17.7,70L30,82.3l-3.1,3.1L14.6,73.1L17.7,70z M17.7,70"/>
	<path d="M30,73.1l4.6,4.6l-3.1,3.1l-4.6-4.6L30,73.1z M30,73.1"/>
	<path d="M22.3,65.4l4.6,4.6l-3.1,3.1l-4.6-4.6L22.3,65.4z M22.3,65.4"/>
	<path d="M26.9,60.8l12.3,12.3l-3.1,3.1L23.9,63.8L26.9,60.8z M26.9,60.8"/>
	<path d="M30,17.7L17.7,30l-3.1-3.1l12.3-12.3L30,17.7z M30,17.7"/>
	<path d="M34.6,22.3L22.3,34.6l-3.1-3.1l12.3-12.3L34.6,22.3z M34.6,22.3"/>
	<path d="M39.2,26.9L26.9,39.2l-3.1-3.1l12.3-12.3L39.2,26.9z M39.2,26.9"/>
</g>
<path class="st3" d="M97.1,33.4L97.1,33.4C90.7,15.3,74.3,2.1,54.5,0.3C62.2,4.5,67,17.9,68.9,33.5c1.3,10.7,1.3,22.4,0,33.1
	C67,82.3,62.1,95.5,54.4,99.8c19.9-1.7,36.4-15,42.8-33.1v-0.1c1.8-5.2,2.8-10.7,2.8-16.5S99,38.6,97.1,33.4z"/>
</svg>
