<?xml version="1.0" encoding="utf-8"?>
<!-- Generator: Adobe Illustrator 23.0.1, SVG Export Plug-In . SVG Version: 6.00 Build 0)  -->
<svg version="1.1" id="Ebene_1" xmlns="http://www.w3.org/2000/svg" xmlns:xlink="http://www.w3.org/1999/xlink" x="0px" y="0px"
	 viewBox="0 0 100 100" style="enable-background:new 0 0 100 100;" xml:space="preserve">
<style type="text/css">
	.st0{fill:#FFFFFF;}
	.st1{fill:#EFECEC;}
	.st2{fill:#429945;}
	.st3{fill:#0B0B0B;}
	.st4{fill:#EFEFEF;}
	.st5{fill:#49A948;}
	.st6{fill:#151515;}
	.st7{fill:#E73B36;}
</style>
<g>
	<circle class="st0" cx="50" cy="50" r="50"/>
	<path class="st1" d="M97.1,33.3H66.3c1.3,10.7,1.3,22.4,0,33.1h30.8C99,61.3,100,55.8,100,50C100,44.2,99,38.5,97.1,33.3z"/>
	<path class="st2" d="M66.3,33.3h30.8c0,0,0,0,0,0C90.7,15.2,74.3,2,54.5,0.2C62.1,4.4,64.4,17.7,66.3,33.3z"/>
	<path class="st3" d="M54.5,99.8C74.3,98,90.8,84.7,97.2,66.6c0,0,0-0.1,0-0.1H66.4C64.4,82.2,62.2,95.6,54.5,99.8z"/>
	<path class="st4" d="M0,50c0,5.8,1,11.3,2.8,16.5h66.1c1.3-10.7,1.3-22.5,0-33.1H2.9C1,38.5,0,44.2,0,50z"/>
	<path class="st5" d="M2.9,33.3C2.9,33.3,2.9,33.3,2.9,33.3l66,0C67,17.7,62.1,4.4,54.5,0.2C53,0.1,51.5,0,50,0
		C28.2,0,9.8,13.9,2.9,33.3z"/>
	<path class="st6" d="M68.9,66.5H2.8c0,0,0,0.1,0,0.1C9.7,86.1,28.2,100,50,100c1.5,0,3-0.1,4.5-0.2C62.2,95.6,67,82.2,68.9,66.5z"
		/>
	<path class="st7" d="M0,50c0,20.8,12.7,38.7,30.8,46.2V3.8C12.7,11.3,0,29.2,0,50z"/>
</g>
</svg>
