<?xml version="1.0" encoding="utf-8"?>
<!-- Generator: Adobe Illustrator 23.0.1, SVG Export Plug-In . SVG Version: 6.00 Build 0)  -->
<svg version="1.1" id="Ebene_1" xmlns="http://www.w3.org/2000/svg" xmlns:xlink="http://www.w3.org/1999/xlink" x="0px" y="0px"
	 viewBox="0 0 100 100" style="enable-background:new 0 0 100 100;" xml:space="preserve">
<style type="text/css">
	.st0{fill:#29337A;}
	.st1{fill:#FFFFFF;}
	.st2{fill:#D32030;}
	.st3{fill:#252F6C;}
	.st4{fill:#E7E7E7;}
	.st5{fill:#D71F28;}
	.st6{fill:#E51D35;}
</style>
<g>
	<g>
		<path class="st0" d="M8.8,21.7c-3.2,4.7-5.7,9.9-7.2,15.6h22.7L8.8,21.7z"/>
		<path class="st0" d="M36,2c-5.8,1.7-11.1,4.4-15.8,7.8L36,25.6V2z"/>
		<path class="st0" d="M21.4,91c4.4,3.1,9.3,5.5,14.6,7V76.4L21.4,91z"/>
		<path class="st0" d="M2.2,64.8c1.7,5.4,4.2,10.3,7.4,14.7l14.7-14.7H2.2z"/>
	</g>
	<g>
		<path class="st1" d="M9.6,20.5c-0.3,0.4-0.6,0.8-0.8,1.2l15.6,15.6H1.6c-0.4,1.4-0.7,2.8-0.9,4.3h29.9L9.6,20.5z"/>
		<path class="st1" d="M20.2,90.2c0.4,0.3,0.8,0.6,1.2,0.8L36,76.4V98c1.4,0.4,2.8,0.8,4.3,1.1V70.1L20.2,90.2z"/>
		<path class="st1" d="M1.1,60.5c0.3,1.5,0.7,2.9,1.1,4.3h22.2L9.6,79.5c1.6,2.2,3.4,4.2,5.3,6.1l25.2-25.2H1.1L1.1,60.5z"/>
		<path class="st1" d="M36,2v23.6L20.2,9.8c-2.2,1.6-4.2,3.4-6.1,5.4l26.2,26.2V1C38.8,1.2,37.4,1.6,36,2z"/>
	</g>
	<g>
		<polygon class="st2" points="36,64.6 35.8,64.8 36,64.8 		"/>
		<polygon class="st2" points="40.1,60.5 40.3,60.5 40.3,60.3 		"/>
		<polygon class="st2" points="59.4,41.5 59.2,41.5 59.2,41.7 		"/>
		<polygon class="st2" points="36.1,37.3 36,37.1 36,37.3 		"/>
		<polygon class="st2" points="40.3,41.4 40.3,41.5 40.4,41.5 		"/>
	</g>
	<g>
		<path class="st3" d="M63.5,86.9v11.2c5.4-1.5,10.4-3.9,14.8-6.9L66.2,79C65.2,82.5,64.9,84.2,63.5,86.9z"/>
		<path class="st3" d="M66.2,22.9L79.5,9.6c-4.8-3.5-10.2-6.1-16-7.8v11.5C65.1,16.5,65.2,18.9,66.2,22.9z"/>
		<path class="st3" d="M90.2,79.8c3.3-4.5,5.9-9.6,7.6-15H75.1L90.2,79.8z"/>
		<path class="st3" d="M98.4,37.3c-1.5-5.8-4-11.1-7.4-15.9L75.1,37.3H98.4z"/>
	</g>
	<g>
		<path class="st4" d="M69.2,61.3l3.4,3.4l16.4,16.4c0.4-0.5,0.7-0.9,1.1-1.4l-15-15h22.7c0.4-1.4,0.8-2.8,1.1-4.3H69.5
			C69.4,61.1,69.2,60.7,69.2,61.3z"/>
		<path class="st4" d="M65.7,25.4l14.9-14.9c-0.4-0.3-0.7-0.6-1.1-0.9L66.2,22.9C66.4,23.4,65.6,24.9,65.7,25.4z"/>
		<path class="st4" d="M63.5,12.5V1.9c-1.4-0.4-2.8-0.7-4.3-1V6C60.8,7.8,62.2,9.9,63.5,12.5z"/>
		<path class="st4" d="M68.8,41.5h30.4c-0.2-1.4-0.5-2.9-0.9-4.3H75.1L91,21.4c-1.6-2.2-3.3-4.3-5.2-6.3L67.9,33
			C68.4,36.2,68.6,38.1,68.8,41.5z"/>
		<path class="st4" d="M65.5,78.3l12.9,12.9c2.1-1.5,4.2-3.1,6-4.9L67.4,69.4C66.9,72.5,66.3,75.5,65.5,78.3z"/>
		<path class="st4" d="M59.2,93.4v5.8c1.5-0.3,2.9-0.6,4.3-1V86.9C62.2,89.5,60.8,91.7,59.2,93.4z"/>
	</g>
	<path class="st5" d="M67.9,33l17.9-17.9c-1.6-1.7-3.3-3.2-5.2-4.6l-14,14.1C67.2,27.2,67.5,30.1,67.9,33z"/>
	<g>
		<path class="st2" d="M47.5,0.1C48.3,0,49.2,0,50,0C49.2,0,48.3,0,47.5,0.1z"/>
		<path class="st2" d="M50,100c-0.8,0-1.7,0-2.5-0.1C48.3,100,49.2,100,50,100z"/>
		<path class="st2" d="M50,100c3.2,0,6.2-0.3,9.2-0.9v-5.8C56.6,96.2,53.5,100,50,100z"/>
	</g>
	<g>
		<path class="st5" d="M99.3,41.5h-30c0.4,6.3,0.3,12.7-0.1,18.9h29.8c0.7-3.4,1.1-6.9,1.1-10.5C100,47.1,99.7,44.3,99.3,41.5z"/>
		<path class="st5" d="M69.2,61.3c-0.3,3-1.2,5.3-1.7,8l16.9,16.9c1.7-1.6,3.2-3.3,4.7-5.1L72.6,64.8L69.2,61.3z"/>
	</g>
	<path class="st2" d="M59.2,6.4V0.9C56.2,0.3,53.2,0,50,0C53.5,0,56.6,3.6,59.2,6.4z"/>
	<g>
		<path class="st0" d="M63.5,89.1c1.4-2.7,2.5-5.8,3.5-9.2l-3.5-3.5V89.1z"/>
		<path class="st0" d="M67.4,21.7c-1.1-4-2.4-7.7-3.9-10.8v14.7L67.4,21.7z"/>
	</g>
	<g>
		<path class="st1" d="M70.1,62.3c0.1-0.6,0.1-1.2,0.2-1.8h-2L70.1,62.3z"/>
		<path class="st1" d="M63.5,25.6V10.9c-1.3-2.5-2.7-4.7-4.3-6.4v27.4l8.6-8.6c-0.1-0.5-0.3-1.1-0.4-1.6L63.5,25.6z"/>
		<path class="st1" d="M59.4,41.5h11.1c-0.2-3.4-0.6-6.8-1-10L59.4,41.5z"/>
		<path class="st1" d="M59.2,95.5c1.6-1.7,3-3.9,4.3-6.4V76.4l3.5,3.5c0.8-2.8,1.5-5.8,2-8.9l-9.8-9.8L59.2,95.5L59.2,95.5z"/>
	</g>
	<path class="st6" d="M59.2,95.5V61.2l9.8,9.8c0.5-2.8,0.9-5.7,1.1-8.6l-1.8-1.8h2c0.5-6.2,0.5-12.7,0.1-18.9H59.4l10-10
		c-0.4-2.8-0.9-5.6-1.6-8.2l-8.6,8.6V4.5C56.6,1.6,53.5,0,50,0c-0.8,0-1.7,0-2.5,0.1C45,0.2,42.6,0.5,40.3,1v40.4L14.1,15.2
		c-1.6,1.7-3.1,3.4-4.5,5.3l16.7,16.7l4.3,4.3H0.7C0.3,44.3,0,47.1,0,50c0,3.6,0.4,7.1,1.1,10.5h39L15,85.7c1.6,1.6,3.4,3.1,5.3,4.5
		l20.1-20.1V99c2.4,0.5,4.8,0.8,7.2,0.9c0.8,0,1.7,0.1,2.5,0.1C53.5,100,56.6,98.4,59.2,95.5z"/>
</g>
</svg>
