<svg xmlns="http://www.w3.org/2000/svg" width="230" height="202" viewBox="0 0 230 202">
    <g fill="none" fill-rule="evenodd">
        <path fill="#FFF" d="M-1004-395H436V870h-1440z"/>
        <g fill="#DEDDDB">
            <path d="M222.272 165.886c0 .613-.464 1.074-1.08 1.074h-24.941v-23.014c0-2.003-1.633-3.627-3.646-3.627-2.014 0-3.647 1.624-3.647 3.627v23.014h-53.53c-.404 0-.792.068-1.156.19v-4.94c0-12.766-5.263-23.68-15.221-31.565-2.456-2.006-5.673-3.837-9.814-5.597 1.68-2.218 3.689-4.258 6.003-6.09 2.17-1.726 5.13-3.366 8.77-4.862a94.684 94.684 0 0 1 8.904-3.028l.055-.016c3.627-1.057 6.57-1.654 7.537-1.85l.271-.057c.396-.04.77.07.974.286.012.014.026.027.039.04l18.129 18.727a3.657 3.657 0 0 0 2.618 1.111h.008c.985 0 1.929-.396 2.616-1.1l18.283-18.726.05-.052c.268-.286.638-.313.92-.284l.398.075c1.185.22 3.954.734 7.309 1.676.452.137 5.812 1.766 8.996 3.027 3.847 1.668 6.686 3.328 8.707 5.102 9.178 7.876 12.448 18.514 12.448 25.845v21.014zm-95.293 27.281c0 .612-.464 1.073-1.079 1.073H99.564v-32.954c0-2.003-1.632-3.627-3.646-3.627-2.014 0-3.647 1.624-3.647 3.627v32.954H40.684v-32.954c0-2.003-1.632-3.627-3.646-3.627-2.014 0-3.647 1.624-3.647 3.627v32.954H8.45c-.616 0-1.08-.461-1.08-1.073 0-.257-.026-.508-.078-.749v-30.207c0-7.29 3.274-17.911 12.48-25.871 2.117-1.858 5.113-3.612 8.625-5.055 3.174-1.263 8.596-2.91 9.047-3.047 3.355-.942 6.125-1.456 7.31-1.676l.391-.074c.369-.036.738.098.987.345l18.438 18.726a3.654 3.654 0 0 0 2.605 1.09h.016a3.652 3.652 0 0 0 2.61-1.112l18.13-18.726.038-.041c.221-.235.562-.356.852-.31l.345.075c.98.214 3.964.864 7.642 1.873.043.012 4.345 1.2 8.874 3.016 3.79 1.557 6.737 3.186 8.758 4.841l.049.04c8.171 6.46 12.49 15.418 12.49 25.906v30.956zm87.639-79.606c-2.579-2.264-6.06-4.328-10.642-6.31a3.124 3.124 0 0 0-.1-.04c-3.592-1.43-9.426-3.19-9.673-3.265a2.098 2.098 0 0 0-.063-.018c-3.69-1.04-6.704-1.598-7.991-1.837-.182-.034-.323-.06-.421-.08a3.67 3.67 0 0 0-.175-.03c-2.757-.412-5.505.512-7.361 2.47l-15.636 16.014-15.499-16.01c-1.862-1.967-4.64-2.893-7.443-2.473-.099.014-.198.033-.296.056l-.27.056c-1.04.21-4.196.852-8.106 1.99-.448.124-4.876 1.365-9.688 3.295-4.366 1.794-7.823 3.73-10.561 5.909-3.389 2.68-6.25 5.761-8.532 9.163a87.195 87.195 0 0 0-3.414-1.035c-3.867-1.062-6.994-1.742-8.022-1.967l-.279-.06a3.986 3.986 0 0 0-.166-.038c-2.757-.547-5.673.388-7.62 2.445l-15.508 16.02-15.838-16.087c-1.915-1.904-4.648-2.809-7.302-2.408a3.67 3.67 0 0 0-.175.03c-.098.02-.24.046-.421.08-1.287.239-4.3.798-7.99 1.836a9.28 9.28 0 0 0-.064.019c-.247.074-6.08 1.834-9.71 3.279-4.289 1.761-7.99 3.952-10.685 6.317C3.932 140.424 0 153.322 0 162.211v30.956c0 .34.047.672.136.984.492 4.13 4.032 7.343 8.314 7.343H125.9c4.617 0 8.372-3.735 8.372-8.327v-19.143c.364.121.752.19 1.157.19h85.763c4.617 0 8.373-3.736 8.373-8.328v-21.014c0-8.937-3.935-21.863-14.947-31.311zM151.498 57.25a3.908 3.908 0 0 0-3.951-3.93c-2.17 0-3.952 1.772-3.952 3.93 0 2.157 1.783 3.93 3.952 3.93s3.95-1.773 3.95-3.93M176.134 53.32c-2.168 0-3.95 1.772-3.95 3.93 0 2.157 1.782 3.93 3.95 3.93 2.17 0 3.952-1.773 3.952-3.93 0-2.158-1.782-3.93-3.952-3.93"/>
            <path d="M137.728 21.215a5.453 5.453 0 0 1-2.53-4.877l.153-3.354c.11-1.978 1.246-3.692 3.039-4.583a5.39 5.39 0 0 1 2.406-.583c1.02 0 2.032.308 2.959.922l10.859 6.976-8.797 4.435a40.36 40.36 0 0 0-3.15 1.551c-1.649.651-3.42.489-4.94-.487zM180.14 8.71c1.619-1.074 3.559-1.187 5.321-.31 1.792.891 2.928 2.605 3.037 4.547l.155 3.387a5.455 5.455 0 0 1-2.53 4.88c-1.222.786-2.61 1.045-3.965.779a40.344 40.344 0 0 0-6.085-2.832l-6.836-3.446 10.903-7.005zm13.682 38.449c-15.853-2.052-28.143-9.51-37.447-22.685a33.15 33.15 0 0 1 16.846 1.382l4.18 2.108c.637.32 1.29.582 1.954.79 6.83 4.14 12.047 10.666 14.467 18.405zm-31.664 42.76c-17.589 0-32.015-13.696-33.083-30.928 12.914-8.06 21.374-16.54 25.24-25.308 10.468 12.26 24.19 19.284 40.905 20.932.054.77.091 1.543.091 2.325 0 18.184-14.872 32.978-33.153 32.978zm-15.706-61.957l2.537-1.278c-1.713 7.724-8.157 15.49-19.202 23.155 2.049-9.249 8.01-17.049 16.064-21.595.202-.09.402-.182.601-.282zm-24.74 28.978c0 .045.003.09.003.136 0 .052 0 .104.004.156.159 22.05 18.235 39.94 40.439 39.94 22.302 0 40.446-18.048 40.446-40.232 0-11.602-4.968-22.065-12.892-29.414.122-.073.246-.14.367-.217 3.874-2.488 6.064-6.711 5.859-11.3l-.157-3.428c-.258-4.61-2.896-8.6-7.058-10.67-4.108-2.043-8.828-1.756-12.584.735l-14.214 9.133-14.17-9.105c-3.8-2.521-8.52-2.806-12.627-.762-4.162 2.07-6.801 6.059-7.06 10.706l-.155 3.394c-.205 4.586 1.985 8.808 5.859 11.297.214.137.433.263.652.386-7.818 7.341-12.713 17.732-12.713 29.245z"/>
            <path d="M172.22 71.483c-5.824 5.109-14.608 5.11-20.434 0a3.662 3.662 0 0 0-5.147.322 3.614 3.614 0 0 0 .324 5.12c4.287 3.759 9.664 5.639 15.04 5.639 5.376 0 10.752-1.88 15.04-5.64a3.615 3.615 0 0 0 .323-5.12 3.66 3.66 0 0 0-5.146-.321M80.61 76.556c2.217 0 4.04-1.812 4.04-4.019 0-2.206-1.823-4.018-4.04-4.018-2.219 0-4.04 1.812-4.04 4.018 0 2.207 1.821 4.019 4.04 4.019M51.46 76.556c2.219 0 4.04-1.812 4.04-4.019 0-2.206-1.821-4.018-4.04-4.018a3.996 3.996 0 0 0-4.039 4.018c0 2.207 1.822 4.019 4.04 4.019"/>
            <path d="M50.091 43.684c2.14 3.956 2.279 7.523.54 11.75H37.3a34.146 34.146 0 0 1 12.792-11.75m21.19-3.505c3.626 5.295 4.206 9.763 1.958 15.255H58.33c1.403-4.969.934-9.68-1.44-14.442a34.05 34.05 0 0 1 14.39-.813m23.331 15.255H80.947c1.222-4.203 1.211-8.225-.062-12.228a34.136 34.136 0 0 1 13.727 12.228m-28.656 51.923c-18.735 0-33.978-15.162-33.978-33.799 0-3.802.644-7.456 1.813-10.87h64.33a33.47 33.47 0 0 1 1.813 10.87c0 18.637-15.242 33.799-33.978 33.799M7.262 62.688h18.904a40.738 40.738 0 0 0-1.48 10.87c0 22.637 18.514 41.053 41.27 41.053 22.757 0 41.27-18.416 41.27-41.053 0-22.635-18.513-41.051-41.27-41.051-16.219 0-30.275 9.357-37.018 22.927H7.262c-2.014 0-3.646 1.624-3.646 3.627 0 2.003 1.632 3.627 3.646 3.627"/>
            <path d="M66.293 96.033c-5.608 0-9.943-3.058-11.27-7.599h22.604c-1.233 4.587-5.551 7.599-11.334 7.599M81.555 81.18H51.032c-.382 0-3.724.119-3.724 4.24 0 10.186 8.162 17.867 18.985 17.867 10.824 0 18.985-7.582 18.985-17.636 0-.372-.004-.664-.017-.864-.158-2.368-1.984-3.607-3.706-3.607"/>
        </g>
    </g>
</svg>
