<svg xmlns="http://www.w3.org/2000/svg" width="148" height="202" viewBox="0 0 148 202">
    <g fill="none" fill-rule="evenodd">
        <path fill="#FFF" d="M-246-393h1440V872H-246z"/>
        <g fill="#DEDDDB" stroke="#DEDDDB">
            <path d="M57 47a4 4 0 0 0 4-4c0-2.186-1.814-4-4-4a4 4 0 0 0-4 4c0 2.187 1.814 4 4 4M87 47a4 4 0 0 0 4-4c0-2.186-1.814-4-4-4a4 4 0 0 0-4 4c0 2.187 1.814 4 4 4M140.87 192.693a2.147 2.147 0 0 1-2.17 2.17h-30.04v-64.098a3.067 3.067 0 0 0-3.064-3.068 3.067 3.067 0 0 0-3.066 3.068v64.099H43.82v-64.099a3.067 3.067 0 0 0-3.066-3.068 3.067 3.067 0 0 0-3.065 3.068v64.099H9.299c-1.06 0-1.97-.808-2.14-1.83.012-.112.019-.226.019-.341v-61.031c0-8.315 3.687-20.405 14.038-29.405 2.38-2.075 5.69-4.015 9.8-5.75 3.52-1.435 9.579-3.254 10.02-3.386 4.284-1.192 7.677-1.795 8.63-1.954.658-.114 1.381.128 1.862.628l20.277 20.816a3.064 3.064 0 0 0 2.195.926h.01a3.066 3.066 0 0 0 2.2-.942L96.156 91.83a2.106 2.106 0 0 1 1.938-.625c.063.013.093.018.157.026.373.056 3.921.736 8.65 2.088.048.013 4.855 1.352 9.906 3.41 4.372 1.845 7.618 3.647 9.931 5.514 9.245 7.42 14.132 17.626 14.132 29.514v60.937zM130.58 97.46c-2.759-2.226-6.484-4.315-11.426-6.4a106.846 106.846 0 0 0-10.594-3.649c-4.732-1.353-8.471-2.102-9.384-2.246a8.24 8.24 0 0 0-7.438 2.41l-17.754 18.483-18.052-18.532a8.195 8.195 0 0 0-7.288-2.41c-1.303.218-4.815.857-9.278 2.101l-.05.015c-.273.08-6.698 1.996-10.647 3.606-4.746 2.003-8.608 4.288-11.476 6.79-11.904 10.35-16.146 24.367-16.146 34.034v60.493c-.03.174-.047.354-.047.538C1 197.273 4.723 201 9.3 201h129.4c4.576 0 8.3-3.727 8.3-8.307v-60.937c0-13.814-5.68-25.676-16.42-34.296zM57.759 58.037a3.064 3.064 0 0 0 .275 4.314A22.562 22.562 0 0 0 73 68c5.35 0 10.7-1.883 14.966-5.65a3.064 3.064 0 0 0 .275-4.313 3.038 3.038 0 0 0-4.298-.275c-6.239 5.508-15.648 5.508-21.886 0a3.038 3.038 0 0 0-4.298.275"/>
            <path d="M64.712 16.502c10.952 13.31 25.39 20.837 43.025 22.429.09 1.012.144 2.034.144 3.069 0 19.233-15.648 34.88-34.881 34.88-18.669 0-33.957-14.743-34.838-33.197 14.11-8.801 22.868-17.754 26.55-27.181M60.32 9.516c-1.449 8.88-8.735 17.798-21.687 26.563C40.721 23.925 49.115 13.905 60.32 9.516M73 7.12c16 0 29.51 10.834 33.603 25.549-17.28-1.96-30.62-10.079-40.683-24.738-.018-.026-.04-.048-.059-.073A34.848 34.848 0 0 1 73 7.119M73 83c22.607 0 41-18.393 41-41 0-22.608-18.393-41-41-41S32 19.392 32 42c0 22.607 18.393 41 41 41"/>
        </g>
    </g>
</svg>
