<svg xmlns="http://www.w3.org/2000/svg" width="231" height="220" viewBox="0 0 231 220">
    <g fill="none" fill-rule="evenodd">
        <path fill="#FFF" d="M-604-378H836V887H-604z"/>
        <g fill="#DEDDDB">
            <path d="M81.853 60.42c2.16 0 3.934-1.776 3.934-3.937 0-2.162-1.775-3.937-3.934-3.937-2.16-.078-3.934 1.698-3.934 3.937 0 2.161 1.774 3.937 3.934 3.937M56.089 56.483c0-2.161-1.775-3.937-3.935-3.937-2.16-.078-3.933 1.698-3.933 3.937 0 2.161 1.774 3.937 3.933 3.937 2.16 0 3.935-1.776 3.935-3.937M149.487 45.173c2.163 0 3.94-1.779 3.94-3.943 0-2.165-1.777-3.943-3.94-3.943-2.162 0-3.939 1.778-3.939 3.943 0 2.164 1.777 3.943 3.94 3.943M177.914 45.173c2.162 0 3.94-1.779 3.94-3.943 0-2.165-1.7-3.943-3.94-3.943-2.163 0-3.94 1.778-3.94 3.943 0 2.164 1.777 3.943 3.94 3.943M223.34 183.945c0 .615-.463 1.078-1.077 1.078h-24.868v-57.235a3.637 3.637 0 0 0-3.636-3.638 3.637 3.637 0 0 0-3.635 3.638v57.235h-53.372c-.403 0-.79.069-1.153.19v-39.102c0-12.808-5.248-23.757-15.177-31.666-2.448-2.013-5.656-3.85-9.783-5.616 1.673-2.224 3.677-4.271 5.984-6.109 2.165-1.733 5.116-3.378 8.744-4.878a94 94 0 0 1 8.933-3.053c3.616-1.06 6.55-1.66 7.514-1.857l.27-.056c.392-.04.77.069.972.286l.038.041 18.076 18.787a3.635 3.635 0 0 0 2.61 1.114h.008c.983 0 1.924-.398 2.608-1.104l18.23-18.786.05-.052c.267-.286.637-.314.917-.284l.397.075c1.181.22 3.942.736 7.287 1.681.451.138 5.795 1.772 8.97 3.037 3.835 1.673 6.666 3.339 8.681 5.118 9.151 7.9 12.412 18.573 12.412 25.927v55.23zm-95.012 27.369c0 .613-.463 1.076-1.076 1.076h-26.259v-67.207a3.637 3.637 0 0 0-3.636-3.638 3.637 3.637 0 0 0-3.635 3.638v67.207H42.287v-67.207a3.637 3.637 0 0 0-3.636-3.638 3.637 3.637 0 0 0-3.636 3.638v67.207H10.147a1.053 1.053 0 0 1-1.076-1.076c0-.257-.026-.508-.077-.75V146.11c0-7.314 3.263-17.968 12.442-25.954 2.111-1.864 5.098-3.623 8.6-5.071 3.164-1.266 8.568-2.919 9.02-3.056 3.345-.945 6.107-1.461 7.288-1.682.155-.029.285-.053.39-.074.367-.037.736.099.984.346l18.384 18.786c.684.7 1.62 1.093 2.598 1.093h.015a3.633 3.633 0 0 0 2.603-1.115l18.076-18.786.039-.042c.219-.235.557-.359.85-.31l.344.076c.977.214 3.952.866 7.617 1.878.043.012 4.352 1.21 8.85 3.025 3.778 1.563 6.717 3.197 8.731 4.858l.049.039c8.147 6.482 12.454 15.468 12.454 25.99v65.202zm87.38-114.009c-2.571-2.27-6.042-4.341-10.611-6.329a3.104 3.104 0 0 0-.1-.041c-3.58-1.434-9.398-3.2-9.643-3.275a2.08 2.08 0 0 0-.064-.018c-3.68-1.043-6.684-1.603-7.967-1.843-.181-.034-.322-.06-.42-.08a3.638 3.638 0 0 0-.174-.03c-2.749-.414-5.49.513-7.34 2.477l-15.59 16.066-15.453-16.062c-1.856-1.973-4.628-2.901-7.42-2.48a3.565 3.565 0 0 0-.296.056l-.27.056c-1.035.212-4.183.854-8.081 1.996a100.32 100.32 0 0 0-9.66 3.306c-4.29 1.774-7.837 3.77-10.53 5.927-3.379 2.69-6.231 5.78-8.507 9.193a86.715 86.715 0 0 0-3.404-1.039c-3.853-1.064-6.971-1.747-7.996-1.972l-.279-.06a3.98 3.98 0 0 0-.166-.039c-2.75-.548-5.657.39-7.597 2.452l-15.463 16.071-15.791-16.136a8.547 8.547 0 0 0-7.456-2.387c-.097.02-.238.046-.42.08-1.283.24-4.287.8-7.967 1.843l-.063.018c-.246.075-6.063 1.84-9.682 3.29-4.274 1.767-7.965 3.964-10.652 6.337-11.003 9.572-14.923 22.512-14.923 31.43v65.202c0 .341.047.672.135.986.49 4.144 4.02 7.368 8.29 7.368h117.104c4.603 0 8.347-3.748 8.347-8.354V192.11c.362.122.75.19 1.153.19h85.511c4.603 0 8.348-3.748 8.348-8.355v-55.229c0-8.965-3.923-21.932-14.903-31.41z"/>
            <path d="M7.98 36.327c1.673.658 4.321.99 7.475-1.194 2.132-1.511 3.293-4.52 4.9-8.682 2.538-6.575 5.114-12.432 8.67-11.918 2.783.409 4.82 1.533 6.226 3.435 1.436 1.943 2.033 4.404 2.253 6.55a6.284 6.284 0 0 0-1.19.083c-3.87.635-5.998 4.344-8.693 9.04-1.879 3.273-4.218 7.349-7.61 11.357-1.438 1.67-3.02 2.184-4.985 1.621-3.38-.97-6.704-4.838-7.255-8.427a51.079 51.079 0 0 1-.267-2.073 7.1 7.1 0 0 0 .476.208m59.525-11.41a33.313 33.313 0 0 1 29.304 17.421C81.73 39.186 73.936 36.192 69.897 29.7a3.636 3.636 0 0 0-2.903-1.711 3.665 3.665 0 0 0-3.06 1.41c-5.998 7.768-14.218 11.497-26.548 14.56a33.307 33.307 0 0 1 30.119-19.042m33.314 33.42c0 18.384-14.945 33.341-33.314 33.341-18.37 0-33.314-14.957-33.314-33.342 0-2.168.194-4.275.576-6.29 14.07-3.15 24.249-6.876 31.894-14.708 6.905 7.247 18.374 10.157 33.21 13.04a33.93 33.93 0 0 1 .948 7.958m-87.797-4.722c1.157.333 2.306.496 3.431.496 3.42 0 6.612-1.51 9.086-4.385a61.229 61.229 0 0 0 3.56-4.656 40.974 40.974 0 0 0-.907 3.018c-.002.008-.003.017-.006.025l-.015.078a3.803 3.803 0 0 0-.057.293c-.79 3.124-1.194 6.437-1.194 9.853 0 22.398 18.207 40.62 40.585 40.62s40.585-18.222 40.585-40.62c0-4.31-.677-8.572-2.001-12.674a3.615 3.615 0 0 0-.12-.46C100.392 28.716 84.934 17.64 67.506 17.64a40.55 40.55 0 0 0-22.709 6.941c-.252-3.32-1.143-7.458-3.669-10.898-2.58-3.515-6.298-5.652-11.052-6.35-9.595-1.392-13.752 9.373-16.502 16.497-.769 1.989-1.812 4.693-2.415 5.427-.28.18-.473.253-.563.276-.66-.352-1.84-2.54-2.33-4.712a3.635 3.635 0 0 0-6.642-1.134C.988 24.712-.963 28.87.581 39.28c.987 6.42 6.335 12.584 12.441 14.335"/>
            <path d="M51.894 72.389a3.641 3.641 0 0 0 .323 5.136 22.616 22.616 0 0 0 14.996 5.657c5.36 0 10.72-1.886 14.995-5.657a3.642 3.642 0 0 0 .322-5.136 3.634 3.634 0 0 0-5.131-.323c-5.807 5.125-14.566 5.125-20.373 0a3.634 3.634 0 0 0-5.132.323M156.04 17.59c10.439 12.3 24.12 19.345 40.786 21 .054.77.091 1.546.091 2.331 0 18.243-14.829 33.083-33.056 33.083-17.536 0-31.92-13.739-32.985-31.026 12.875-8.085 21.31-16.593 25.165-25.389m-5.31-7.024c-1.708 7.75-8.132 15.54-19.146 23.232 2.301-10.447 9.544-19.055 19.146-23.232m13.13-2.728c14.815 0 27.385 9.805 31.572 23.271-15.806-2.058-28.06-9.54-37.337-22.757a33.053 33.053 0 0 1 5.765-.514m-40.32 33.377c.16 22.12 18.182 40.068 40.32 40.068 22.237 0 40.327-18.106 40.327-40.361 0-22.255-18.09-40.361-40.327-40.361-22.236 0-40.327 18.106-40.327 40.361 0 .045.004.09.004.135 0 .053 0 .105.003.158"/>
            <path d="M148.311 55.832a3.642 3.642 0 0 0 .323 5.136 22.618 22.618 0 0 0 14.996 5.657c5.36 0 10.72-1.886 14.995-5.657a3.641 3.641 0 0 0 .323-5.136 3.634 3.634 0 0 0-5.132-.323c-5.807 5.126-14.565 5.125-20.373 0a3.635 3.635 0 0 0-5.132.323"/>
        </g>
    </g>
</svg>
