<?xml version="1.0" encoding="utf-8"?>
<!-- Generator: Adobe Illustrator 23.0.1, SVG Export Plug-In . SVG Version: 6.00 Build 0)  -->
<svg version="1.1" id="Ebene_1" xmlns="http://www.w3.org/2000/svg" xmlns:xlink="http://www.w3.org/1999/xlink" x="0px" y="0px"
	 viewBox="0 0 59 100" style="enable-background:new 0 0 59 100;" xml:space="preserve">
<style type="text/css">
	.st0{fill:#FFFFFF;}
</style>
<g>
	<path class="st0" d="M11,1l46.7,46.7c0.7,0.7,1,1.4,1,2.3c0,0.9-0.3,1.6-1,2.3L11,99c-0.7,0.7-1.4,1-2.3,1S7,99.7,6.4,99l-5-5
		c-0.7-0.7-1-1.4-1-2.3c0-0.9,0.3-1.6,1-2.3L40.7,50L1.3,10.6c-0.7-0.7-1-1.4-1-2.3s0.3-1.6,1-2.3l5-5C7,0.3,7.8,0,8.7,0
		S10.3,0.3,11,1z"/>
</g>
</svg>
