<?xml version="1.0" encoding="utf-8"?>
<!-- Generator: Adobe Illustrator 23.0.1, SVG Export Plug-In . SVG Version: 6.00 Build 0)  -->
<svg version="1.1" id="Ebene_1" xmlns="http://www.w3.org/2000/svg" xmlns:xlink="http://www.w3.org/1999/xlink" x="0px" y="0px"
	 viewBox="0 0 59 100" style="enable-background:new 0 0 59 100;" xml:space="preserve">
<style type="text/css">
	.st0{fill:#000000;}
</style>
<g>
	<path class="st0" d="M50.3,0c0.9,0,1.6,0.3,2.3,1l5,5c0.7,0.7,1,1.4,1,2.3s-0.3,1.6-1,2.3L18.3,50l39.4,39.4c0.7,0.7,1,1.4,1,2.3
		c0,0.9-0.3,1.6-1,2.3l-5,5c-0.7,0.7-1.4,1-2.3,1s-1.6-0.3-2.3-1L1.3,52.3c-0.7-0.7-1-1.4-1-2.3c0-0.9,0.3-1.6,1-2.3L48,1
		C48.7,0.3,49.5,0,50.3,0z"/>
</g>
</svg>
