<?xml version="1.0" encoding="utf-8"?>
<!-- Generator: Adobe Illustrator 23.0.1, SVG Export Plug-In . SVG Version: 6.00 Build 0)  -->
<svg version="1.1" id="Ebene_1" xmlns="http://www.w3.org/2000/svg" xmlns:xlink="http://www.w3.org/1999/xlink" x="0px" y="0px"
	 viewBox="0 0 100 59" style="enable-background:new 0 0 100 59;" xml:space="preserve">
<style type="text/css">
	.st0{fill:#000000;}
</style>
<g>
	<path class="st0" d="M1,48L47.7,1.3c0.7-0.7,1.4-1,2.3-1c0.9,0,1.6,0.3,2.3,1L99,48c0.7,0.7,1,1.4,1,2.3s-0.3,1.6-1,2.3l-5,5
		c-0.7,0.7-1.4,1-2.3,1c-0.9,0-1.6-0.3-2.3-1L50,18.3L10.6,57.7c-0.7,0.7-1.4,1-2.3,1s-1.6-0.3-2.3-1l-5-5c-0.7-0.7-1-1.4-1-2.3
		C0,49.5,0.3,48.7,1,48z"/>
</g>
</svg>
