<?xml version="1.0" encoding="utf-8"?>
<!-- Generator: Adobe Illustrator 23.0.1, SVG Export Plug-In . SVG Version: 6.00 Build 0)  -->
<svg version="1.1" id="Ebene_1" xmlns="http://www.w3.org/2000/svg" xmlns:xlink="http://www.w3.org/1999/xlink" x="0px" y="0px"
	 viewBox="0 0 100 100" style="enable-background:new 0 0 100 100;" xml:space="preserve">
<style type="text/css">
	.st0{fill:#FFFFFF;}
</style>
<g>
	<path class="st0" d="M24.9,6.7C32.6,2.2,40.9,0,50,0s17.4,2.2,25.1,6.7c7.7,4.5,13.7,10.5,18.2,18.2c4.5,7.7,6.7,16,6.7,25.1
		s-2.2,17.4-6.7,25.1c-4.5,7.7-10.5,13.7-18.2,18.2S59.1,100,50,100s-17.4-2.2-25.1-6.7S11.2,82.8,6.7,75.1C2.2,67.4,0,59.1,0,50
		s2.2-17.4,6.7-25.1S17.2,11.2,24.9,6.7z M11.7,33.8C9.4,39,8.3,44.4,8.3,50s1.1,11,3.3,16.2c2.2,5.1,5.2,9.6,8.9,13.3
		c3.7,3.7,8.1,6.7,13.3,8.9c5.1,2.2,10.5,3.3,16.2,3.3s11-1.1,16.2-3.3c5.1-2.2,9.6-5.2,13.3-8.9c3.7-3.7,6.7-8.1,8.9-13.3
		c2.2-5.1,3.3-10.5,3.3-16.2s-1.1-11-3.3-16.2c-2.2-5.1-5.2-9.6-8.9-13.3c-3.7-3.7-8.1-6.7-13.3-8.9C61,9.4,55.6,8.3,50,8.3
		s-11,1.1-16.2,3.3c-5.1,2.2-9.6,5.2-13.3,8.9C16.8,24.3,13.9,28.7,11.7,33.8z"/>
</g>
</svg>
