<?xml version="1.0" encoding="utf-8"?>
<!-- Generator: Adobe Illustrator 23.0.1, SVG Export Plug-In . SVG Version: 6.00 Build 0)  -->
<svg version="1.1" id="Ebene_1" xmlns="http://www.w3.org/2000/svg" xmlns:xlink="http://www.w3.org/1999/xlink" x="0px" y="0px"
	 viewBox="0 0 100 100" style="enable-background:new 0 0 100 100;" xml:space="preserve">
<style type="text/css">
	.st0{fill:#FFFFFF;}
</style>
<path class="st0" d="M24.9,6.7C32.6,2.2,40.9,0,50,0s17.4,2.2,25.1,6.7c7.7,4.5,13.7,10.5,18.2,18.2c4.5,7.7,6.7,16,6.7,25.1
	s-2.2,17.4-6.7,25.1c-4.5,7.7-10.5,13.7-18.2,18.2S59.1,100,50,100s-17.4-2.2-25.1-6.7S11.2,82.8,6.7,75.1C2.2,67.4,0,59.1,0,50
	s2.2-17.4,6.7-25.1S17.2,11.2,24.9,6.7z"/>
</svg>
