<?xml version="1.0" encoding="utf-8"?>
<!-- Generator: Adobe Illustrator 23.0.1, SVG Export Plug-In . SVG Version: 6.00 Build 0)  -->
<svg version="1.1" id="Ebene_1" xmlns="http://www.w3.org/2000/svg" xmlns:xlink="http://www.w3.org/1999/xlink" x="0px" y="0px"
	 viewBox="0 0 100 100" style="enable-background:new 0 0 100 100;" xml:space="preserve">
<style type="text/css">
	.st0{fill:#FFFFFF;}
</style>
<path id="White_2_" class="st0" d="M94.5,0h-89C2.5,0,0,2.5,0,5.5v89c0,3,2.5,5.5,5.5,5.5h47.9V61.3h-13V46.2h13V35.1
	c0-12.9,7.9-19.9,19.4-19.9c5.5,0,10.3,0.4,11.6,0.6v13.5l-8,0c-6.3,0-7.5,3-7.5,7.3v9.6h14.9L82,61.3H69V100h25.5
	c3,0,5.5-2.5,5.5-5.5v-89C100,2.5,97.5,0,94.5,0z"/>
</svg>
