<?xml version="1.0" encoding="utf-8"?>
<!-- Generator: Adobe Illustrator 23.0.1, SVG Export Plug-In . SVG Version: 6.00 Build 0)  -->
<svg version="1.1" id="Ebene_1" xmlns="http://www.w3.org/2000/svg" xmlns:xlink="http://www.w3.org/1999/xlink" x="0px" y="0px"
	 viewBox="0 0 500 84" style="enable-background:new 0 0 500 84;" xml:space="preserve">
<style type="text/css">
	.st0{fill:#FFFFFF;}
	.st1{fill:#1A171B;}
	.st2{fill:#E1000A;}
</style>
<path class="st0" d="M347.9,30.6h-5.3V18.4h5.3v-6.6l19.8-6.9v13.5h8.9v12.1h-8.9v12.6c0,3.1,1,4.2,3.4,4.2c1.4,0,3,0,4.8-0.5V59
	c-4.5,1-9.3,1.8-13.2,1.8c-7.7,0-14.8-2.4-14.8-11.6V30.6L347.9,30.6z"/>
<polygon class="st0" points="0,0.4 45,0.4 45,15.8 22.5,15.8 22.5,22.1 43.3,22.1 43.3,37.5 22.5,37.5 22.5,44.2 45.7,44.2 
	45.7,59.6 0,59.6 0,0.4 "/>
<path class="st0" d="M49.6,18.4h19.8v41.1H49.6V18.4L49.6,18.4z M49.6,0.4h19.8V13H49.6V0.4L49.6,0.4z"/>
<path class="st0" d="M74.5,18.4h19.3l0.5,6.2h0.2c3.4-5.9,8.3-7.5,13-7.5c8.3,0,14.3,4.1,14.3,15v27.4h-19.8V34.1
	c0-3-1.2-4.8-3.6-4.8c-2.2,0-3.9,1.3-3.9,4.6v25.7H74.5V18.4L74.5,18.4z"/>
<path class="st0" d="M129.2,30.6h-5.3V18.4h5.3v-6.6L149,4.9v13.5h8.9v12.1H149v12.6c0,3.1,1,4.2,3.4,4.2c1.4,0,3,0,4.8-0.5V59
	c-4.5,1-9.3,1.8-13.2,1.8c-7.7,0-14.8-2.4-14.8-11.6V30.6L129.2,30.6z"/>
<path class="st0" d="M160.9,18.4h19.3l0.5,4.5c2.9-3.7,5.6-5,8.1-5c1.6,0,3.4,0.2,5.2,1.1V34c-2.3-0.6-4.8-1.1-8.3-1.1
	c-3.8,0-5.1,2.5-5.1,5.2v21.6h-19.8V18.4L160.9,18.4z"/>
<path class="st0" d="M220.3,29.7c0-2-1.1-3.3-3.9-3.3c-2.5,0-3.8,0.8-4,4.3h-16.4c0.7-11.1,10.8-13.4,21.2-13.4
	c15.8,0,20.9,5,20.9,14.6v27.8h-17.4l-0.5-3.9c-2.9,3.8-7.2,5.2-11.7,5.2c-8.4,0-14.3-4.4-14.3-12.5c0-10.2,8.2-14.3,23.6-14.3h2.4
	V29.7L220.3,29.7z M220.3,41.6h-2.7c-5.2,0-6.4,2.5-6.4,4.8c0,2.6,1.6,4.3,4.6,4.3c3.4,0,4.5-2.2,4.5-5.6V41.6L220.3,41.6z"/>
<path class="st0" d="M271.3,35.3c-0.2-5.2-0.8-8-4.3-8c-3.3,0-4.9,1.7-4.9,12.2c0,9.6,1.6,11.1,4.7,11.1c3.2,0,4.1-2.4,4.5-7.7h18.4
	c-0.2,11.5-7.4,17.9-23.7,17.9c-12.9,0-23.7-5.4-23.7-22c0-14.2,9.6-21.6,24.2-21.6c16,0,22.6,7,23.2,18.1H271.3L271.3,35.3z"/>
<path class="st0" d="M293.3,0.4h19.8V24h0.2c2.9-4.4,6.2-6.8,12.9-6.8c8.3,0,14.3,4.1,14.3,15v27.4h-19.8V34.1c0-3-1.2-4.8-3.6-4.8
	c-2.2,0-3.9,1.3-3.9,4.6v25.7h-19.8V0.4L293.3,0.4z"/>
<polygon class="st0" points="166.2,83.2 161.1,83.2 161.1,64.6 174.3,64.6 174.3,68.2 166.2,68.2 166.2,72.5 173.7,72.5 173.7,76.1 
	166.2,76.1 166.2,83.2 "/>
<path class="st0" d="M183.3,83.2h-5.2V64.6h8.6c3.1,0,7.2,0.9,7.2,4.8c0,2.8-2.1,4.3-4.7,4.6V74c3.3,0.1,3.9,1.8,4.3,4.6
	c0.1,1.5,0.4,3,0.9,4.5h-5.6c-0.3-1.3-0.4-2.6-0.6-3.9c-0.2-2.2-0.3-3.2-2.9-3.2h-1.9V83.2L183.3,83.2z M185.3,72.5
	c1.7,0,3.2-0.2,3.2-2.1c0-1.9-1.6-2.1-3.2-2.1h-2v4.3H185.3L185.3,72.5z"/>
<path class="st0" d="M196.7,83.2l7.3-18.6h6.3l7.3,18.6h-5.8l-1.2-3.6h-7.6l-1.2,3.6H196.7L196.7,83.2z M209.4,76l-2.4-7.7h-0.1
	l-2.5,7.7H209.4L209.4,76z"/>
<polygon class="st0" points="221,64.6 228.2,64.6 234.5,78.5 234.5,78.4 234.5,64.6 239.2,64.6 239.2,83.2 232,83.2 225.7,68.9 
	225.7,68.9 225.7,83.2 221,83.2 221,64.6 "/>
<polygon class="st0" points="255.4,64.6 261.5,64.6 255.1,72.8 262,83.2 255.6,83.2 249.5,73.3 249.4,73.3 249.4,83.2 244.3,83.2 
	244.3,64.6 249.4,64.6 249.4,72.8 249.5,72.8 255.4,64.6 "/>
<polygon class="st0" points="270.7,83.2 265.5,83.2 265.5,64.6 278.7,64.6 278.7,68.2 270.7,68.2 270.7,72.5 278.2,72.5 278.2,76.1 
	270.7,76.1 270.7,83.2 "/>
<path class="st0" d="M300.5,64.6v11.8c-0.1,5.2-4.2,7.2-8.9,7.2c-4.7,0-8.8-2-8.9-7.2V64.6h5.2v11.5c0.1,2.4,1.3,3.9,3.7,3.9
	c2.4,0,3.7-1.5,3.7-3.9V64.6H300.5L300.5,64.6z"/>
<path class="st0" d="M310.6,83.2h-5.2V64.6h8.6c3.1,0,7.2,0.9,7.2,4.8c0,2.8-2.1,4.3-4.7,4.6V74c3.3,0.1,3.9,1.8,4.3,4.6
	c0.1,1.5,0.4,3,0.9,4.5h-5.6c-0.3-1.3-0.4-2.6-0.6-3.9c-0.2-2.2-0.3-3.2-2.9-3.2h-1.9V83.2L310.6,83.2z M312.6,72.5
	c1.6,0,3.2-0.2,3.2-2.1c0-1.9-1.6-2.1-3.2-2.1h-2v4.3H312.6L312.6,72.5z"/>
<polygon class="st0" points="329.3,68.2 323.6,68.2 323.6,64.6 340.3,64.6 340.3,68.2 334.5,68.2 334.5,83.2 329.3,83.2 329.3,68.2 
	"/>
<path class="st1" d="M435.4,5.1"/>
<g>
	<path class="st2" d="M395.5,18h-14.1V0.4h53.2V18h-14.2v41.9h-24.9V18z"/>
	<path class="st2" d="M435.5,0.4H461l7.4,40.4h-0.1l7.6-40.4H500l-16.7,59.5h-31.1L435.5,0.4z"/>
</g>
</svg>
