<?xml version="1.0" encoding="utf-8"?>
<!-- Generator: Adobe Illustrator 23.0.1, SVG Export Plug-In . SVG Version: 6.00 Build 0)  -->
<svg version="1.1" id="Ebene_1" xmlns="http://www.w3.org/2000/svg" xmlns:xlink="http://www.w3.org/1999/xlink" x="0px" y="0px"
	 viewBox="0 0 93 100" style="enable-background:new 0 0 93 100;" xml:space="preserve">
<style type="text/css">
	.st0{fill:#FFFFFF;}
	.st1{opacity:0.3;}
</style>
<g>
	<g>
		<path class="st0" d="M0.2,8c0-0.8,0.3-1.5,0.9-2.1l4.6-4.6c0.6-0.6,1.3-0.9,2.1-0.9S9.4,0.6,10,1.2l36.5,36.5L83,1.2
			c0.6-0.6,1.3-0.9,2.1-0.9c0.8,0,1.5,0.3,2.1,0.9l4.6,4.6c0.6,0.6,0.9,1.3,0.9,2.1s-0.3,1.5-0.9,2.1L48.6,53.4
			c-0.6,0.6-1.3,0.9-2.1,0.9c-0.8,0-1.5-0.3-2.1-0.9L1.1,10.2C0.5,9.5,0.2,8.8,0.2,8z"/>
	</g>
	<polygon class="st1" points="92.8,15.8 84.4,7.4 46.5,45.3 8.6,7.4 0.2,15.8 38.1,53.7 0.2,91.6 8.6,100 46.5,62.1 84.4,100 
		92.8,91.6 54.9,53.7 	"/>
	<polygon class="st0" points="92.8,8.4 84.4,0 46.5,37.9 8.6,0 0.2,8.4 38.1,46.3 0.2,84.2 8.6,92.6 46.5,54.7 84.4,92.6 92.8,84.2 
		54.9,46.3 	"/>
</g>
</svg>
