<?xml version="1.0" encoding="utf-8"?>
<!-- Generator: Adobe Illustrator 23.0.1, SVG Export Plug-In . SVG Version: 6.00 Build 0)  -->
<svg version="1.1" id="Ebene_1" xmlns="http://www.w3.org/2000/svg" xmlns:xlink="http://www.w3.org/1999/xlink" x="0px" y="0px"
	 viewBox="0 0 130 100" style="enable-background:new 0 0 130 100;" xml:space="preserve">
<style type="text/css">
	.st0{fill:#E1000A;}
</style>
<path class="st0" d="M11.5,0C9.6,0,8,0.7,6.6,2L2,6.6C0.7,8,0,9.6,0,11.4c0,1.8,0.7,3.4,2,4.7L35.9,50L2.1,83.9
	c-1.3,1.3-2,2.9-2,4.7c0,1.8,0.7,3.4,2,4.7l4.6,4.6c1.2,1.3,2.9,2.1,4.8,2.1c1.8,0,3.4-0.7,4.7-2l43.2-43.2c1.3-1.3,2-2.9,2-4.7
	s-0.7-3.4-2-4.7L16.2,2C14.9,0.7,13.3,0,11.5,0L11.5,0z"/>
<path class="st0" d="M80,0c-1.9,0-3.5,0.7-4.8,2l-4.6,4.6c-1.3,1.3-2,2.9-2,4.7c0,1.8,0.7,3.4,2,4.7L104.4,50L70.6,83.9
	c-1.3,1.3-2,2.9-2,4.7c0,1.8,0.7,3.4,2,4.7l4.6,4.6c1.2,1.3,2.9,2.1,4.8,2.1c1.8,0,3.4-0.7,4.7-2L128,54.7c1.3-1.3,2-2.9,2-4.7
	s-0.7-3.4-2-4.7L84.7,2C83.4,0.7,81.8,0,80,0L80,0z"/>
</svg>
