<?xml version="1.0" ?><svg id="Layer_1" style="enable-background:new 0 0 96 96;" version="1.1" viewBox="0 0 96 96" xml:space="preserve" xmlns="http://www.w3.org/2000/svg" xmlns:xlink="http://www.w3.org/1999/xlink"><style type="text/css">
	.st0{fill-rule:evenodd;clip-rule:evenodd;fill:#D2AB67;}
	.st1{fill-rule:evenodd;clip-rule:evenodd;fill:#E93F2E;}
	.st2{fill-rule:evenodd;clip-rule:evenodd;fill:#A25641;}
	.st3{fill-rule:evenodd;clip-rule:evenodd;fill:#00AEEF;}
	.st4{fill-rule:evenodd;clip-rule:evenodd;fill:#414042;}
</style><g id="XMLID_2_"><polygon class="st0" id="XMLID_12_" points="14.1,95.9 82.1,95.9 82.1,33.9 48.2,5.9 14.1,33.9  "/><path class="st1" d="M48.1,9.6L6.9,50.2c-1.6,1.5-4.1,1.5-5.7,0c-1.5-1.6-1.5-4.1,0-5.7l44-43.3   c0.1-0.1,0.2-0.1,0.2-0.2C46.2,0.3,47.1,0,48.1,0s1.8,0.3,2.6,0.9c0.1,0.1,0.2,0.1,0.2,0.2l44,43.3c1.6,1.5,1.6,4.1,0,5.7   c-1.5,1.6-4.1,1.6-5.7,0L48.1,9.6z" id="XMLID_11_"/><rect class="st2" height="40" id="XMLID_10_" width="22" x="22.1" y="55.9"/><rect class="st3" height="16" id="XMLID_9_" width="16" x="40.1" y="27.9"/><path class="st3" d="M55.6,55.9h8v8h-8V55.9L55.6,55.9z M55.6,67.9h8v8h-8V67.9L55.6,67.9z M67.6,55.9h8v8h-8V55.9   L67.6,55.9z M67.6,67.9h8v8h-8V67.9z" id="XMLID_4_"/><path class="st4" d="M40.1,79.9c1.1,0,2-0.9,2-2c0-1.1-0.9-2-2-2c-1.1,0-2,0.9-2,2C38.1,79,38.9,79.9,40.1,79.9z" id="XMLID_3_"/></g></svg>