<?xml version="1.0" encoding="utf-8"?>
<!-- Generator: Adobe Illustrator 16.0.0, SVG Export Plug-In . SVG Version: 6.00 Build 0)  -->
<!DOCTYPE svg PUBLIC "-//W3C//DTD SVG 1.1//EN" "http://www.w3.org/Graphics/SVG/1.1/DTD/svg11.dtd">
<svg version="1.1" id="Layer_1" xmlns="http://www.w3.org/2000/svg" xmlns:xlink="http://www.w3.org/1999/xlink" x="0px" y="0px"
	 width="463.855px" height="386px" viewBox="0 0 463.855 386" enable-background="new 0 0 463.855 386" xml:space="preserve">
<title>Group 5</title>
<g>
	<path fill="#ABDEFF" d="M237.07,385.246c132.825,0,207.024-52.145,226.786-95.48C458.652,187.328,368.2,0,235.375,0
		C102.551,0,13.578,156.566,0,289.766C23.785,343.965,104.246,385.246,237.07,385.246z"/>
	<path fill="#15C66C" d="M232.62,353.744c110.731,0,177.077-31.73,199.808-75.244c0-29.715-89.767-65.5-200.5-65.5
		c-110.733,0-200.5,32.379-200.5,65.5C51.482,320.844,121.886,353.744,232.62,353.744L232.62,353.744z"/>
	<g transform="translate(98.428 28)">
		<path fill="#A8A382" d="M46,165l48-18v105l-48,18V165z M218,118l48-12v141l-48,21V118z"/>
		<path fill="#F8F3C9" d="M218,118l48-12l-47.459-12l-43,11L218,118z"/>
		<path fill="#CAC59D" d="M218,118l-42-13v148l42,15V118z M46,165L0,122v124l46,24V165z"/>
		<path fill="#F8F3C9" d="M46,165l48-18l-47-44.07l-47,19L46,165z"/>
		<path fill="#5D98B0" d="M132,76l56.924-14.406L202,276l-70,25V76z"/>
		<path fill="#87C6DE" d="M132,76L75.924,61.594L63,276l69,25V76z"/>
		<path opacity="0.9" fill="#DEF4FF" enable-background="new    " d="M132,76L75.924,61.594L132,46.152l56.86,15.442L132,76z"/>
		<path fill="#5D98B0" d="M118,41L118,41c1.657,0,3,1.343,3,3v21c0,1.657-1.343,3-3,3l0,0c-1.657,0-3-1.343-3-3V44
			C115,42.343,116.343,41,118,41z"/>
		<path fill="#5D98B0" d="M118,12L118,12c0.552,0,1,0.448,1,1v45c0,0.552-0.448,1-1,1l0,0c-0.553,0-1-0.448-1-1V13
			C117,12.448,117.447,12,118,12z"/>
		<path fill="#5D98B0" d="M146,29L146,29c1.657,0,3,1.343,3,3v21c0,1.657-1.343,3-3,3l0,0c-1.657,0-3-1.343-3-3V32
			C143,30.343,144.343,29,146,29z"/>
		<path fill="#5D98B0" d="M146,0L146,0c0.552,0,1,0.448,1,1v45c0,0.552-0.448,1-1,1l0,0c-0.553,0-1-0.448-1-1V1
			C145,0.448,145.447,0,146,0z"/>
	</g>
	<path display="none" d="M519,139.492v150.533h28.973v-65.364h63.863v65.368h28.94v-150.51h-29.022v59.226h-63.857v-59.253H519z"/>
	<g transform="translate(519 132.348)" display="none">
		<g transform="translate(170.94 49.617)" display="inline">
			<defs>
				<filter id="Adobe_OpacityMaskFilter" filterUnits="userSpaceOnUse" x="0.15" y="0.457" width="108.617" height="147.458">
					<feColorMatrix  type="matrix" values="1 0 0 0 0  0 1 0 0 0  0 0 1 0 0  0 0 0 1 0"/>
				</filter>
			</defs>
			<mask maskUnits="userSpaceOnUse" x="0.15" y="0.457" width="108.617" height="147.458" id="b">
				<g filter="url(#Adobe_OpacityMaskFilter)">
					<path id="a" fill="#FFFFFF" d="M0.149,147.915h108.617V0.458H0.15L0.149,147.915z"/>
				</g>
			</mask>
			<path mask="url(#b)" d="M31.555,38.49c0.077,0.732,0.13,2.18,0.395,3.587c0.964,5.146,3.37,9.39,7.904,12.25
				c3.978,2.509,8.362,3.138,12.91,2.532c5.367-0.713,9.68-3.258,12.545-7.971C68.51,43.62,69.059,37.92,67.854,32
				c-0.889-4.369-3.021-8.054-6.54-10.863c-4.066-3.248-8.789-4.231-13.834-3.686c-4.814,0.521-8.794,2.689-11.73,6.63
				C32.714,28.153,31.619,32.805,31.555,38.49 M53.257,132.367c3.332,0.084,8.331-0.318,13.234-1.525
				c4.693-1.156,9.141-2.82,12.538-6.52c4.096-4.459,3.016-10.74-2.359-13.503c-4.084-2.101-8.528-2.931-13.002-3.552
				c-9.643-1.336-19.368-2.096-28.902-4.185c-0.378-0.083-0.914-0.06-1.202,0.15c-3.941,2.897-7.619,6.026-9.699,10.646
				c-1.87,4.153-1.25,8.612,1.913,11.764c1.926,1.918,4.311,3.154,6.873,4.048C38.774,131.823,45.126,132.316,53.257,132.367
				 M27.11,68.631c-3.927-1.996-7.387-4.266-10.332-7.253c-5.454-5.532-8.521-12.17-9.237-19.903
				c-0.725-7.819,0.628-15.219,4.636-22.02c4.313-7.316,10.64-12.313,18.479-15.404C41.417-0.19,52.429-0.532,63.574,2.262
				c5.566,1.382,10.771,3.944,15.261,7.512c0.545,0.43,0.962,0.463,1.564,0.247c7.853-2.81,15.71-5.602,23.567-8.397
				c0.363-0.13,0.731-0.249,1.303-0.442l3.498,20.927l-19.07,1.311c0.485,1.43,1.012,2.711,1.355,4.037
				c2.865,11.07,1.38,21.409-5.587,30.643c-4.253,5.641-9.963,9.447-16.536,11.965c-8.477,3.248-17.223,4.009-26.187,2.859
				c-0.54-0.07-1.268,0.127-1.677,0.475c-1.003,0.847-2.001,1.76-2.763,2.818c-1.67,2.322-0.911,4.817,1.88,5.605
				c3.584,1.013,7.234,1.917,10.916,2.441c6.747,0.961,13.548,1.53,20.308,2.412c6.311,0.822,12.518,2.174,18.437,4.582
				c4.853,1.974,9.271,4.625,12.32,9.033c3.498,5.059,4.107,10.747,3.19,16.659c-1.5,9.678-7.253,16.399-15.296,21.387
				c-7.764,4.813-16.364,7.265-25.345,8.511c-12.826,1.777-25.58,1.359-38.229-1.432c-5.922-1.307-11.604-3.306-16.64-6.794
				c-4.726-3.272-8.25-7.425-9.332-13.276c-1.245-6.735,0.768-12.521,5.168-17.592c3.989-4.597,8.996-7.883,14.118-10.85
				c-1.238-1.424-2.654-2.74-3.694-4.307c-3.216-4.84-2.922-10.224,0.645-15.105c2.455-3.361,5.71-5.82,9.149-8.066
				C26.249,69.198,26.597,68.969,27.11,68.631"/>
		</g>
		<path display="inline" d="M290.515,4.253l26.065-4.132v65.467c0.821-0.711,1.414-1.215,2-1.729
			c4.775-4.171,9.865-7.872,15.744-10.359c9.731-4.116,19.627-4.737,29.557-0.885c7.325,2.842,11.898,8.393,14.415,15.73
			c1.428,4.162,2.019,8.47,2.022,12.846c0.023,24.965,0.012,49.93,0.012,74.895v1.59h-26.19v-1.461
			c0-22.508,0.005-45.015-0.005-67.521c-0.001-3.018-0.389-5.973-1.705-8.744c-1.848-3.892-5.004-5.959-9.191-6.507
			c-5.764-0.754-10.917,1.017-15.747,3.979c-3.88,2.381-7.245,5.394-10.369,8.677c-0.339,0.356-0.467,1.042-0.468,1.575
			c-0.023,17.24-0.02,34.481-0.02,51.723v18.296h-26.12V4.253z"/>
		<g transform="translate(600.866 49.617)" display="inline">
			<defs>
				<filter id="Adobe_OpacityMaskFilter_1_" filterUnits="userSpaceOnUse" x="0.218" y="0.404" width="93.641" height="109.928">
					<feColorMatrix  type="matrix" values="1 0 0 0 0  0 1 0 0 0  0 0 1 0 0  0 0 0 1 0"/>
				</filter>
			</defs>
			<mask maskUnits="userSpaceOnUse" x="0.218" y="0.404" width="93.641" height="109.928" id="d">
				<g filter="url(#Adobe_OpacityMaskFilter_1_)">
					<path id="c" fill="#FFFFFF" d="M93.859,110.332V0.405H0.219v109.927H93.859z"/>
				</g>
			</mask>
			<path mask="url(#d)" d="M26.643,44.096h41.773c0-0.39,0.036-0.699-0.005-0.998c-0.545-3.97-1.275-7.896-2.78-11.635
				c-2.963-7.363-7.964-12.132-16.236-12.777c-5.693-0.444-10.662,1.209-14.614,5.324C29.455,29.551,27.62,36.58,26.643,44.096
				 M93.708,60.573h-67.54c0.218,1.823,0.362,3.513,0.628,5.185c0.894,5.605,2.67,10.859,6.314,15.34
				c4.017,4.938,9.341,7.562,15.517,8.459c8.63,1.254,16.985-0.043,25.077-3.178c5.84-2.263,11.198-5.414,16.339-8.96
				c0.185-0.127,0.383-0.235,0.723-0.442l0.863,5.727c0.689,4.575,1.37,9.153,2.084,13.725c0.116,0.746-0.083,1.188-0.733,1.619
				c-9.345,6.228-19.548,10.16-30.705,11.578c-9.649,1.227-19.211,0.989-28.61-1.764c-10.567-3.094-19.016-9.083-24.96-18.426
				c-3.42-5.373-5.601-11.248-6.847-17.476c-2.174-10.87-2.231-21.747,0.099-32.594C3.65,31.48,6.759,24.2,11.747,17.791
				c4.355-5.598,9.688-9.987,16.172-12.91C40.024-0.58,52.43-0.924,64.926,3.188c9.285,3.054,16.228,9.142,21.15,17.57
				c4.396,7.531,6.71,15.723,7.426,24.336c0.401,4.84,0.263,9.723,0.356,14.586C93.864,59.94,93.773,60.202,93.708,60.573"/>
		</g>
		<path display="inline" d="M512.375,127.895c3.396,1.807,6.675,3.735,10.104,5.344c9.65,4.527,19.744,7.21,30.507,6.771
			c3.446-0.143,6.779-0.801,9.915-2.368c7.058-3.527,6.715-13.294,1.147-16.865c-3.229-2.069-6.77-3.328-10.391-4.394
			c-6.015-1.77-12.103-3.299-18.078-5.185c-5.195-1.64-10.167-3.834-14.621-7.087c-5.651-4.128-8.917-9.645-9.907-16.533
			c-0.74-5.145-0.668-10.244,0.887-15.268c2.216-7.158,6.736-12.432,13.133-16.184c5.855-3.435,12.26-5.07,18.975-5.534
			c13.29-0.916,26.197,0.916,38.676,5.62c1.162,0.439,2.284,0.984,3.565,1.541l-3.468,21.756c-0.694-0.34-1.309-0.625-1.907-0.938
			c-7.405-3.874-15.189-6.646-23.465-7.924c-4.99-0.771-10.011-1.144-14.968,0.157c-3.33,0.873-6.133,2.523-7.263,6.078
			c-1.242,3.902,0.152,7.572,3.66,9.797c3.565,2.259,7.548,3.479,11.543,4.658c5.64,1.666,11.338,3.149,16.928,4.967
			c5.257,1.709,10.298,3.951,14.79,7.279c5.844,4.33,9.026,10.162,9.897,17.31c0.667,5.467,0.521,10.892-1.076,16.21
			c-2.32,7.72-7.231,13.281-14.29,17.038c-6.3,3.353-13.118,4.747-20.153,5.317c-12.729,1.029-25.032-1.019-36.989-5.295
			c-3.214-1.15-6.289-2.687-9.436-4.025c-0.898-0.383-1.245-0.889-1.064-1.954c1.109-6.606,2.138-13.226,3.198-19.839
			C512.253,128.166,512.341,127.992,512.375,127.895 M460.232,76.075c-4.783,0.41-9.313,1.272-13.687,2.878
			c-9.397,3.45-17.119,9.118-22.896,17.332c-0.426,0.629-0.66,1.368-0.676,2.127c-0.036,19.229-0.027,38.457-0.027,57.687v1.583
			h-26.108V52.366h22.169l3.279,21.073c7.755-13.203,17.945-22.309,33.804-23.329L460.232,76.075"/>
		<defs>
			<filter id="Adobe_OpacityMaskFilter_2_" filterUnits="userSpaceOnUse" x="135.251" y="4.485" width="364.925" height="153.204">
				<feColorMatrix  type="matrix" values="1 0 0 0 0  0 1 0 0 0  0 0 1 0 0  0 0 0 1 0"/>
			</filter>
		</defs>
		<mask maskUnits="userSpaceOnUse" x="135.251" y="4.485" width="364.925" height="153.204" id="f" display="inline">
			<g filter="url(#Adobe_OpacityMaskFilter_2_)">
				<path id="e" fill="#FFFFFF" d="M0,197.532h694.725V0.12H0V197.532z"/>
			</g>
		</mask>
		<path display="inline" mask="url(#f)" d="M137.773,157.689h25.983V52.344h-25.983V157.689z M471.417,157.685h25.978V52.348
			h-25.978V157.685z M485.28,34.63c-6.514-0.109-11.618-2.327-14.65-7.968c-4.856-9.034,0.792-20.2,10.956-21.91
			c7.43-1.25,14.206,1.95,17.152,8.503c3.856,8.578-0.193,18.619-10.408,20.944C487.237,34.449,486.102,34.517,485.28,34.63
			 M166.457,19.624c0.197,8.123-6.417,14.781-14.86,14.959c-9.284,0.195-16.256-5.96-16.345-14.555
			c-0.092-8.841,6.332-15.135,14.66-15.48C159.482,4.153,166.234,10.444,166.457,19.624"/>
	</g>
</g>
</svg>
