<svg xmlns="http://www.w3.org/2000/svg" width="100" height="100" viewBox="0 0 100 100"><path fill="#A67D4B" d="M12.502 0h74.996C94.402 0 100 5.598 100 12.502v74.996C100 94.402 94.402 100 87.498 100H12.502C5.598 100 0 94.402 0 87.498V12.502C0 5.598 5.598 0 12.502 0z"/><path fill="#FFF" d="M79.465 34.286v3.928h-3.93c0 1.074-.95 1.965-2.118 1.965H26.583c-1.168 0-2.119-.891-2.119-1.965h-3.929v-3.928L50 22.5l29.465 11.786z"/><path fill="#FFF" d="M79.465 73.571V77.5H20.536v-3.929c0-1.074.951-1.964 2.119-1.964h54.691c1.168 0 2.119.89 2.119 1.964z"/><path fill="#FFF" d="M36.25 42.143v23.571h3.929V42.143h7.857v23.571h3.929V42.143h7.856v23.571h3.929V42.143h7.857v23.571h1.81c1.168 0 2.118.891 2.118 1.965v1.964H24.464v-1.964c0-1.074.951-1.965 2.119-1.965h1.81V42.143h7.857z"/></svg>
