<svg xmlns="http://www.w3.org/2000/svg" width="100" height="100" viewBox="0 0 100 100"><path fill="#5F8C4A" d="M12.502 0h74.996C94.402 0 100 5.598 100 12.502v74.996C100 94.402 94.402 100 87.498 100H12.502C5.598 100 0 94.402 0 87.498V12.502C0 5.598 5.598 0 12.502 0z"/><path fill="#FFF" d="M71.607 75.536a1.98 1.98 0 0 1-1.965 1.964H30.357a1.98 1.98 0 0 1-1.965-1.964V24.464a1.98 1.98 0 0 1 1.965-1.964h39.285a1.98 1.98 0 0 1 1.965 1.964v51.072zm-3.928-1.965V26.429H32.321v47.143h11.786v-6.873c0-.523.461-.984.981-.984h9.822c.521 0 .981.461.981.984v6.873h11.788zm-27.5-40.269c0 .523-.461.984-.982.984h-1.964c-.521 0-.982-.461-.982-.984v-1.96c0-.523.461-.984.982-.984h1.964c.521 0 .982.461.982.984v1.96zm0 7.856c0 .523-.461.984-.982.984h-1.964c-.521 0-.982-.461-.982-.984v-1.96c0-.523.461-.984.982-.984h1.964c.521 0 .982.461.982.984v1.96zm0 7.858c0 .523-.461.984-.982.984h-1.964c-.521 0-.982-.461-.982-.984v-1.96c0-.523.461-.984.982-.984h1.964c.521 0 .982.461.982.984v1.96zm0 7.857c0 .523-.461.984-.982.984h-1.964c-.521 0-.982-.461-.982-.984v-1.96c0-.523.461-.984.982-.984h1.964c.521 0 .982.461.982.984v1.96zm0 7.856c0 .523-.461.984-.982.984h-1.964c-.521 0-.982-.461-.982-.984V62.77c0-.524.461-.984.982-.984h1.964c.521 0 .982.46.982.984v1.959zm7.857-31.427c0 .523-.461.984-.982.984h-1.965c-.521 0-.981-.461-.981-.984v-1.96c0-.523.461-.984.981-.984h1.965c.521 0 .982.461.982.984v1.96zm0 7.856c0 .523-.461.984-.982.984h-1.965c-.521 0-.981-.461-.981-.984v-1.96c0-.523.461-.984.981-.984h1.965c.521 0 .982.461.982.984v1.96zm0 7.858c0 .523-.461.984-.982.984h-1.965c-.521 0-.981-.461-.981-.984v-1.96c0-.523.461-.984.981-.984h1.965c.521 0 .982.461.982.984v1.96zm0 7.857c0 .523-.461.984-.982.984h-1.965c-.521 0-.981-.461-.981-.984v-1.96c0-.523.461-.984.981-.984h1.965c.521 0 .982.461.982.984v1.96zm7.857-23.571c0 .523-.461.984-.981.984h-1.965c-.521 0-.982-.461-.982-.984v-1.96c0-.523.461-.984.982-.984h1.965c.521 0 .981.461.981.984v1.96zm0 7.856c0 .523-.461.984-.981.984h-1.965c-.521 0-.982-.461-.982-.984v-1.96c0-.523.461-.984.982-.984h1.965c.521 0 .981.461.981.984v1.96zm0 7.858c0 .523-.461.984-.981.984h-1.965c-.521 0-.982-.461-.982-.984v-1.96c0-.523.461-.984.982-.984h1.965c.521 0 .981.461.981.984v1.96zm0 7.857c0 .523-.461.984-.981.984h-1.965c-.521 0-.982-.461-.982-.984v-1.96c0-.523.461-.984.982-.984h1.965c.521 0 .981.461.981.984v1.96zm7.857-23.571c0 .523-.461.984-.982.984h-1.964c-.521 0-.982-.461-.982-.984v-1.96c0-.523.461-.984.982-.984h1.964c.521 0 .982.461.982.984v1.96zm0 7.856c0 .523-.461.984-.982.984h-1.964c-.521 0-.982-.461-.982-.984v-1.96c0-.523.461-.984.982-.984h1.964c.521 0 .982.461.982.984v1.96zm0 7.858c0 .523-.461.984-.982.984h-1.964c-.521 0-.982-.461-.982-.984v-1.96c0-.523.461-.984.982-.984h1.964c.521 0 .982.461.982.984v1.96zm0 7.857c0 .523-.461.984-.982.984h-1.964c-.521 0-.982-.461-.982-.984v-1.96c0-.523.461-.984.982-.984h1.964c.521 0 .982.461.982.984v1.96zm0 7.856c0 .523-.461.984-.982.984h-1.964c-.521 0-.982-.461-.982-.984V62.77c0-.524.461-.984.982-.984h1.964c.521 0 .982.46.982.984v1.959z"/></svg>
