<svg xmlns="http://www.w3.org/2000/svg" width="100" height="100" viewBox="0 0 100 100"><path fill="#A63C3C" d="M12.502 0h74.996C94.402 0 100 5.598 100 12.502v74.996C100 94.402 94.402 100 87.498 100H12.502C5.598 100 0 94.402 0 87.498V12.502C0 5.598 5.598 0 12.502 0z"/><path fill="#FFF" d="M81.225 45.054C72.117 37.048 62.3 32.593 50 32.593s-22.117 4.455-31.225 12.461c-.239.195-.552.351-.868.351-.908 0-6.624-5.673-6.624-6.621 0-.356.158-.673.394-.908C21.652 27.978 36.044 22.5 50 22.5c13.955 0 28.348 5.478 38.322 15.375.236.235.395.552.395.908 0 .948-5.717 6.621-6.625 6.621-.316 0-.629-.155-.867-.35z"/><path fill="#FFF" d="M70.502 55.773C63.996 50.728 58.516 47.732 50 47.732c-11.907 0-20.974 8.357-21.408 8.357-.908 0-6.584-5.679-6.584-6.621 0-.316.158-.633.394-.868C29.46 41.542 40.105 37.64 50 37.64s20.539 3.902 27.598 10.961c.236.235.394.552.394.868 0 .942-5.676 6.621-6.584 6.621-.314 0-.67-.155-.906-.317z"/><path fill="#FFF" d="M50 62.872c-5.834 0-10.053 3.943-10.645 3.943-.945 0-6.665-5.68-6.665-6.622 0-.356.158-.672.397-.908 4.219-4.179 11.079-6.506 16.913-6.506s12.693 2.327 16.912 6.506c.238.236.396.552.396.908 0 .942-5.719 6.622-6.664 6.622-.551 0-4.847-3.943-10.644-3.943z"/><path fill="#FFF" d="M43.456 70.913c0-1.932 5.046-2.994 6.544-2.994 1.497 0 6.543 1.063 6.543 2.994 0 1.069-5.518 6.587-6.543 6.587-1.026 0-6.544-5.518-6.544-6.587z"/></svg>
