<svg xmlns="http://www.w3.org/2000/svg" width="100" height="100" viewBox="0 0 100 100"><path fill="#5A86BF" d="M12.502 0h74.996C94.402 0 100 5.598 100 12.502v74.996C100 94.402 94.402 100 87.498 100H12.502C5.598 100 0 94.402 0 87.498V12.502C0 5.598 5.598 0 12.502 0z"/><path fill="#FFF" d="M30.603 53.93h-4.114c-3.067 0-5.953-1.473-5.953-4.883 0-2.483-.091-10.832 3.806-10.832.645 0 3.837 2.608 7.98 2.608 1.412 0 2.763-.246 4.083-.707a14.62 14.62 0 0 0-.155 2.027c0 2.792.891 5.557 2.486 7.857-3.193.094-6.077 1.473-8.133 3.93z"/><path fill="#FFF" d="M32.321 38.215c-4.327 0-7.856-3.531-7.856-7.858s3.53-7.857 7.856-7.857c4.327 0 7.857 3.53 7.857 7.857s-3.53 7.858-7.857 7.858z"/><path fill="#FFF" d="M63.411 77.5H36.587c-4.911 0-8.194-2.977-8.194-7.951 0-6.936 1.626-17.584 10.62-17.584 1.043 0 4.848 4.264 10.987 4.264s9.943-4.264 10.986-4.264c8.994 0 10.619 10.648 10.619 17.584 0 4.974-3.283 7.951-8.194 7.951z"/><path fill="#FFF" d="M50 53.93c-6.505 0-11.785-5.281-11.785-11.787S43.495 30.357 50 30.357c6.506 0 11.785 5.28 11.785 11.786 0 6.505-5.279 11.787-11.785 11.787z"/><path fill="#FFF" d="M67.68 38.215c-4.328 0-7.857-3.531-7.857-7.858S63.352 22.5 67.68 22.5c4.325 0 7.855 3.53 7.855 7.857s-3.53 7.858-7.855 7.858z"/><path fill="#FFF" d="M73.512 53.93h-4.113c-2.058-2.457-4.94-3.835-8.133-3.93 1.594-2.3 2.484-5.065 2.484-7.857 0-.676-.061-1.351-.154-2.027 1.319.461 2.672.707 4.084.707 4.143 0 7.336-2.608 7.979-2.608 3.896 0 3.806 8.349 3.806 10.832 0 3.41-2.887 4.883-5.953 4.883z"/></svg>
