<svg xmlns="http://www.w3.org/2000/svg" width="24" height="24" viewBox="0 0 24 24">
    <g fill="none" fill-rule="evenodd">
        <path fill="#F1F1F1" d="M11.714.566C5.244.566 0 5.81 0 12.279c0 6.469 5.244 11.715 11.714 11.715 6.47 0 11.714-5.246 11.714-11.715 0-6.47-5.244-11.713-11.714-11.713"/>
        <path fill="#9B9B9B" d="M12.299 18.212V12.8h1.815l.274-2.11h-2.09V9.344c0-.61.171-1.027 1.046-1.027h1.117V6.43a14.793 14.793 0 0 0-1.628-.083c-1.61 0-2.713.982-2.713 2.788v1.555H8.3v2.11h1.82v5.412H12.3z"/>
    </g>
</svg>
