<svg xmlns="http://www.w3.org/2000/svg" width="25" height="24" viewBox="0 0 25 24">
    <g fill="none" fill-rule="evenodd">
        <path fill="#FFFFFF" d="M12.413.566C5.943.566.699 5.81.699 12.279c0 6.469 5.244 11.715 11.714 11.715 6.47 0 11.714-5.246 11.714-11.715 0-6.47-5.244-11.713-11.714-11.713"/>
        <path fill="#9B9B9B" d="M9.967 6.383c-.631.028-1.063.128-1.44.274-.39.153-.72.355-1.05.686-.33.33-.534.66-.685 1.05-.145.377-.247.808-.275 1.44-.031.634-.037.835-.037 2.446 0 1.611.006 1.815.037 2.446.028.631.13 1.062.275 1.44.151.391.355.722.684 1.05.33.331.661.534 1.051.685.377.146.809.246 1.44.275.633.03.834.037 2.447.037 1.611 0 1.812-.006 2.444-.037.633-.029 1.064-.129 1.44-.275.39-.151.722-.354 1.052-.685.33-.328.531-.659.685-1.05.145-.378.246-.809.275-1.44.028-.632.035-.835.035-2.446 0-1.611-.007-1.812-.035-2.447-.029-.63-.13-1.062-.275-1.44a2.93 2.93 0 0 0-.685-1.05 2.916 2.916 0 0 0-1.051-.685c-.377-.146-.808-.246-1.44-.274-.633-.028-.834-.037-2.445-.037-1.613 0-1.814.008-2.447.037m.049 10.725c-.578-.026-.893-.122-1.102-.204a1.853 1.853 0 0 1-.682-.443 1.856 1.856 0 0 1-.444-.682c-.08-.209-.177-.524-.205-1.102-.027-.626-.034-.814-.034-2.398s.007-1.772.034-2.398c.028-.577.124-.892.205-1.101.109-.276.237-.475.444-.682a1.84 1.84 0 0 1 .682-.444c.209-.081.524-.178 1.102-.204.625-.029.814-.035 2.398-.035 1.583 0 1.772.006 2.396.035.58.026.891.123 1.102.204.277.107.475.236.681.444.208.207.338.406.445.682.082.21.179.524.204 1.101.03.626.035.814.035 2.398s-.005 1.771-.035 2.398c-.025.578-.123.893-.204 1.102a1.829 1.829 0 0 1-.445.682 1.829 1.829 0 0 1-.681.443c-.21.082-.523.178-1.102.204-.624.029-.813.035-2.396.035-1.584 0-1.773-.006-2.398-.035m4.85-7.995a.712.712 0 1 0 .713-.713.714.714 0 0 0-.712.713m-5.5 3.166a3.046 3.046 0 1 0 6.093 0 3.046 3.046 0 0 0-6.093 0m1.069 0a1.978 1.978 0 1 1 3.956.001 1.978 1.978 0 0 1-3.956-.001"/>
    </g>
</svg>
