<svg xmlns="http://www.w3.org/2000/svg" width="24" height="24" viewBox="0 0 24 24">
    <g fill="none" fill-rule="evenodd">
        <path fill="#FFFFFF" d="M12.063.566C5.593.566.35 5.81.35 12.279c0 6.469 5.244 11.715 11.714 11.715 6.47 0 11.715-5.246 11.715-11.715 0-6.47-5.244-11.713-11.715-11.713"/>
        <path fill="#9B9B9B" d="M14.186 7.648v-.002h.59l.217.044a2.402 2.402 0 0 1 .735.269c.11.06.21.121.299.186.088.063.168.127.24.197.068.072.176.09.325.056.148-.034.306-.082.478-.143.17-.06.34-.13.507-.206.166-.076.268-.123.305-.144l.055-.034.003-.003.012-.006.01-.004.012-.007.011-.005.003-.005.003-.002.004-.003.002-.002.012-.005.01-.002v.019l-.004.016-.006.017-.006.017-.006.012-.006.012-.006.016-.01.046c-.004.019-.041.095-.109.228a2.863 2.863 0 0 1-.53.712 3.362 3.362 0 0 0-.164.148.435.435 0 0 1-.096.08l-.058.037-.011.006-.012.006-.002.004-.003.002-.002.003-.003.002-.012.006-.012.006v.004l-.004.002-.005.002-.003.004-.002.002-.002.003-.005.002-.001.004h.056l.32-.07c.213-.043.415-.1.61-.163l.305-.102.035-.013.017-.005.011-.007.011-.005.012-.006.012-.004.023-.005.022-.001v.021l-.006.002-.006.005v.003l-.006.002-.002.004-.002.003-.004.004-.004.002-.002.002-.002.003-.003.002-.003.003-.005.012-.006.011-.004.003c-.002.001-.05.066-.144.193a1.624 1.624 0 0 1-.154.194c-.008.002-.018.014-.032.033a3.19 3.19 0 0 1-.241.254 5.105 5.105 0 0 1-.434.394.542.542 0 0 0-.217.43c-.003.167-.01.357-.026.57a7.767 7.767 0 0 1-.085.688 8.298 8.298 0 0 1-.512 1.747c-.126.296-.257.561-.393.796a8.19 8.19 0 0 1-.376.597 6.646 6.646 0 0 1-.793.95l-.295.294c-.018.017-.093.079-.223.186-.132.11-.271.218-.422.327-.15.106-.286.198-.41.27-.127.072-.278.153-.453.246-.178.093-.368.18-.573.26a8.752 8.752 0 0 1-.648.22 5.579 5.579 0 0 1-.66.16 9.68 9.68 0 0 1-.722.097l-.404.04v.006h-.74v-.006l-.097-.005-.16-.011-.471-.064a6.407 6.407 0 0 1-.643-.114 8.105 8.105 0 0 1-.693-.215 6.842 6.842 0 0 1-.79-.322c-.217-.11-.354-.176-.41-.206a2.33 2.33 0 0 1-.183-.104l-.103-.062-.002-.004-.004-.002-.003-.003-.003-.003-.01-.005-.011-.006-.002-.003-.005-.003-.003-.002-.002-.005-.002-.002-.004-.002h-.006v-.023l.012.002.012.004.05.006c.034.004.127.009.28.015.15.01.313.01.483 0 .17-.006.345-.023.524-.05.177-.026.388-.071.63-.137.242-.064.465-.142.669-.23.203-.089.346-.156.433-.2.085-.043.214-.125.39-.24l.261-.178.001-.003.004-.002.004-.003.002-.002.002-.003.004-.002.002-.002.003-.005.012-.003.011-.002.003-.012.003-.012.003-.002.002-.004-.091-.004-.175-.011a1.967 1.967 0 0 1-.268-.053 2.967 2.967 0 0 1-.393-.134 3.307 3.307 0 0 1-.41-.218 1.929 1.929 0 0 1-.287-.208 3.99 3.99 0 0 1-.227-.232 2.283 2.283 0 0 1-.437-.679l-.095-.206-.005-.018-.006-.016-.003-.011-.003-.012.017.002.016.004.127.017c.083.01.213.014.391.01.178-.003.303-.01.37-.021l.127-.024.021-.006.03-.006.027-.006.003-.003.003-.002h.004l.002-.004-.025-.006-.021-.006-.023-.006-.021-.006-.025-.005-.079-.023a4.81 4.81 0 0 1-.307-.126 2.273 2.273 0 0 1-.399-.21 2.79 2.79 0 0 1-.28-.224 2.826 2.826 0 0 1-.294-.317 2.337 2.337 0 0 1-.285-.449 2.833 2.833 0 0 1-.187-.489 2.752 2.752 0 0 1-.082-.471l-.02-.24.01.003.012.002.01.006.013.005.012.006.01.006.176.08c.118.053.265.098.439.136.175.038.28.059.314.062l.05.006h.102l-.002-.003-.002-.003-.005-.002-.003-.004h-.002l-.002-.003-.004-.003-.002-.004-.011-.005-.012-.007-.002-.003-.004-.002-.003-.003-.003-.003-.01-.006-.011-.006-.003-.004a1.535 1.535 0 0 1-.294-.257 5.944 5.944 0 0 1-.203-.239 1.828 1.828 0 0 1-.184-.267 3.293 3.293 0 0 1-.167-.363 2.617 2.617 0 0 1-.186-.877c-.003-.144 0-.268.012-.37a2.517 2.517 0 0 1 .217-.756l.096-.217.006-.018.006-.016.003-.003.003-.002.002-.004.002-.002.004.002.002.004.003.002.002.003.005.002.002.003.003.003.002.002.007.012.005.012.003.002.003.003.153.17c.102.114.224.243.364.382.14.14.217.213.234.218a.193.193 0 0 1 .056.052c.024.03.098.096.229.202.127.107.297.23.506.371.208.14.44.279.694.414.253.138.526.261.819.37.291.11.496.183.615.217.116.035.317.078.602.13.285.054.498.087.643.102.144.017.243.024.297.027h.078l-.002-.015-.004-.016-.022-.143a2.81 2.81 0 0 1-.023-.4 2.552 2.552 0 0 1 .16-.909c.052-.148.104-.266.156-.357.052-.088.119-.189.202-.302a2.52 2.52 0 0 1 .324-.354c.133-.121.284-.23.456-.324.169-.095.327-.166.471-.215.143-.05.267-.082.364-.098.1-.014.15-.023.15-.026"/>
    </g>
</svg>
