<svg xmlns="http://www.w3.org/2000/svg" width="24" height="24" viewBox="0 0 24 24">
    <g fill="none" fill-rule="evenodd">
        <path fill="#FFFFFF" d="M11.762.566C5.292.566.048 5.81.048 12.279c0 6.469 5.244 11.715 11.714 11.715 6.47 0 11.714-5.246 11.714-11.715 0-6.47-5.244-11.713-11.714-11.713"/>
        <path fill="#9B9B9B" d="M14.08 12.137c-1.276-.682-2.498-1.314-3.747-1.97v3.918c1.314-.715 2.7-1.37 3.753-1.954l-.006.006zm-3.513 5.019c-2.65-.049-3.556-.093-4.113-.207a1.81 1.81 0 0 1-.944-.492c-.184-.184-.333-.469-.446-.862-.1-.327-.137-.6-.192-1.265-.083-1.503-.102-2.73 0-4.103.086-.757.126-1.657.693-2.182a1.87 1.87 0 0 1 .927-.469c.545-.103 2.87-.184 5.275-.184 2.4 0 4.729.08 5.275.184.436.082.845.328 1.086.644.517.813.526 1.823.579 2.613.021.378.021 2.516 0 2.892-.083 1.249-.148 1.69-.334 2.149-.114.29-.212.441-.382.61-.264.261-.605.435-.97.497-2.294.173-4.243.21-6.454.175z"/>
    </g>
</svg>
