<?xml version="1.0" encoding="utf-8"?>
<!-- Generator: Adobe Illustrator 16.0.0, SVG Export Plug-In . SVG Version: 6.00 Build 0)  -->
<!DOCTYPE svg PUBLIC "-//W3C//DTD SVG 1.1//EN" "http://www.w3.org/Graphics/SVG/1.1/DTD/svg11.dtd">
<svg version="1.1" id="Layer_1" xmlns="http://www.w3.org/2000/svg" xmlns:xlink="http://www.w3.org/1999/xlink" x="0px" y="0px"
	 width="11px" height="16px" viewBox="0 0 11 16" enable-background="new 0 0 11 16" xml:space="preserve">
<g>
	<title>background</title>
	<rect id="canvas_background" x="-1" y="-1" fill="none" width="13" height="18"/>
</g>
<g>
	<title>Layer 1</title>
	<g id="XMLID_7_">
		<path id="XMLID_8_" fill="#005FAE" d="M5.442,3.458C4.816,3.897,4.107,4.396,3.727,5.222c-0.66,1.439,1.35,3.01,1.436,3.075
			c0.02,0.017,0.044,0.025,0.068,0.025c0.025,0,0.05-0.009,0.071-0.026c0.04-0.034,0.051-0.09,0.027-0.137
			C5.322,8.145,4.601,6.743,4.628,5.738c0.009-0.35,0.499-0.747,1.018-1.167C6.121,4.185,6.66,3.748,6.975,3.238
			c0.692-1.125-0.076-2.23-0.084-2.241C6.859,0.954,6.803,0.938,6.755,0.958C6.707,0.98,6.681,1.033,6.689,1.083
			c0.002,0.007,0.152,0.738-0.264,1.492C6.254,2.887,5.877,3.151,5.442,3.458z"/>
		<path id="XMLID_9_" fill="#005FAE" d="M8.076,3.954c0.045-0.033,0.058-0.094,0.031-0.142c-0.027-0.048-0.084-0.07-0.137-0.05
			C7.863,3.803,5.368,4.764,5.368,5.927c0,0.802,0.343,1.225,0.592,1.534c0.099,0.121,0.183,0.227,0.211,0.316
			C6.25,8.034,6.063,8.5,5.985,8.656C5.963,8.703,5.974,8.758,6.012,8.791c0.021,0.018,0.047,0.026,0.073,0.026
			c0.021,0,0.043-0.006,0.063-0.02C6.191,8.768,7.197,8.056,7.017,7.2C6.949,6.874,6.789,6.637,6.648,6.427
			C6.43,6.101,6.273,5.866,6.511,5.432C6.792,4.926,8.064,3.964,8.076,3.954z"/>
		<path id="XMLID_10_" fill="#005FAE" d="M1.58,8.836C1.536,8.965,1.557,9.092,1.638,9.203c0.27,0.377,1.229,0.584,2.699,0.584l0,0
			c0.199,0,0.41-0.004,0.625-0.013C7.312,9.69,8.184,8.959,8.22,8.928c0.039-0.034,0.05-0.092,0.024-0.137
			C8.221,8.746,8.168,8.723,8.117,8.736C7.289,8.963,5.745,9.043,4.672,9.043c-1.199,0-1.81-0.088-1.96-0.149
			c0.077-0.106,0.55-0.294,1.137-0.41c0.056-0.01,0.094-0.063,0.089-0.119c-0.006-0.058-0.053-0.102-0.11-0.102
			C3.484,8.263,1.76,8.291,1.58,8.836z"/>
		<path id="XMLID_11_" fill="#005FAE" d="M9.443,8.082c-0.484,0-0.945,0.243-0.963,0.253C8.436,8.358,8.412,8.411,8.425,8.459
			c0.013,0.05,0.058,0.083,0.106,0.083c0.011,0,1.033,0.009,1.127,0.594c0.082,0.504-0.969,1.322-1.381,1.595
			c-0.043,0.03-0.063,0.087-0.041,0.136c0.02,0.041,0.06,0.067,0.103,0.067c0.009,0,0.017-0.001,0.022-0.002
			c0.1-0.021,2.392-0.526,2.149-1.86C10.363,8.254,9.849,8.082,9.443,8.082z"/>
		<path id="XMLID_12_" fill="#005FAE" d="M7.871,10.568c0.009-0.044-0.012-0.086-0.045-0.111l-0.551-0.385
			c-0.027-0.019-0.061-0.024-0.092-0.017c-0.007,0.002-0.582,0.151-1.417,0.244c-0.331,0.039-0.702,0.059-1.073,0.059
			c-0.834,0-1.38-0.1-1.46-0.17c-0.01-0.021-0.007-0.03-0.005-0.034c0.014-0.041,0.091-0.089,0.142-0.107
			c0.055-0.021,0.084-0.08,0.067-0.135c-0.017-0.058-0.075-0.09-0.132-0.076c-0.552,0.132-0.821,0.318-0.802,0.554
			c0.035,0.414,0.996,0.627,1.808,0.683c0.117,0.008,0.243,0.012,0.376,0.012l0,0c1.349,0,3.082-0.422,3.099-0.428
			C7.83,10.646,7.863,10.611,7.871,10.568z"/>
		<path id="XMLID_13_" fill="#005FAE" d="M3.726,11.459c0.042-0.026,0.06-0.078,0.045-0.125c-0.015-0.049-0.059-0.078-0.108-0.078
			c-0.075,0.002-0.724,0.029-0.77,0.443c-0.014,0.123,0.022,0.237,0.105,0.336c0.233,0.275,0.862,0.439,1.923,0.502
			c0.127,0.009,0.255,0.013,0.381,0.013c1.349,0,2.258-0.423,2.296-0.441c0.036-0.017,0.061-0.054,0.063-0.094
			c0.004-0.041-0.018-0.08-0.053-0.101l-0.693-0.426c-0.024-0.015-0.053-0.02-0.082-0.014c-0.004,0.001-0.444,0.092-1.109,0.184
			c-0.126,0.018-0.284,0.025-0.47,0.025c-0.665,0-1.405-0.109-1.546-0.18C3.704,11.49,3.706,11.473,3.726,11.459z"/>
		<path id="XMLID_14_" fill="#005FAE" d="M4.673,13.824c3.09-0.004,4.75-0.553,5.067-0.898c0.113-0.122,0.125-0.238,0.117-0.313
			c-0.025-0.187-0.195-0.301-0.215-0.313c-0.046-0.028-0.107-0.021-0.145,0.021c-0.036,0.043-0.036,0.104-0.002,0.146
			c0.021,0.024,0.031,0.065-0.024,0.125c-0.128,0.118-1.416,0.479-3.561,0.59c-0.294,0.015-0.602,0.022-0.916,0.022
			c-1.92,0-3.326-0.264-3.511-0.416c0.072-0.104,0.569-0.267,1.098-0.358c0.059-0.011,0.1-0.065,0.09-0.126
			c-0.009-0.059-0.064-0.102-0.125-0.092c-0.015,0-0.065,0.005-0.124,0.008c-0.873,0.054-1.88,0.172-1.933,0.621
			c-0.016,0.138,0.025,0.262,0.121,0.369C0.848,13.471,1.525,13.824,4.673,13.824L4.673,13.824z"/>
		<path id="XMLID_15_" fill="#005FAE" d="M10.348,13.022c-0.043-0.021-0.095-0.01-0.128,0.025c-0.005,0.006-0.469,0.489-1.864,0.776
			c-0.535,0.106-1.539,0.162-2.985,0.162c-1.448,0-2.825-0.06-2.839-0.06c-0.058-0.003-0.107,0.04-0.115,0.096
			c-0.008,0.058,0.029,0.109,0.084,0.123c0.015,0.003,1.458,0.343,3.432,0.343c0.947,0,1.868-0.078,2.739-0.229
			c1.622-0.285,1.734-1.089,1.74-1.124C10.417,13.089,10.391,13.043,10.348,13.022z"/>
	</g>
</g>
</svg>
