<?xml version="1.0" encoding="utf-8"?>
<!-- Generator: Adobe Illustrator 16.0.0, SVG Export Plug-In . SVG Version: 6.00 Build 0)  -->
<!DOCTYPE svg PUBLIC "-//W3C//DTD SVG 1.1//EN" "http://www.w3.org/Graphics/SVG/1.1/DTD/svg11.dtd">
<svg version="1.1" id="Layer_1" xmlns="http://www.w3.org/2000/svg" xmlns:xlink="http://www.w3.org/1999/xlink" x="0px" y="0px"
	 width="40px" height="40px" viewBox="0 0 40 40" enable-background="new 0 0 40 40" xml:space="preserve">
<g>
	<path fill="#0C78B4" d="M19.931,0.748c10.351,0,18.733,8.384,18.733,18.736c0,10.351-8.383,18.734-18.733,18.734
		c-10.353,0-18.736-8.383-18.736-18.734C1.194,9.131,9.578,0.748,19.931,0.748z"/>
	<rect x="10.892" y="15.549" fill="#FFFFFF" width="4.126" height="13.299"/>
	<path fill="#FFFFFF" d="M12.958,13.737c-1.325,0-2.399-1.072-2.399-2.399c0-1.319,1.074-2.394,2.399-2.394
		c1.32,0,2.386,1.074,2.386,2.394C15.344,12.665,14.277,13.737,12.958,13.737z"/>
	<path fill="#FFFFFF" d="M30.467,28.849h-4.126v-6.467c0-1.539-0.026-3.526-2.14-3.526c-2.146,0-2.472,1.682-2.472,3.42v6.573h-4.12
		V15.549h3.953v1.821h0.053c0.554-1.047,1.901-2.146,3.905-2.146c4.18,0,4.946,2.751,4.946,6.331V28.849z"/>
</g>
<g id="Layer_3" transform="translate(-56.49872,470.00082)">
</g>
</svg>
