<?xml version="1.0" encoding="utf-8"?>
<!-- Generator: Adobe Illustrator 16.0.0, SVG Export Plug-In . SVG Version: 6.00 Build 0)  -->
<!DOCTYPE svg PUBLIC "-//W3C//DTD SVG 1.1//EN" "http://www.w3.org/Graphics/SVG/1.1/DTD/svg11.dtd">
<svg version="1.1" xmlns="http://www.w3.org/2000/svg" xmlns:xlink="http://www.w3.org/1999/xlink" x="0px" y="0px" width="30px"
	 height="40px" viewBox="0 0 30 40" enable-background="new 0 0 30 40" xml:space="preserve">
<g id="Layer_2">
	<circle fill="#FFFFFF" cx="15.234" cy="14.047" r="9.734"/>
</g>
<g id="Layer_1">
	<g>
		
			<linearGradient id="SVGID_1_" gradientUnits="userSpaceOnUse" x1="283.7988" y1="-380.1797" x2="311.8291" y2="-380.1797" gradientTransform="matrix(1 0 0 -1 -282.6602 -359.96)">
			<stop  offset="0" style="stop-color:#0CACE3"/>
			<stop  offset="1" style="stop-color:#0B61AC"/>
		</linearGradient>
		<path fill="url(#SVGID_1_)" d="M15.154,1.151c-7.742,0-14.016,6.274-14.016,14.016c0,3.317,1.076,6.065,2.688,8.917
			C7.599,30.757,15.17,39.288,15.17,39.288c5.059-5.445,11.539-16.192,11.539-16.192s2.46-4.985,2.46-7.929
			C29.169,7.425,22.895,1.151,15.154,1.151z M15.154,23.471c-5.183,0-9.383-4.203-9.383-9.383c0-5.183,4.201-9.382,9.383-9.382
			c5.181,0,9.381,4.199,9.381,9.382C24.535,19.268,20.335,23.471,15.154,23.471z"/>
	</g>
	
		<linearGradient id="SVGID_2_" gradientUnits="userSpaceOnUse" x1="580.1543" y1="811.1357" x2="580.3871" y2="820.7986" gradientTransform="matrix(1 0 0 1 -565.3203 -804.9199)">
		<stop  offset="0" style="stop-color:#0CACE3"/>
		<stop  offset="1" style="stop-color:#0B61AC"/>
	</linearGradient>
	<path fill="url(#SVGID_2_)" d="M15.619,19.198c0.299,0.027,0.57,0.01,0.82-0.048c0.246-0.059,0.461-0.147,0.644-0.263
		c0.187-0.117,0.336-0.274,0.451-0.47c0.118-0.195,0.194-0.43,0.233-0.703c0-0.235-0.039-0.457-0.115-0.665
		c-0.079-0.208-0.197-0.411-0.354-0.606c-0.156-0.194-0.354-0.377-0.586-0.547s-0.501-0.333-0.802-0.49
		c-0.054-0.024-0.104-0.051-0.157-0.078c-0.051-0.026-0.104-0.052-0.154-0.079c-0.053-0.026-0.105-0.051-0.159-0.078
		c-0.052-0.025-0.104-0.052-0.155-0.078c-0.014,0-0.027,0-0.04,0c-0.014,0-0.022-0.004-0.028-0.01
		c-0.007-0.007-0.011-0.017-0.011-0.03c-0.548-0.261-1.072-0.533-1.575-0.82c-0.5-0.288-0.979-0.587-1.437-0.901
		c-0.443-0.312-0.778-0.676-1.006-1.093c-0.228-0.417-0.341-0.889-0.341-1.409c0-0.014,0-0.022,0-0.029c0-0.004,0-0.017,0-0.03
		c0-0.024,0-0.045,0-0.058c0-0.012,0-0.026,0-0.038c0-0.014,0-0.024,0-0.03s0-0.016,0-0.03c0-0.494,0.067-0.932,0.203-1.31
		c0.138-0.377,0.348-0.692,0.635-0.939c0.288-0.259,0.588-0.474,0.9-0.645c0.313-0.169,0.646-0.293,0.997-0.371
		c0.052-0.014,0.104-0.024,0.158-0.03c0.05-0.007,0.103-0.017,0.156-0.031c0.026,0,0.054-0.002,0.077-0.009
		c0.027-0.006,0.06-0.015,0.099-0.028c0.027,0,0.053-0.003,0.079-0.01c0.027-0.006,0.051-0.01,0.077-0.01l4.772-0.039v1.701h-4.458
		c-0.275,0.025-0.518,0.079-0.734,0.156c-0.215,0.079-0.4,0.196-0.557,0.352c-0.157,0.158-0.273,0.321-0.352,0.49
		s-0.13,0.348-0.155,0.528c0,0.013-0.008,0.026-0.021,0.039c0,0.012,0,0.022,0,0.028c0,0.008,0,0.017,0,0.03
		c0,0.013,0,0.027,0,0.039c0,0.014,0,0.023,0,0.031c0,0.005,0,0.016,0,0.028c0,0.118,0.009,0.227,0.029,0.333
		c0.019,0.103,0.055,0.208,0.108,0.313c0.051,0.09,0.118,0.175,0.196,0.253c0.078,0.079,0.162,0.145,0.254,0.195
		c0.298,0.209,0.589,0.398,0.869,0.567c0.281,0.171,0.545,0.32,0.792,0.45c0.261,0.13,0.509,0.259,0.742,0.38
		c0.236,0.125,0.472,0.245,0.705,0.363c0.063,0.039,0.128,0.074,0.188,0.106c0.057,0.034,0.111,0.063,0.164,0.088
		c0.024,0.013,0.056,0.029,0.088,0.05c0.031,0.019,0.067,0.036,0.107,0.048c0.024,0.028,0.055,0.046,0.088,0.058
		c0.033,0.015,0.063,0.027,0.088,0.041c0.039,0.025,0.082,0.055,0.125,0.087c0.047,0.033,0.096,0.062,0.15,0.088
		c0.036,0.027,0.084,0.055,0.135,0.087c0.053,0.033,0.107,0.063,0.155,0.088c0.237,0.158,0.46,0.34,0.674,0.547
		c0.22,0.208,0.421,0.444,0.619,0.704c0.192,0.262,0.345,0.554,0.448,0.879c0.104,0.327,0.154,0.681,0.154,1.057
		c0,0.091,0,0.191-0.008,0.295c-0.009,0.104-0.017,0.208-0.027,0.312c-0.017,0.105-0.028,0.212-0.041,0.322
		c-0.016,0.112-0.034,0.219-0.06,0.323c-0.079,0.287-0.198,0.561-0.354,0.822c-0.154,0.259-0.356,0.507-0.606,0.742
		c-0.246,0.235-0.566,0.409-0.968,0.518c-0.396,0.111-0.876,0.166-1.437,0.166c-0.012,0-0.026,0-0.039,0c-0.012,0-0.025,0-0.039,0
		c-0.012,0-0.024,0-0.037,0c-0.014,0-0.027,0-0.041,0c-0.012,0-0.029,0-0.049,0s-0.037,0-0.049,0c-0.013,0-0.026,0-0.037,0
		c-0.016,0-0.027,0-0.041,0h-5.084v-1.698H15.619L15.619,19.198z"/>
</g>
</svg>
