<?xml version="1.0" encoding="utf-8"?>
<!-- Generator: Adobe Illustrator 16.0.0, SVG Export Plug-In . SVG Version: 6.00 Build 0)  -->
<!DOCTYPE svg PUBLIC "-//W3C//DTD SVG 1.1//EN" "http://www.w3.org/Graphics/SVG/1.1/DTD/svg11.dtd">
<svg version="1.1" id="Calque_1" xmlns="http://www.w3.org/2000/svg" xmlns:xlink="http://www.w3.org/1999/xlink" x="0px" y="0px"
	 width="39px" height="39px" viewBox="0 0 39 39" enable-background="new 0 0 39 39" xml:space="preserve">
<g>
	<path fill="#0071B9" d="M19.5,38.609c-10.538,0-19.11-8.572-19.11-19.109C0.39,8.962,8.962,0.39,19.5,0.39
		c10.537,0,19.109,8.572,19.109,19.11C38.609,30.037,30.037,38.609,19.5,38.609z M19.5,2.211C9.964,2.211,2.211,9.964,2.211,19.5
		c0,9.535,7.757,17.289,17.289,17.289c9.535,0,17.289-7.758,17.289-17.289C36.789,9.964,29.035,2.211,19.5,2.211z"/>
	<path fill="#0071B9" d="M14.122,11.228L28.275,19.5l-14.153,7.788V11.228z"/>
</g>
</svg>
