<?xml version="1.0" encoding="utf-8"?>
<!-- Generator: Adobe Illustrator 16.0.0, SVG Export Plug-In . SVG Version: 6.00 Build 0)  -->
<!DOCTYPE svg PUBLIC "-//W3C//DTD SVG 1.1//EN" "http://www.w3.org/Graphics/SVG/1.1/DTD/svg11.dtd">
<svg version="1.1" id="Capa_1" xmlns="http://www.w3.org/2000/svg" xmlns:xlink="http://www.w3.org/1999/xlink" x="0px" y="0px"
	 width="16px" height="16px" viewBox="0 0 16 16" enable-background="new 0 0 16 16" xml:space="preserve">
<g>
	<g>
		<path fill="#07A3DE" d="M16,9.066V1.333C16,0.598,15.402,0,14.666,0H2.933C2.198,0,1.6,0.598,1.6,1.333v5.333H0.8
			c-0.441,0-0.8,0.359-0.8,0.8V15.2c0,0.44,0.359,0.8,0.8,0.8h5.6c0.441,0,0.8-0.359,0.8-0.8V13.6H8V15.2c0,0.44,0.359,0.8,0.8,0.8
			h6.4c0.44,0,0.8-0.359,0.8-0.8v-2.934c0-0.44-0.359-0.8-0.8-0.8h-3.274L11.57,10.4h3.096C15.402,10.4,16,9.802,16,9.066z
			 M6.667,15.2c0,0.147-0.12,0.267-0.267,0.267H0.8c-0.146,0-0.267-0.119-0.267-0.267v-0.534h6.133V15.2z M6.667,14.133H0.533v-5.6
			h6.133V14.133z M6.667,8H0.533V7.467C0.533,7.319,0.653,7.2,0.8,7.2h5.6c0.147,0,0.267,0.119,0.267,0.267V8z M6.4,6.667H2.133
			V1.333c0-0.441,0.359-0.8,0.8-0.8h11.733c0.441,0,0.801,0.359,0.801,0.8V8H7.2V7.467C7.2,7.025,6.841,6.667,6.4,6.667z M8,13.066
			H7.2v-0.533H8V13.066z M8.049,12H7.2v-1.6h3.808l0.355,1.066H8.8C8.453,11.467,8.16,11.69,8.049,12z M9.066,15.467H8.8
			c-0.146,0-0.267-0.119-0.267-0.267v-2.934C8.533,12.119,8.653,12,8.8,12h0.267V15.467z M14.934,12H15.2
			c0.146,0,0.267,0.119,0.267,0.267V15.2c0,0.147-0.12,0.267-0.267,0.267h-0.267V12z M14.4,12v3.467H9.6V12H14.4z M7.2,9.867V8.533
			h8.267v0.533c0,0.441-0.359,0.801-0.801,0.801H7.2z"/>
	</g>
</g>
<g>
	<g>
		
			<rect x="5.205" y="3.732" transform="matrix(-0.7071 0.7071 -0.7071 -0.7071 15.5749 1.5472)" fill="#07A3DE" width="4.525" height="0.534"/>
	</g>
</g>
<g>
	<g>
		
			<rect x="8.404" y="3.734" transform="matrix(-0.7071 0.7071 -0.7071 -0.7071 21.0375 -0.7135)" fill="#07A3DE" width="4.526" height="0.533"/>
	</g>
</g>
<g>
	<g>
		
			<rect x="1.158" y="10.666" transform="matrix(-0.707 0.7072 -0.7072 -0.707 12.2835 16.7774)" fill="#07A3DE" width="3.017" height="0.533"/>
	</g>
</g>
<g>
	<g>
		
			<rect x="2.758" y="11.2" transform="matrix(-0.707 0.7072 -0.7072 -0.707 15.3916 16.5562)" fill="#07A3DE" width="3.017" height="0.533"/>
	</g>
</g>
<g>
	<g>
		
			<rect x="10.068" y="13.333" transform="matrix(-0.7071 0.7071 -0.7071 -0.7071 28.7346 15.2969)" fill="#07A3DE" width="2.262" height="0.533"/>
	</g>
</g>
<g>
	<g>
		
			<rect x="11.668" y="13.333" transform="matrix(-0.7073 0.7069 -0.7069 -0.7073 31.466 14.1712)" fill="#07A3DE" width="2.263" height="0.533"/>
	</g>
</g>
<g>
	<g>
		<rect x="14.4" y="6.933" fill="#07A3DE" width="0.533" height="0.534"/>
	</g>
</g>
<g>
	<g>
		<rect x="13.334" y="6.933" fill="#07A3DE" width="0.533" height="0.534"/>
	</g>
</g>
<g>
	<g>
		<rect x="12.267" y="6.933" fill="#07A3DE" width="0.533" height="0.534"/>
	</g>
</g>
</svg>
