<?xml version="1.0" encoding="utf-8"?>
<!-- Generator: Adobe Illustrator 16.0.0, SVG Export Plug-In . SVG Version: 6.00 Build 0)  -->
<!DOCTYPE svg PUBLIC "-//W3C//DTD SVG 1.1//EN" "http://www.w3.org/Graphics/SVG/1.1/DTD/svg11.dtd">
<svg version="1.1" id="Layer_1" xmlns="http://www.w3.org/2000/svg" xmlns:xlink="http://www.w3.org/1999/xlink" x="0px" y="0px"
	 width="16px" height="16px" viewBox="0 0 16 16" enable-background="new 0 0 16 16" xml:space="preserve">
<g>
	<g>
		<path fill="#005FAE" d="M1.867,13.867C0.837,13.867,0,14.704,0,15.733C0,15.881,0.119,16,0.267,16h3.2
			c0.147,0,0.267-0.119,0.267-0.267C3.733,14.704,2.896,13.867,1.867,13.867z M0.56,15.467c0.106-0.521,0.519-0.932,1.04-1.037
			v0.504h0.533V14.43c0.521,0.106,0.934,0.516,1.04,1.037H0.56z"/>
	</g>
</g>
<g>
	<g>
		<path fill="#005FAE" d="M15.733,11.467h-0.468c-0.015-0.037-0.029-0.074-0.047-0.111l0.332-0.33c0.104-0.105,0.104-0.273,0-0.377
			l-1.132-1.132c-0.056-0.056-0.128-0.079-0.2-0.075c0.422-0.225,0.715-0.664,0.715-1.175V1.333C14.934,0.598,14.335,0,13.6,0H1.333
			C0.598,0,0,0.598,0,1.333v6.933C0,9.002,0.598,9.6,1.333,9.6h3.48l-1.008,1.867H3.733h-0.4c-0.515,0-0.934,0.418-0.934,0.934
			c0,0.514,0.419,0.934,0.934,0.934h5.733c0,0.146,0.119,0.266,0.268,0.266h0.467c0.016,0.037,0.03,0.074,0.047,0.111l-0.331,0.331
			c-0.104,0.104-0.104,0.272,0,0.377l1.132,1.132c0.104,0.104,0.271,0.104,0.377,0l0.33-0.332c0.037,0.018,0.074,0.032,0.111,0.047
			v0.468c0,0.147,0.119,0.267,0.267,0.267h1.601c0.146,0,0.266-0.119,0.266-0.267v-0.468c0.037-0.015,0.074-0.029,0.111-0.047
			l0.331,0.332c0.104,0.104,0.272,0.104,0.377,0l1.132-1.132c0.104-0.104,0.104-0.272,0-0.377l-0.332-0.331
			c0.018-0.037,0.032-0.074,0.047-0.111h0.468C15.881,13.6,16,13.48,16,13.334v-1.601C16,11.586,15.881,11.467,15.733,11.467z
			 M0.533,1.333c0-0.441,0.359-0.8,0.8-0.8H13.6c0.441,0,0.801,0.359,0.801,0.8v5.6H0.533V1.333z M1.333,9.066
			c-0.441,0-0.8-0.359-0.8-0.8v-0.8H14.4v0.8c0,0.44-0.359,0.8-0.801,0.8h-0.266h-1.601H9.673H5.26H1.333z M14.039,9.52
			l-0.328,0.328c-0.037-0.017-0.074-0.031-0.111-0.047V9.6C13.754,9.6,13.9,9.568,14.039,9.52z M11.467,9.6v0.201
			c-0.037,0.016-0.074,0.03-0.111,0.047L11.108,9.6H11.467z M10.564,9.6l-0.23,0.23L10.178,9.6H10.564z M9.066,12.8H3.333
			c-0.221,0-0.4-0.179-0.4-0.399s0.18-0.4,0.4-0.4h0.4h0.231h5.102V12.8z M4.412,11.467L5.419,9.6h4.113l0.418,0.613l-0.434,0.435
			c-0.104,0.104-0.104,0.272,0,0.377l0.331,0.331c-0.017,0.037-0.031,0.074-0.047,0.111H9.334H4.412z M15.467,13.066h-0.389
			c-0.117,0-0.22,0.076-0.255,0.187c-0.04,0.129-0.095,0.261-0.163,0.39c-0.054,0.104-0.034,0.229,0.049,0.312l0.275,0.276
			l-0.754,0.754l-0.275-0.276c-0.084-0.082-0.209-0.102-0.313-0.048c-0.129,0.067-0.26,0.122-0.389,0.162
			c-0.111,0.036-0.188,0.139-0.188,0.256v0.389H12v-0.389c0-0.117-0.076-0.22-0.187-0.255c-0.129-0.04-0.26-0.095-0.39-0.163
			c-0.103-0.053-0.229-0.034-0.312,0.049l-0.276,0.275l-0.754-0.754l0.276-0.275c0.083-0.083,0.103-0.209,0.048-0.313
			c-0.067-0.129-0.122-0.26-0.162-0.389c-0.035-0.111-0.139-0.188-0.255-0.188H9.6V12h0.39c0.116,0,0.219-0.076,0.255-0.187
			c0.04-0.129,0.095-0.26,0.162-0.39c0.054-0.103,0.034-0.229-0.049-0.312l-0.275-0.276l0.754-0.754l0.276,0.276
			c0.083,0.083,0.208,0.103,0.312,0.048c0.129-0.067,0.261-0.122,0.39-0.162C11.924,10.209,12,10.105,12,9.989V9.6h1.066v0.39
			c0,0.116,0.076,0.219,0.187,0.255c0.129,0.04,0.261,0.095,0.39,0.162c0.104,0.054,0.229,0.035,0.312-0.049l0.276-0.275
			l0.754,0.754l-0.276,0.276c-0.082,0.083-0.102,0.208-0.048,0.312c0.067,0.129,0.122,0.261,0.162,0.39
			C14.858,11.924,14.961,12,15.078,12h0.389V13.066z"/>
	</g>
</g>
<g>
	<g>
		<path fill="#005FAE" d="M12.533,10.934c-0.883,0-1.6,0.717-1.6,1.6s0.717,1.6,1.6,1.6s1.6-0.717,1.6-1.6
			S13.416,10.934,12.533,10.934z M12.533,13.6c-0.588,0-1.066-0.479-1.066-1.066s0.479-1.066,1.066-1.066s1.066,0.479,1.066,1.066
			S13.121,13.6,12.533,13.6z"/>
	</g>
</g>
<g>
	<g>
		<path fill="#005FAE" d="M5.255,2.055L4.878,1.678L3.012,3.545c-0.104,0.104-0.104,0.272,0,0.377l1.866,1.867l0.377-0.377
			L3.577,3.733L5.255,2.055z"/>
	</g>
</g>
<g>
	<g>
		<path fill="#005FAE" d="M11.122,3.545L9.256,1.678L8.878,2.055l1.679,1.678L8.878,5.412l0.378,0.377l1.866-1.867
			C11.227,3.817,11.227,3.649,11.122,3.545z"/>
	</g>
</g>
<g>
	<g>
		
			<rect x="4.383" y="3.201" transform="matrix(-0.4472 0.8944 -0.8944 -0.4472 13.3273 -1.3017)" fill="#005FAE" width="5.365" height="0.533"/>
	</g>
</g>
<g>
	<g>
		<rect x="10.4" y="5.333" fill="#005FAE" width="0.533" height="0.533"/>
	</g>
</g>
<g>
	<g>
		<rect x="11.467" y="5.333" fill="#005FAE" width="0.533" height="0.533"/>
	</g>
</g>
<g>
	<g>
		<rect x="12.533" y="5.333" fill="#005FAE" width="0.533" height="0.533"/>
	</g>
</g>
</svg>
