<?xml version="1.0" encoding="utf-8"?>
<!-- Generator: Adobe Illustrator 21.0.0, SVG Export Plug-In . SVG Version: 6.00 Build 0)  -->
<svg version="1.1" id="Layer_1" xmlns="http://www.w3.org/2000/svg" xmlns:xlink="http://www.w3.org/1999/xlink" x="0px" y="0px"
	 viewBox="0 0 93.2 38" style="enable-background:new 0 0 93.2 38;" xml:space="preserve">
<style type="text/css">
	.st0{fill:#E44315;}
</style>
<path class="st0" d="M57.6,38V13h10.8c2.4,0,4.5,0.5,6.2,1.3l-7.1-6.8l9.8,1.3L81.5,0l1.8,9.6l9.7,1.3l-8.6,4.7l1.8,9.6l-7.1-6.7
	c1,1.9,1.6,4.2,1.6,6.9C80.7,33.6,76,38,68.4,38H57.6z M64.1,18.6v13.8h3.1c4.9-0.1,6.9-2,6.9-7c0-4.5-2.5-6.8-6.9-6.8H64.1z
	 M12.1,38V13h10.8c7.7,0,12.3,4.7,12.3,12.4c0,8.2-4.7,12.6-12.3,12.6H12.1z M18.6,18.6v13.8h3.1c4.9-0.1,6.9-2,6.9-7
	c0-4.5-2.5-6.8-6.9-6.8H18.6z M37.3,38V13h6.5v19.4h11.7V38H37.3L37.3,38z"/>
</svg>
