<svg xmlns="http://www.w3.org/2000/svg" width="81" height="38" viewBox="0 0 81 38">
    <path fill="#E44315" fill-rule="evenodd" d="M45.554 38V13.02h10.77c2.4 0 4.496.454 6.246 1.312l-7.12-6.753 9.753 1.268L69.447 0l1.804 9.641L81 10.933l-8.638 4.69 1.782 9.645-7.142-6.743c1.046 1.877 1.603 4.194 1.603 6.88 0 8.187-4.666 12.595-12.28 12.595H45.554zm6.526-19.382v13.784h3.087c4.947-.105 6.912-2.03 6.912-7.032 0-4.548-2.456-6.752-6.912-6.752H52.08zM0 38V13.02h10.771c7.683 0 12.28 4.653 12.28 12.385C23.05 33.592 18.384 38 10.77 38H0zm6.526-19.382v13.784h3.087c4.947-.105 6.912-2.03 6.912-7.032 0-4.548-2.456-6.752-6.912-6.752H6.526zM25.198 38V13.02h6.526v19.382h11.683V38h-18.21z"/>
</svg>
