<?xml version="1.0" encoding="UTF-8" standalone="no"?>
<svg
        xmlns:osb="http://www.openswatchbook.org/uri/2009/osb"
        xmlns:dc="http://purl.org/dc/elements/1.1/"
        xmlns:cc="http://creativecommons.org/ns#"
        xmlns:rdf="http://www.w3.org/1999/02/22-rdf-syntax-ns#"
        xmlns:xlink="http://www.w3.org/1999/xlink"
        xmlns:sodipodi="http://sodipodi.sourceforge.net/DTD/sodipodi-0.dtd"
        xmlns:inkscape="http://www.inkscape.org/namespaces/inkscape"
        xmlns="http://www.w3.org/2000/svg"
        viewBox="0 0 16 16"
        id="svg3400"
        version="1.1"
        inkscape:version="0.91 r13725"
        sodipodi:docname="apps-pagetree-page-default.svg">
    <metadata
            id="metadata3414">
        <rdf:RDF>
            <cc:Work
                    rdf:about="">
                <dc:format>image/svg+xml</dc:format>
                <dc:type
                        rdf:resource="http://purl.org/dc/dcmitype/StillImage"/>
            </cc:Work>
        </rdf:RDF>
    </metadata>
    <defs
            id="defs3412">
        <linearGradient
                id="linearGradient5701"
                osb:paint="solid">
            <stop
                    style="stop-color:#006ab2;stop-opacity:1;"
                    offset="0"
                    id="stop5703"/>
        </linearGradient>
        <linearGradient
                inkscape:collect="always"
                xlink:href="#linearGradient5701"
                id="linearGradient5705"
                x1="3.003252"
                y1="7.996748"
                x2="12.986992"
                y2="7.996748"
                gradientUnits="userSpaceOnUse"/>
    </defs>
    <sodipodi:namedview
            pagecolor="#ffffff"
            bordercolor="#666666"
            borderopacity="1"
            objecttolerance="10"
            gridtolerance="10"
            guidetolerance="10"
            inkscape:pageopacity="0"
            inkscape:pageshadow="2"
            inkscape:window-width="1920"
            inkscape:window-height="1173"
            id="namedview3410"
            showgrid="false"
            inkscape:zoom="61.5"
            inkscape:cx="6.8463831"
            inkscape:cy="10.452493"
            inkscape:window-x="0"
            inkscape:window-y="27"
            inkscape:window-maximized="1"
            inkscape:current-layer="svg3400"/>
    <path
            fill="#EFEFEF"
            d="M2 0v16h12V4l-4-4H2z"
            id="path3402"/>
    <path
            opacity=".65"
            fill="#FFF"
            d="M10 3.98V0l4 4-4-.02z"
            id="path3404"/>
    <path
            opacity=".2"
            d="M13 5v5L9 5h4z"
            id="path3406"/>
    <path
            fill="#999"
            d="M2 0v16h12V4h-.012l.004-.008L10.008.006 10 .014V0H2zm1 1h6v4h4v10H3V1zm7 .412L12.586 4H10V1.412z"
            id="path3408"/>
    <path
            style="fill:#006ab2;fill-opacity:0"
            d="m 3.001626,7.996748 0,-6.99187 3,0 3,0 0,2.0020147 0,2.0020146 2,2.5000358 2,2.5000359 0,2.489819 0,2.48982 -5,0 -5,0 0,-6.99187 z"
            id="path3416"
            inkscape:connector-curvature="0"/>
    <path
            style="fill:#006ab2;fill-opacity:0"
            d="m 3.003252,7.996748 0,-6.99187 2.99187,0 2.9918699,0 0,1.9919103 0,1.9919102 2.0000001,2.4999487 2,2.4999486 0,2.5000112 0,2.500011 -4.99187,0 -4.99187,0 0,-6.99187 z"
            id="path4218"
            inkscape:connector-curvature="0"/>
    <path
            style="fill:#006ab2;fill-opacity:0"
            d="M 11.005693,7.4998085 9.0162647,5.0130081 11.004273,5.0088783 c 1.093405,-0.00227 1.990501,-0.00164 1.993546,0.00141 0.003,0.00305 0.0037,1.1239639 0.0014,2.49093 l -0.0041,2.4853932 -1.989429,-2.4868001 z"
            id="path4220"
            inkscape:connector-curvature="0"/>
    <path
            style="fill:#006ab2;fill-opacity:0.00392157"
            d="m 2.0113821,8.004878 0,-7.99186987 3.9959103,0 3.9959106,0 1.995959,1.99591027 1.99596,1.9959101 0,5.9959595 0,5.99596 -5.99187,0 -5.9918699,0 0,-7.99187 z m 10.9918699,1.99187 0,-5.0081301 -2,0 -2,0 0,-2.0000431 0,-2.00004317 -3.004065,0.004108 -3.004065,0.004108 -0.00408,7.00406503 -0.00408,7.004065 5.0081488,0 5.0081487,0 0,-5.00813 z M 12.580488,4.0007746 c 0,-0.00673 -0.581708,-0.5939061 -1.292683,-1.3048396 l -1.292683,-1.2926063 0,1.3048398 0,1.3048396 1.292683,0 c 0.710975,0 1.292683,-0.00551 1.292683,-0.012234 z"
            id="path4222"
            inkscape:connector-curvature="0"/>
    <path
            style="fill:#006ab2;fill-opacity:0.00392157"
            d="m 3.003252,7.996748 0,-6.99187 2.99187,0 2.9918699,0 0,1.9919103 0,1.9919102 2.0000001,2.4999487 2,2.4999486 0,2.5000112 0,2.500011 -4.99187,0 -4.99187,0 0,-6.99187 z"
            id="path4224"
            inkscape:connector-curvature="0"/>
    <path
            style="fill:#006ab2;fill-opacity:0.00392157"
            d="m 3.003252,7.996748 0,-6.99187 2.99187,0 2.9918699,0 0,1.9919103 0,1.9919102 2.0000001,2.4999487 2,2.4999486 0,2.5000112 0,2.500011 -4.99187,0 -4.99187,0 0,-6.99187 z"
            id="path4226"
            inkscape:connector-curvature="0"/>
    <path
            style="fill:#006ab2;fill-opacity:0.00392157"
            d="m 3.003252,7.996748 0,-6.99187 2.99187,0 2.9918699,0 0,1.9919103 0,1.9919102 2.0000001,2.4999487 2,2.4999486 0,2.5000112 0,2.500011 -4.99187,0 -4.99187,0 0,-6.99187 z"
            id="path4228"
            inkscape:connector-curvature="0"/>
    <path
            style="fill:none;fill-opacity:0.00392157"
            d="m 3.003252,7.996748 0,-6.99187 2.99187,0 2.9918699,0 0,1.9919103 0,1.9919102 2.0000001,2.4999487 2,2.4999486 0,2.5000112 0,2.500011 -4.99187,0 -4.99187,0 0,-6.99187 z"
            id="path4230"
            inkscape:connector-curvature="0"/>
    <path
            style="fill:none;fill-opacity:0.00392157"
            d="m 3.003252,7.996748 0,-6.99187 2.99187,0 2.9918699,0 0,1.9919103 0,1.9919102 2.0000001,2.4999487 2,2.4999486 0,2.5000112 0,2.500011 -4.99187,0 -4.99187,0 0,-6.99187 z"
            id="path4248"
            inkscape:connector-curvature="0"/>
    <path
            style="fill:#006ab2;fill-opacity:0.00392157"
            d="m 3.003252,7.996748 0,-6.99187 2.99187,0 2.9918699,0 0,1.9919103 0,1.9919102 2.0000001,2.4999487 2,2.4999486 0,2.5000112 0,2.500011 -4.99187,0 -4.99187,0 0,-6.99187 z"
            id="path4250"
            inkscape:connector-curvature="0"/>
    <path
            style="fill:#006ab2;fill-opacity:0.00392157"
            d="m 3.003252,7.996748 0,-6.99187 2.99187,0 2.9918699,0 0,1.9919103 0,1.9919102 2.0000001,2.4999487 2,2.4999486 0,2.5000112 0,2.500011 -4.99187,0 -4.99187,0 0,-6.99187 z"
            id="path4252"
            inkscape:connector-curvature="0"/>
    <path
            style="fill:#006ab2;fill-opacity:0.00392157"
            d="m 2.0113821,8.004878 0,-7.99186987 3.9959103,0 3.9959106,0 1.995959,1.99591027 1.99596,1.9959101 0,5.9959595 0,5.99596 -5.99187,0 -5.9918699,0 0,-7.99187 z m 10.9918699,1.99187 0,-5.0081301 -2,0 -2,0 0,-2.0000431 0,-2.00004317 -3.004065,0.004108 -3.004065,0.004108 -0.00408,7.00406503 -0.00408,7.004065 5.0081488,0 5.0081487,0 0,-5.00813 z M 12.580488,4.0007746 c 0,-0.00673 -0.581708,-0.5939061 -1.292683,-1.3048396 l -1.292683,-1.2926063 0,1.3048398 0,1.3048396 1.292683,0 c 0.710975,0 1.292683,-0.00551 1.292683,-0.012234 z"
            id="path4254"
            inkscape:connector-curvature="0"/>
    <path
            style="fill:url(#linearGradient5705);fill-opacity:1"
            d="m 3.003252,7.996748 0,-6.99187 2.99187,0 2.9918699,0 0,1.9917789 0,1.9917789 1.9999831,2.500091 1.999984,2.5000911 1.6e-5,2.5000001 1.7e-5,2.5 -4.99187,0 -4.99187,0 0,-6.99187 z"
            id="path4256"
            inkscape:connector-curvature="0"/>
</svg>
