<?xml version="1.0" standalone="no"?>
<!DOCTYPE svg PUBLIC "-//W3C//DTD SVG 20010904//EN"
 "http://www.w3.org/TR/2001/REC-SVG-20010904/DTD/svg10.dtd">
<svg version="1.0" xmlns="http://www.w3.org/2000/svg"
 width="747.000000pt" height="804.000000pt" viewBox="0 0 747.000000 804.000000"
 preserveAspectRatio="xMidYMid meet">
<metadata>
Created by potrace 1.15, written by Peter Selinger 2001-2017
</metadata>
<g transform="translate(0.000000,804.000000) scale(0.100000,-0.100000)"
fill="#e44315" stroke="none">
<path d="M4628 7089 c-372 -778 -430 -894 -450 -897 -13 -1 -464 56 -1002 127
-539 72 -981 129 -983 127 -2 -1 321 -313 716 -692 396 -379 718 -690 716
-692 -2 -2 -48 14 -102 36 -291 118 -605 189 -946 212 -79 5 -653 10 -1289 10
l-1148 0 0 -2575 0 -2575 1113 0 c611 0 1191 5 1288 10 877 46 1528 374 1921
965 241 363 376 793 419 1335 14 177 6 559 -16 720 -43 322 -142 665 -262 904
-19 37 -32 70 -30 72 2 2 327 -301 723 -675 395 -373 720 -677 722 -676 2 2
-79 439 -179 973 -100 534 -179 976 -176 984 3 7 397 227 875 488 479 261 869
476 866 479 -2 2 -446 64 -986 137 -556 75 -984 137 -988 144 -3 6 -86 439
-184 963 -97 524 -181 960 -185 971 -5 13 -123 -225 -433 -875z m-2302 -2930
c203 -20 418 -76 558 -146 340 -170 551 -475 627 -908 19 -111 23 -164 23
-360 -1 -493 -94 -818 -301 -1044 -87 -95 -168 -154 -298 -217 -266 -128 -511
-164 -1122 -164 l-343 0 0 1425 0 1425 373 0 c206 0 423 -5 483 -11z"/>
</g>
</svg>
