<?xml version="1.0" encoding="utf-8"?>
<!-- Generator: Adobe Illustrator 23.0.1, SVG Export Plug-In . SVG Version: 6.00 Build 0)  -->
<svg version="1.1" id="Ebene_1" xmlns="http://www.w3.org/2000/svg" xmlns:xlink="http://www.w3.org/1999/xlink" x="0px" y="0px"
	 viewBox="0 0 100 59" style="enable-background:new 0 0 100 59;" xml:space="preserve">
<style type="text/css">
	.st0{fill:#FFF;}
</style>
<g>
	<path class="st0" d="M0,8.7C0,7.8,0.3,7,1,6.4l5-5c0.7-0.7,1.4-1,2.3-1s1.6,0.3,2.3,1L50,40.7L89.4,1.3c0.7-0.7,1.4-1,2.3-1
		c0.9,0,1.6,0.3,2.3,1l5,5c0.7,0.7,1,1.4,1,2.3s-0.3,1.6-1,2.3L52.3,57.7c-0.7,0.7-1.4,1-2.3,1c-0.9,0-1.6-0.3-2.3-1L1,11
		C0.3,10.3,0,9.5,0,8.7z"/>
</g>
</svg>
