<?xml version="1.0" ?><!DOCTYPE svg  PUBLIC '-//W3C//DTD SVG 1.1//EN'  'http://www.w3.org/Graphics/SVG/1.1/DTD/svg11.dtd'><svg enable-background="new 0 0 22.734 21" height="21px" id="Capa_1" version="1.1" viewBox="0 0 22.734 21" width="22.734px" xml:space="preserve" xmlns="http://www.w3.org/2000/svg" xmlns:xlink="http://www.w3.org/1999/xlink"><g><path d="M8.692,0H1.721C0.771,0,0,0.771,0,1.721v6.103c0,0.951,0.771,1.721,1.721,1.721h6.971c0.951,0,1.722-0.771,1.722-1.721   V1.721C10.413,0.771,9.643,0,8.692,0z"/><path d="M21.014,0h-6.971c-0.951,0-1.722,0.771-1.722,1.721v6.103c0,0.951,0.771,1.721,1.722,1.721h6.971   c0.951,0,1.721-0.771,1.721-1.721V1.721C22.735,0.771,21.965,0,21.014,0z"/><path d="M8.692,11.455H1.721c-0.95,0-1.721,0.77-1.721,1.721v6.104C0,20.229,0.771,21,1.721,21h6.971   c0.951,0,1.722-0.771,1.722-1.721v-6.104C10.413,12.225,9.642,11.455,8.692,11.455z"/><path d="M21.014,11.455h-6.971c-0.951,0-1.722,0.771-1.722,1.721v6.104c0,0.951,0.771,1.721,1.722,1.721h6.971   c0.951,0,1.721-0.771,1.721-1.721v-6.104C22.735,12.225,21.964,11.455,21.014,11.455z"/></g></svg>