<?xml version="1.0" ?><svg id="Layer_1" style="enable-background:new 0 0 512 512;" version="1.1" viewBox="0 0 512 512" xml:space="preserve" xmlns="http://www.w3.org/2000/svg" xmlns:xlink="http://www.w3.org/1999/xlink"><g><g><path d="M377.6,7.2c-0.4-0.4-0.8-0.8-1.3-1.2l-25,25c0.4,0.4,0.9,0.8,1.3,1.2c53.3,53.3,53.3,140,0,193.3l24.9,24.9    C444.7,183.2,444.7,74.4,377.6,7.2z" id="XMLID_6_"/><path d="M327.7,57.1c-0.4-0.4-0.9-0.8-1.3-1.2l-24.9,24.9c0.4,0.4,0.9,0.8,1.3,1.2c25.8,25.8,25.8,67.7,0,93.5    l24.9,24.9C367.2,161,367.2,96.6,327.7,57.1z" id="XMLID_5_"/><path d="M159.4,32.2c0.4-0.4,0.9-0.8,1.3-1.2l-25-25c-0.4,0.4-0.8,0.8-1.3,1.2c-67.1,67.1-67.1,176,0,243.1    l24.9-24.9C106.1,172.1,106.1,85.4,159.4,32.2z" id="XMLID_4_"/><path d="M184.3,57.1c-39.5,39.5-39.5,103.9,0,143.4l24.9-24.9c-25.8-25.8-25.8-67.7,0-93.5c0.4-0.4,0.9-0.8,1.3-1.2    l-24.9-24.9C185.2,56.3,184.7,56.7,184.3,57.1z" id="XMLID_3_"/><path d="M234.2,107c-12,12-12,31.6,0,43.6c12,12,31.6,12,43.6,0c12-12,12-31.6,0-43.6    C265.8,94.9,246.2,94.9,234.2,107z" id="XMLID_2_"/></g><polygon id="XMLID_1_" points="289.3,506 222.7,506 243.5,128.8 268.5,128.8  "/></g></svg>