<?xml version="1.0" ?><svg id="Layer_1" style="enable-background:new 0 0 512 512;" version="1.1" viewBox="0 0 512 512" xml:space="preserve" xmlns="http://www.w3.org/2000/svg" xmlns:xlink="http://www.w3.org/1999/xlink"><g><path d="M416.3,47c-13,0-26,3.2-37.3,9.6c-20.3,11.5-34.7,33.1-37.1,56.4c-2.2,21.7,5.3,43,13.2,63.3   c7.2,18.7,37.7,89.7,53.1,121.8c3.3,6.8,12.9,6.8,16.2,0c15.5-32.4,46.2-104,53.5-123c7.9-20.5,15.4-42.1,12.7-63.9   c-3.1-25.2-20.8-47.9-44.1-58C437,49.1,426.6,47,416.3,47z M416.3,157.1c-19.8,0-35.8-16-35.8-35.8s16-35.8,35.8-35.8   c19.8,0,35.8,16,35.8,35.8S436.1,157.1,416.3,157.1z"/><g><path d="M491.9,180.4c-2.8,7.2-8.5,21-15.3,37.1c1.7,9.8,2.8,19.8,3.1,30h-16.1c-2.5,5.7-5,11.4-7.4,16.9h23.5    c-1.8,49.4-19.7,94.7-48.4,130.8c-25.9-14.7-53.3-25.9-81.5-33.6c9.8-31.6,15.1-64.4,15.9-97.3h10.6c-2.5-5.6-5-11.2-7.4-16.9    h-3.2c-0.1-2.7-0.2-5.4-0.3-8.1c-10.9-25-20.7-48.4-24.3-57.8c-0.3-0.9-0.7-1.8-1-2.7c5.2,22.5,8.2,45.5,8.7,68.6h-84.3v-84.8    c22.6-0.5,45.1-3.2,67.3-8c-4-14-6.3-28.4-4.8-43.3c0.4-4.2,1.2-8.4,2.3-12.6c-11.1-22.5-24.7-44.2-40.9-64.4    c23.8,3.4,46.3,10.6,67.1,20.9c4.9-4.5,10.3-8.6,16.2-11.9c2.9-1.6,5.8-3.1,8.9-4.4C343.8,18.1,301.3,6,256,6    C117.9,6,6,117.9,6,256s111.9,250,250,250s250-111.9,250-250c0-27.6-4.5-54.2-12.8-79.1C492.8,178.1,492.3,179.3,491.9,180.4z     M264.5,32.4c28.2,31.9,49.3,67.9,63.4,105.9c-20.9,4.5-42.1,7-63.4,7.6V32.4z M223.7,34.5c-24.3,30.2-43.2,63.9-56.2,99.7    c-26-7-51.4-17.2-75.5-30.6C126,67.1,172,41.9,223.7,34.5z M80.8,116.7c25.9,14.7,53.2,25.9,81.3,33.5    c-9.7,31.2-15.1,63.9-15.9,97.3H32.3C34.1,198.2,52,152.9,80.8,116.7z M32.3,264.4h113.9c0.8,33.5,6.2,66.1,15.9,97.3    c-28.1,7.7-55.4,18.8-81.3,33.5C52,359.1,34.1,313.8,32.3,264.4z M92,408.3c24.1-13.3,49.4-23.5,75.5-30.6    c13.1,35.9,32,69.5,56.2,99.7C172,470,126,444.9,92,408.3z M247.6,479.6c-27.8-31.5-49.2-67.3-63.6-105.9    c20.9-4.5,42.2-7.1,63.6-7.6V479.6z M247.6,349.3c-23.2,0.5-46.3,3.4-69.1,8.4c-9.4-29.9-14.6-61.2-15.4-93.3h84.5V349.3z     M247.6,247.6h-84.5c0.8-32.1,6-63.4,15.4-93.3c22.7,5.1,45.9,7.9,69.1,8.4V247.6z M247.6,145.8c-21.3-0.5-42.6-3.1-63.6-7.6    c14.3-38.6,35.7-74.4,63.6-105.9V145.8z M264.5,264.4h84.3c-0.8,31.5-5.9,62.9-15.4,93.2c-22.7-5-45.7-7.8-68.9-8.4V264.4z     M264.5,366.2c21.3,0.5,42.5,3,63.4,7.6c-14.1,38-35.2,74-63.4,105.9V366.2z M288.3,477.5c24.5-30.6,43.2-64.4,56.1-99.8    c26.1,7,51.5,17.2,75.7,30.6C386,444.9,340,470.1,288.3,477.5z"/></g></g></svg>