<?xml version="1.0" standalone="no"?>
<!DOCTYPE svg PUBLIC "-//W3C//DTD SVG 1.1//EN" "http://www.w3.org/Graphics/SVG/1.1/DTD/svg11.dtd">
<svg xmlns="http://www.w3.org/2000/svg">
<metadata>Generated by Fontastic.me</metadata>
<defs>
<font id="rsag-clear" horiz-adv-x="512">
<font-face font-family="rsag-clear" units-per-em="512" ascent="480" descent="-32"/>
<missing-glyph horiz-adv-x="512" />

<glyph glyph-name="attention" unicode="&#97;" d="M381 129l-250 0c-9 0-14 9-10 17l125 229c4 8 16 8 20 0l125-229c4-7-1-17-10-17z m-141 166c0-2 0-6 1-10l10-72 11 0 10 72c1 5 1 8 1 11 0 9-5 14-17 14-11 0-16-5-16-15z m34-114c0 5-2 9-5 14-4 4-8 6-13 6-5 0-9-2-13-6-4-5-5-9-5-14 0-5 2-10 5-13 4-4 8-5 13-5 5 0 9 2 13 5 4 3 5 7 5 13z"/>
<glyph glyph-name="burger" unicode="&#98;" d="M412 133l-308 0c-11 0-20 9-20 21 0 11 9 20 20 20l308 0c11 0 20-9 20-20 0-12-9-21-20-21z m0 103l-308 0c-11 0-20 9-20 20 0 11 9 20 20 20l308 0c11 0 20-9 20-20 0-11-9-20-20-20z m0 102l-308 0c-11 0-20 9-20 20 0 12 9 21 20 21l308 0c11 0 20-9 20-21 0-11-9-20-20-20z"/>
<glyph glyph-name="bus" unicode="&#99;" d="M379 390c-2 7-221 7-224 0-3-7 0-234 0-234 0 0 3 0 13-1 0-1 0-2 0-3 0-15 11-26 26-26 14 0 25 11 25 26 0 1 0 2 0 2 13 0 29 0 47 0 20 0 36 0 49 0 0-1 0-2 0-2 0-15 12-26 26-26 14 0 26 11 26 26 0 1 0 2 0 3 10 0 14 1 14 1 0 0 0 226-2 234z m-167-18l110 0c4 0 8-3 8-8 0-5-3-9-8-9l-110 0c-4 0-8 3-8 9 0 4 3 8 8 8z m22-193c-4-5-43-6-53 0-10 6-7 14 0 18 7 4 23 3 33 0 9-2 25-13 20-18z m-53 49c-5 5-4 99 0 102 4 4 165 5 169 0 5-5 4-99 0-102-3-4-164-5-169 0z m171-49c-10-6-49-5-53 0-4 5 11 15 20 18 10 3 25 4 33 0 8-4 12-12 0-18z"/>
<glyph glyph-name="bus-taxi" unicode="&#100;" d="M344 165l0-66 14 0 0 66z m-2 230c-1 6-169 5-171 0-2-5 0-178 0-178 0 0 3 0 10 0 0-1 0-2 0-2 0-10 9-19 20-19 10 0 19 8 19 19 0 1 0 1 0 2 10 0 22 0 36 0 14 0 27 0 37 0 0 0 0-1 0-2 0-10 8-19 19-19 11 0 20 8 20 19 0 1 0 2 0 2 8 0 10 0 10 0 1 157 0 176 0 178z m-128-13l83 0c3 0 6-3 6-6 0-3-2-6-6-6l-83 0c-3 0-6 3-6 6 1 3 3 6 6 6z m18-143c-3-5-32-6-41 0-8 5-5 10 0 13 7 3 18 2 25 0 7-3 20-10 16-13z m-42 39c-4 3-3 69 0 72 4 3 127 4 132 0 3-4 3-69 0-72-4-4-128-4-132 0z m133-39c-9-6-37-5-40 0-3 4 8 11 16 13 7 2 18 3 25 0 4-3 7-9-1-13z m-14-105l22 32-17 0-13-22-13 22-17 0 22-32-23-35 17 0 14 23 14-23 18 0z m-69 31l-16 0-24-66 14 0 5 15 25 0 5-15 15 0z m-17-40l8 25 9-25z m-73 40l0-11 19 0 0-54 14 0 0 54 20 0 0 12-53 0z"/>
<glyph glyph-name="calendar" unicode="&#101;" d="M257 264c-2-14-14-18-27-18l0-15 23 0 0-59 18 0 0 91-14 0z m0 0c-2-14-14-18-27-18l0-15 23 0 0-59 18 0 0 91-14 0z m91 95l-19 0 0 15c0 8-7 15-16 15-8 0-15-7-15-15l0-15-86 0 0 15c0 8-7 15-15 15-9 0-16-7-16-15l0-15-17 0c-17 0-31-14-31-30l0-205 246 0 0 205c0 16-13 30-31 30z m10-215l-204 0 0 149 204 0z m-105 29l18 0 0 91-14 0c-2-14-14-18-27-18l0-15 23 0z m4 91c-2-14-14-18-27-18l0-15 23 0 0-59 18 0 0 91-14 0z m0 0c-2-14-14-18-27-18l0-15 23 0 0-59 18 0 0 91-14 0z m0 0c-2-14-14-18-27-18l0-15 23 0 0-59 18 0 0 91-14 0z m0 0c-2-14-14-18-27-18l0-15 23 0 0-59 18 0 0 91-14 0z"/>
<glyph glyph-name="chicken" unicode="&#102;" d="M356 194c0 5 0 10-1 14 0 0 0 0 0 1 0 5-1 9-2 13 0 0 0 1 0 1-1 4-1 9-2 14 0 0 0 1 0 1-1 4-2 8-3 12 0 0 0 1 0 1-1 4-3 8-4 12 0 0 0 0 0 1-2 4-3 8-5 11-2 5-4 8-6 11-2 3-4 7-7 10-18 23-42 38-69 38-18 0-36-7-51-20-2-1-4-3-5-5-2-2-3-3-5-5 0 0 0-1-1-1-1-2-4-3-5-5-2-2-3-4-4-6-1-2-3-4-4-6 0 0 0-1-1-1-1-2-2-4-3-6 0 0 0-1 0-1-1-3-2-5-3-8-1-2-2-4-3-6 0-1 0-1-1-2-1-2-2-4-2-6 0 0 0-1-1-1-1-2-2-5-2-7-1-2-1-5-2-7 0-1 0-1-1-2 0-2-1-5-1-7 0-1 0-1 0-2 0-3-1-5-1-8 0-3-1-5-1-8 0-1 0-2 0-2 0-2 0-4 0-6 0-1 0-2 0-2 0-3 0-6 0-8 0-17-4-53-1-65 0-2 1-3 2-4 6-5 76-39 101-39 22 0 73 13 95 33 2 5-1 53-1 73z m-144 47c0 10 6 18 13 18 7 0 14-8 14-18 0-11-7-19-14-19-8-1-13 8-13 19z m45-102l-37 46c0 0 27 20 37 20 10 0 37-20 37-20z m32 82c-7 0-14 8-14 19 0 10 7 18 14 18 7 0 13-8 13-18 0-10-6-19-13-19z m-111 151c-3 26 12 50 36 52 15 1 30-7 38-22 4 5 10 7 16 8 17 1 32-13 36-32 2 1 5 2 8 2 17 1 31-13 34-33 1-12-3-34-9-41-21 27-48 42-79 42-22 0-44-9-61-23-11 10-18 33-19 47z"/>
<glyph glyph-name="cow" unicode="&#103;" d="M252 156l0-3c0-7-5-11-10-11l-10 0c-6 0-10 5-10 11l0 3c0 6 5 10 10 10l10 0c5 1 10-4 10-10z m32 11l-10 0c-6 0-10-5-10-10l0-3c0-7 5-11 10-11l10 0c6 0 10 5 10 11l0 3c0 5-5 10-10 10z m-43 0l-10 0c-6 0-10-5-10-10l0-3c0-7 5-11 10-11l10 0c6 0 10 5 10 11l0 3c1 5-4 10-10 10z m43 0l-10 0c-6 0-10-5-10-10l0-3c0-7 5-11 10-11l10 0c6 0 10 5 10 11l0 3c0 5-5 10-10 10z m129 207c0 0-21-30-40-45-9-7-25-5-39-2 10-15 18-31 18-49 0-26-25-88-25-93 0-6 20-34 20-44 0-22-38-35-90-35-52 0-93 13-93 35 0 11 17 39 17 44 0 5-22 68-22 93 0 16 9 33 19 49-14-4-30-5-39 2-20 15-40 45-40 45 0 0 61 5 75 0 9-3 16-12 23-20 12 19 15 30 57 30 38 0 48-14 58-31 7 8 15 18 24 21 17 5 77 0 77 0z m-220-103c7 0 12 7 12 13 0 7-6 12-12 12-8 0-13-6-13-12 0-6 5-13 13-13z m123-120c0 4-38 115-38 129 0 13 18 57 18 59 0 11-16 14-41 14-25 0-42-3-42-14 0-2 20-47 20-59 0-13-35-124-35-129 0-16 24-26 60-26 36 0 58 10 58 26z m14 134c0 7-6 12-13 12-7 0-12-6-12-12 0-7 6-13 12-13 7-1 13 6 13 13z m-89-118l-10 0c-6 0-10-5-10-10l0-3c0-7 5-11 10-11l10 0c6 0 10 5 10 11l0 3c1 5-4 10-10 10z m43 0l-10 0c-6 0-10-5-10-10l0-3c0-7 5-11 10-11l10 0c6 0 10 5 10 11l0 3c0 5-5 10-10 10z"/>
<glyph glyph-name="dessert" unicode="&#104;" d="M370 231c4 8 7 17 7 26 0 10 2 28-13 51-10 15-27 27-53 34 0 30-24 54-54 54-30 0-54-23-54-53-30-7-48-19-56-34-10-21-27-91-8-93-17-77-9-84-4-88 9-7 64-10 117-10 46 0 91 2 106 3 15 2 21 4 24 8 2 4 8 11-12 102z m-133 133c1 1 2 2 4 3 1 1 3 1 4 2 0 0 0 0 1 0 1 0 3 1 4 1 0 0 0 0 1 0 2 0 3 0 5 0 2 0 3 0 5 0 0 0 0 0 1 0 1 0 3-1 4-1 0 0 0 0 1 0 1-1 3-1 4-2 1-1 3-2 4-3 3-3 6-6 7-9 1-1 2-3 2-4 1-2 1-3 1-5 0-2 0-3 0-5 0-16-14-30-30-30-16 0-30 14-30 30 0 4 1 7 2 10 1 2 1 3 2 4 3 3 5 6 8 9z m-84-218c0 14 7 51 17 91 1 1 2 1 3 2 7 1 31-46 53-46 20 0 55 55 61 52 6-3 42-30 54-30 2 0 4 0 5 1 7-31 11-57 12-70-31-6-175-6-205 0z"/>
<glyph glyph-name="eggs" unicode="&#105;" d="M247 202c5-18 5-36-1-51-6-15-17-26-30-30-13-4-28-1-41 7-13 9-24 25-30 42-8 28-9 72 5 96 4 8 10 14 16 16 2 1 4 1 6 1 27 1 64-46 75-81z m127 42c-1-57-39-102-85-101-9 0-19 2-27 7 6 18 6 38 0 58-7 21-21 47-40 65-4 5-7 8-11 11 10 52 40 110 80 109 50-2 84-93 83-149z m-31 47c-4 15-9 30-19 42 1-16 2-30 2-44 0-15-1-29-2-42-1-14-5-28-9-41-4-13-10-27-15-41 13 8 25 20 32 34 8 13 13 29 14 45 1 16 0 31-3 47z"/>
<glyph glyph-name="ferry" unicode="&#106;" d="M413 241l-29 59-38 0 0 49 11 21-125 0 0-21 30 0 0-49-119 0 0-59c-38 0-63 0-63 0l-7-41c5 1 11 3 18 5 14 5 32 10 48 10 15 0 28-4 42-8 16-5 32-10 49-10 16 0 26 4 37 8 13 4 27 9 49 9 26 0 43-6 57-10 7-2 13-5 18-5 9 0 27 6 40 11 9 8 15 19 15 31 0 0-12 0-33 0z m-213 7l-36 0 0 32 36 0z m57 0l-36 0 0 32 36 0z m69 52l-43 0 0 49 43 0z m23-52l0 32 23 0 17-32z m92-73c-3 5-9 7-14 4-5-3-23-11-36-11-6 0-12 2-20 5-13 4-29 10-55 10-22 0-36-5-49-9-11-4-21-8-37-8-17 0-33 5-49 10-14 4-28 8-42 8-31 0-52-8-64-15-5-2-7-9-4-13 2-5 8-8 13-4 11 6 29 12 54 12 12 0 24-4 36-8 16-5 35-11 55-11 20 0 32 5 44 10 13 4 24 8 42 8 22 0 36-5 47-9 10-3 18-7 28-7 23 0 45 13 46 14 6 3 7 9 5 14z"/>
<glyph glyph-name="fish" unicode="&#107;" d="M195 323c0-1 1-2 1-5m233-9c0 0-37 9-61-7-10-6-17-13-23-21-5 4-11 7-17 11 13 19 12 45 12 45 0 0-117 6-142-11-1-1-3-2-4-3 0-1 1-2 1-5 3-12 7-31 8-55 1-24 0-54-8-87 12-1 24-2 37-2 48 0 89 23 116 43 5-5 11-11 19-16 24-18 61-7 61-7l-34 57z m-251-130c-56 10-95 37-95 69 0 31 39 57 94 67 1-2 1-5 2-7 3-11 5-25 6-43 2-23 1-53-7-86z m-22 85c0 8-6 15-15 15-8 0-14-7-14-15 0-8 6-14 14-14 9 1 15 7 15 14z m40 54c0 1-1 3-1 5"/>
<glyph glyph-name="job-ticket" unicode="&#108;" d="M356 198l0 36-104 0 0-36-32 0 0-24 162 0 0 24z m-18 0l-68 0 0 20 68 0z m-118-45l0-43 162 0 0 43z m34 136c-9-4-20-7-30-7-11 0-22 3-31 8-36-22-62-78-62-117l70 0 0 45 31 0 0 37 55 0c-11 14-21 26-33 34z m-31 112c-27 0-49-22-49-49 0-27 23-49 49-49 28 0 49 23 49 49 1 27-21 49-49 49z"/>
<glyph glyph-name="location" unicode="&#109;" d="M336 309c0 44-36 80-80 80-44 0-80-36-80-80 0-12 3-22 7-33l73-152 73 152c4 10 7 21 7 33z m-80-56c-30 0-53 23-53 53 0 30 23 53 53 53 30 0 53-23 53-53 0-30-23-53-53-53z"/>
<glyph glyph-name="press" unicode="&#110;" d="M146 378l0-242 221 0 0 242z m23-32l174 0 0-39-174 0z m-1-50l96 0 0-26-96 0z m0-35l96 0 0-25-96 0z m96-96l-96 0 0 60 96 0z m79 0l-63 0 0 25 63 0z m0 36l-63 0 0 24 63 0z m0 35l-63 0 0 24 63 0z m0 35l-63 0 0 26 63 0z"/>
<glyph glyph-name="pork" unicode="&#111;" d="M247 187c0-10-8-19-20-19-10 0-19 8-19 19 0 11 8 20 19 20 12 0 20-8 20-20z m141 107c6-15 9-32 9-49 0-76-61-136-136-136-75 0-136 61-136 136 0 17 3 33 9 48-9 15-20 86-20 86 0 0 76-2 89-11 17 8 38 13 59 13 21 0 41-5 59-13 13 8 88 10 88 10 0 0-12-67-21-84z m-186-44c11 0 19 9 19 19 0 12-9 20-19 20-12 0-20-9-20-20-1-10 8-19 20-19z m125-63c0 24-30 43-67 43-37 0-66-19-66-43 0-23 29-43 66-43 37 1 67 20 67 43z m8 83c0 12-9 20-20 20-10 0-19-9-19-20 0-11 9-19 19-19 11 0 20 8 20 19z m-43-63c-10 0-20-8-20-20 0-10 9-19 20-19 11 0 19 8 19 19 0 12-8 20-19 20z"/>
<glyph glyph-name="picture" unicode="&#112;" d="M255 284c-22 0-39-18-39-38 0-22 17-39 39-39 21 0 38 17 38 39 0 20-18 38-38 38z m0 0c-22 0-39-18-39-38 0-22 17-39 39-39 21 0 38 17 38 39 0 20-18 38-38 38z m114 30l-35 0-5 14c-6 12-11 22-23 22l-102 0c-13 0-19-9-23-22l-4-14-34 0c-12 0-22-10-22-22l0-133 271 0 0 133c-1 12-11 22-23 22z m-114-133c-36 0-64 29-64 65 0 36 29 63 64 63 35 0 63-28 63-63 0-35-28-65-63-65z m99 86c-8 0-15 7-15 16 0 8 7 15 15 15 8 0 16-7 16-15 0-9-8-16-16-16z m-99 17c-22 0-39-18-39-38 0-22 17-39 39-39 21 0 38 17 38 39 0 20-18 38-38 38z"/>
<glyph glyph-name="pdf-download" unicode="&#113;" d="M239 122l-57 68 39 0 0 80 35 0 0-80 39 0z m138 90l-101 0 0 20 80 0 0 62-76 0 0 77-116 0 0-139 38 0 0-20-59 0 0 179 149 0 84-84 0-95z"/>
<glyph glyph-name="monthly-ticket-plus" unicode="&#114;" d="M242 195l0-89 131 0 0 89z m46-72c-13 0-21 7-21 20l11 0c0-6 3-11 9-11 5 0 9 3 9 8 0 8-7 8-12 8l0 9c5 0 11 0 11 7 0 5-3 7-8 7-5 0-8-4-8-10l-11 0c0 11 8 18 20 18 9 0 18-5 18-15 0-5-3-10-8-11 6-1 9-7 9-13 1-11-8-17-19-17z m53 1l-11 0 0 36-15 0 0 8c9 0 15 2 17 11l9 0z m-41 210l34 0 0 35 18 0 0-34 34 0 0-19-34 0 0-33-18 0 0 33-34 0z m-86 75c28 0 49-23 49-50 0-27-22-49-49-49-28 0-49 23-49 49 0 28 22 50 49 50z m-12-205l0-24-80 0c0 39 25 95 60 117 9-5 21-8 32-8 11 0 20 2 30 7 14-9 27-26 37-43l-31 0c-27 1-48-22-48-49z m190-117l-170 0 0 117c0 16 14 28 29 28l111 0c17 0 29-13 29-28l0-117z"/>
<glyph glyph-name="monthly-ticket-family" unicode="&#115;" d="M366 370c20 0 37-17 37-38 0-14-6-25-16-31-3-2-7-4-11-5-3-1-6-1-9-1-5 0-9 1-12 2-4 1-7 3-10 5-9 7-15 19-15 31-1 20 15 37 36 37z m-119 54c27 0 49-23 49-49 0-28-23-49-49-49-28 0-49 22-49 49 0 27 21 49 49 49z m-114-135c18 0 32-15 32-32 0-8-3-15-8-20-2-4-5-6-10-8-3-3-8-4-14-4-6 0-11 2-16 4-3 2-6 4-8 8-5 5-8 12-8 19 1 18 15 33 32 33z m-43-137c1 15 5 44 19 59 7-4 16-6 24-6 7 0 14 2 21 4 1 0 1 1 2 1 3-4 6-8 8-13 6-16 8-33 9-44l-83 0z m92 54c-2 6-6 11-9 16 8 9 13 22 13 35 0 8-2 15-5 22 9 14 21 26 34 34 9-5 21-8 32-8 11 0 20 2 29 7 16-10 30-27 40-47-3-7-6-15-9-23l-78 0c-22 0-41-16-47-36z m189-131l-170 0 0 118c0 1 0 2 0 4 2 14 14 25 28 25l112 0c16 0 29-13 29-28l0-119z m20 92l0 26c0 27-22 49-49 49l-13 0c5 14 11 27 18 36 6-3 12-4 19-4 6 0 11 1 16 2 17-23 31-75 34-110l-25 0z m-171 15l0-88 131 0 0 88z m43-46l0 8c5 0 11 0 11 8 0 4-4 7-8 7-5 0-8-4-8-11l-10 0c0 12 8 20 18 20 9 0 19-5 19-15 0-6-2-11-9-12 7-1 10-6 10-12 0-11-10-18-21-18-12 0-20 7-20 20l10 0c0-6 3-11 9-11 5 0 9 3 9 8 2 8-5 8-10 8z m56-24l-11 0 0 35-13 0 0 9c2 0 5 0 7 1 5 1 8 4 9 10l10 0 0-55z"/>
<glyph glyph-name="noodles" unicode="&#116;" d="M441 267c-8 14-21 23-38 26-16 3-32 0-48-8 0 0-8-4-19-12 2 5 2 9-1 14-3 4-3 7 0 11 4 7 3 13-2 18-3 3-3 6-2 10 3 7 1 13-5 18-2 2-4 6-3 8 1 8-2 15-10 18-4 2-5 5-4 8 1 8-3 13-10 15-5 2-12 3-17 2-29-4-50-18-62-44-3-7-7-14-11-20-5-7-10-8-16-2-7 6-13 13-18 20-10 13-24 23-41 28 0 1-21 3-33 2-13-2-18-10-17-24 0-3-1-6-3-8-6-6-8-12-5-20 1-2 0-6-1-9-5-6-6-13-2-20 2-3 2-6 0-9-4-7-3-14 2-20 2-2 2-6 2-8-2-7-1-13 5-18 2-2 3-6 3-9-1-8 1-14 9-18 2-1 3-4 3-6 0-8 3-14 12-16 7-3 15-5 22-4 26 6 45 20 56 44 3 8 8 14 12 21 6 8 10 9 18 2 5-5 10-11 14-17 6-8 11-14 17-18-24-13-42-24-42-24-8-4-16-10-22-16-10-11-15-24-15-37 0-3 0-5 1-8 3-15 13-28 29-38 11-6 23-9 37-9 5 0 10 0 15 1 15 3 30 9 41 19l121 75c30 18 44 55 28 82z m-214 12c-18 11-29 10-46-5-7-6-15-10-25-11-5-1-11 0-12 6-1 6 4 9 10 9 9 1 16 6 22 14-7 6-15 10-25 9-5 0-10 0-10 5 0 6 4 8 10 8 10 1 20-1 28-6 16-10 32-10 45 4 6 7 16 11 25 12 5 1 10 0 11-6 1-6-4-8-8-9-9-1-18-6-24-14 9-6 17-9 26-8 5 0 10-1 10-7 0-7-4-8-9-8-9-1-18 1-28 7z m56-81c-7 3-13 5-19 6l7 5 61 38 37 23c10 4 20 6 30 4 1 0 2 0 3-1l-78-50-30-18z m12-9l124 76c2-2 4-5 6-7 1-2 2-3 2-5l-122-75c-2 4-6 8-10 11z m108 12l-91-58c1 5 1 12 0 17 0 1 0 1 0 2l117 72c-3-13-12-25-26-33z"/>
<glyph glyph-name="monthly-ticket-bike" unicode="&#117;" d="M298 279c1 0 2-1 3-1 0 0 1 0 1 0-1 1-3 1-4 1z m0 0c1 0 2-1 3-1 0 0 1 0 1 0-1 1-3 1-4 1z m0 0c1 0 2-1 3-1 0 0 1 0 1 0-1 1-3 1-4 1z m67-81c-29 0-53-24-53-53 0-28 24-52 53-52 28 0 53 24 53 52-1 29-25 53-53 53z m0-84c-18 0-31 14-31 30 0 18 14 31 31 31 17 0 30-14 30-31 0-16-14-30-30-30z m-17 139l-25-1-14 16-5 6c-1 1-1 1-2 2 0 0-1 0-1 0-1 0-2 2-3 2-12 6-22 17-26 29-1-1-2-1-4-2-6-3-13-8-20-14-3-3-7-6-10-9-1-1-4-3-5-4-7-8-13-15-17-21-8-11-10-21-2-32 14-15 28-23 28-23l9-6 9-7 15-10-11-49c-1-6 2-11 8-13 1 0 2 0 2 0 6 0 10 3 11 8l13 56c1 4-1 9-5 12l-24 15-9 6-9 6c6 10 14 23 22 31 2 2 7 5 11 9 0-1 1-2 1-2l5-6 7-8 10-13c2-3 5-4 8-4l32 1c6 0 10 5 10 12 2 9-3 14-9 13z m-151-55c-29 0-53-24-53-53 0-28 24-52 53-52 28 0 52 24 52 52 0 29-24 53-52 53z m0-84c-18 0-31 14-31 30 0 18 14 31 31 31 17 0 30-14 30-31 0-16-14-30-30-30z m-27 215c5 2 8 6 8 12 0 10-10 16-19 16-13 0-20-8-21-19l12 0c0 6 3 10 9 10 4 0 8-3 8-7 0-6-7-7-12-7l0-8c6 0 13 0 13-10 0-5-4-9-9-9-7 0-11 5-11 11l-11 0c0-13 8-21 22-21 11 0 21 7 21 18 1 7-3 12-10 14z m36 26c-1-9-9-11-18-11l0-9 15 0 0-38 11 0 0 57z m32 58l-118 0c-18 0-31-14-31-31l0-123 104 0c3 7 8 14 13 21l-95 0 0 92 138 0 0-53c8 6 15 10 20 12l0 51c-1 17-14 31-31 31z m94-59c-4 2-8 2-13 2-13 0-25-8-30-20-1-4-2-7-2-11 0-6 1-10 3-15 3-8 9-14 18-18 4-1 7-2 11-2l2 0c6 0 12 2 17 5 3 2 6 4 8 7 2 3 4 5 5 9 6 18-2 37-19 43z"/>
<glyph glyph-name="monthly-ticket" unicode="&#118;" d="M362 241l-111 0c-17 0-29-14-29-29l0-117 170 0 0 117c-1 16-13 29-30 29z m10-126l-131 0 0 88 131 0z m-43 16l11 0 0 54-9 0c-1-8-8-11-17-10l0-8 14 0z m-41 9c-6 0-9 5-9 12l-11 0c0-13 8-21 21-21 10 0 20 6 20 19 0 6-3 11-9 12 5 1 8 6 8 11 0 10-9 15-18 15-11 0-19-8-20-18l11 0c0 6 3 10 8 9 4 0 8-3 8-7 0-6-7-7-11-7l0-8c5 0 12 0 12-9-1-5-5-8-10-8z m-44 164c-10-4-20-7-30-7-11 0-23 3-32 8-35-21-60-78-60-117l80 0 0 24c0 28 22 49 49 49l31 0c-11 19-24 34-38 43z m-30 113c-28 0-49-23-49-49 0-28 22-50 49-50 28 0 49 23 49 50 0 26-22 49-49 49z"/>
<glyph glyph-name="mobil-60-bike" unicode="&#119;" d="M435 301l0 15-8 0 0-15-15 0 0-8 15 0 0-15 8 0 0 15 16 0 0 8z m-74 0c-3 3-7 5-12 5-5 0-9-2-12-6 0 6 2 16 10 16 4 0 6-3 7-6l11 0c-1 9-9 15-18 15-15 0-20-15-20-28 0-13 4-28 20-28 11 0 19 9 19 20 0 4-1 8-5 12z m-14-22c-5 0-8 5-8 10 0 5 3 9 8 9 5 0 8-5 8-10 0-4-3-9-8-9z m41 46c-10 0-19-7-19-27 0-20 8-28 19-28 10 0 20 6 20 28 0 19-9 26-20 27z m0-46c-8 0-8 13-8 18 0 5 0 18 8 18 8 0 8-13 8-18 1-6 0-18-8-18z m46-14c-4 2-8 1-11-3-12-20-36-32-59-30-17 2-32 11-42 23-11 13-16 29-14 46 2 16 10 32 23 42 13 10 28 15 46 13 18-2 35-12 45-27 2-4 7-5 11-2 4 2 5 7 2 11-13 19-34 32-57 35-21 2-41-4-57-18-17-13-27-31-29-52-2-20 4-41 17-57 14-17 32-27 53-29 4 0 6 0 9 0 26 0 52 14 66 37 2 4 1 9-3 11z m-153-78c-29 0-53-23-53-52 0-29 24-52 53-52 28 0 52 23 52 52 0 29-24 52-52 52z m0-84c-18 0-31 14-31 31 0 18 13 31 31 31 17 0 30-14 30-31 0-16-14-31-30-31z m-16 139l-25-1-7 8-7 8-5 6c-1 1-1 1-2 2 0 0-1 0-1 0-1 0-2 1-3 1-11 5-19 15-24 26-1 1-1 2-1 4-2-1-4-2-7-4-8-5-18-12-27-22-21-21-37-40-24-55 14-15 28-24 28-24l9-5 9-6 16-10-12-49c-1-6 2-11 8-12 1 0 1 0 3 0 5 0 9 3 10 8l13 56c1 4-1 9-5 11l-24 16-18 12c6 10 13 22 22 31 3 2 7 5 11 9 0-1 1-1 1-2l5-6 6-8 10-13c2-3 5-4 8-4l31 1c6 0 10 5 10 11 2 7-2 12-8 11z m-151-55c-29 0-53-23-53-53 0-29 24-52 53-52 28 0 52 23 52 52 0 30-24 53-52 53z m0-84c-18 0-31 14-31 31 0 18 14 31 31 31 17 0 30-14 30-31 0-16-13-31-30-31z m21 251c5 1 7 6 7 11 0 9-9 14-17 14-10 0-17-7-17-18l10 0c0 6 3 10 8 10 4 0 7-2 7-7 0-7-6-8-11-7l0-7c5 0 12 0 12-7 0-5-4-8-8-8-6 0-9 4-9 10l-11 0c0-11 8-18 19-18 10 0 19 6 19 16 0 6-3 10-9 11z m31 25c-1-8-8-10-15-10l0-9 13 0 0-32 10 0 0 51z m29 50l-105 0c-15 0-27-12-27-27l0-109 83 0c9 7 18 13 25 18l-90 0 0 82 123 0 0-44c5 4 11 8 18 10l0 43c0 16-12 27-27 27z m54-86c-4 2-8 2-12 2-6 0-11-1-15-3-7-3-13-9-16-17-1-2-1-4-2-7 0-2-1-3-1-5l0-2c0-4 1-8 3-12 1-2 2-4 3-6 3-5 8-9 15-12 4-1 7-2 12-2 6 0 12 2 17 5 3 2 6 4 8 7 2 3 4 5 5 8 7 17-1 37-17 44z"/>
<glyph glyph-name="mobil-60" unicode="&#120;" d="M299 165c0-2-1-4-2-6-3-4-8-5-13-5l0-9 13 0 0-34 10 0 0 53-8 0z m-32-25c5 1 7 6 7 12 0 3-1 6-3 8-3 4-9 7-15 7-6 0-11-2-14-7-2-3-4-7-4-12l10 0c0 6 3 10 8 10 4 0 7-3 7-7 0-7-7-8-11-7l0-7c5 0 12 0 12-8 0-5-4-8-9-8-6 0-9 5-9 10l-10 0c0-6 2-10 5-13 3-4 9-6 15-6 6 0 11 2 15 6 3 3 5 7 5 12 0 4-4 9-9 10z m32 25c0-2-1-4-2-6-3-4-8-5-13-5l0-9 13 0 0-34 10 0 0 53-8 0z m-32-25c5 1 7 6 7 12 0 3-1 6-3 8-3 4-9 7-15 7-6 0-11-2-14-7-2-3-4-7-4-12l10 0c0 6 3 10 8 10 4 0 7-3 7-7 0-7-7-8-11-7l0-7c5 0 12 0 12-8 0-5-4-8-9-8-6 0-9 5-9 10l-10 0c0-6 2-10 5-13 3-4 9-6 15-6 6 0 11 2 15 6 3 3 5 7 5 12 0 4-4 9-9 10z m32 25c0-2-1-4-2-6-3-4-8-5-13-5l0-9 13 0 0-34 10 0 0 53-8 0z m-32-25c5 1 7 6 7 12 0 3-1 6-3 8-3 4-9 7-15 7-6 0-11-2-14-7-2-3-4-7-4-12l10 0c0 6 3 10 8 10 4 0 7-3 7-7 0-7-7-8-11-7l0-7c5 0 12 0 12-8 0-5-4-8-9-8-6 0-9 5-9 10l-10 0c0-6 2-10 5-13 3-4 9-6 15-6 6 0 11 2 15 6 3 3 5 7 5 12 0 4-4 9-9 10z m32 25c0-2-1-4-2-6-3-4-8-5-13-5l0-9 13 0 0-34 10 0 0 53-8 0z m-32-25c5 1 7 6 7 12 0 3-1 6-3 8-3 4-9 7-15 7-6 0-11-2-14-7-2-3-4-7-4-12l10 0c0 6 3 10 8 10 4 0 7-3 7-7 0-7-7-8-11-7l0-7c5 0 12 0 12-8 0-5-4-8-9-8-6 0-9 5-9 10l-10 0c0-6 2-10 5-13 3-4 9-6 15-6 6 0 11 2 15 6 3 3 5 7 5 12 0 4-4 9-9 10z m32 25c0-2-1-4-2-6-3-4-8-5-13-5l0-9 13 0 0-34 10 0 0 53-8 0z m-32-25c5 1 7 6 7 12 0 3-1 6-3 8-3 4-9 7-15 7-6 0-11-2-14-7-2-3-4-7-4-12l10 0c0 6 3 10 8 10 4 0 7-3 7-7 0-7-7-8-11-7l0-7c5 0 12 0 12-8 0-5-4-8-9-8-6 0-9 5-9 10l-10 0c0-6 2-10 5-13 3-4 9-6 15-6 6 0 11 2 15 6 3 3 5 7 5 12 0 4-4 9-9 10z m32 25c0-2-1-4-2-6-3-4-8-5-13-5l0-9 13 0 0-34 10 0 0 53-8 0z m-32-25c5 1 7 6 7 12 0 3-1 6-3 8-3 4-9 7-15 7-6 0-11-2-14-7-2-3-4-7-4-12l10 0c0 6 3 10 8 10 4 0 7-3 7-7 0-7-7-8-11-7l0-7c5 0 12 0 12-8 0-5-4-8-9-8-6 0-9 5-9 10l-10 0c0-6 2-10 5-13 3-4 9-6 15-6 6 0 11 2 15 6 3 3 5 7 5 12 0 4-4 9-9 10z m32 25c0-2-1-4-2-6-3-4-8-5-13-5l0-9 13 0 0-34 10 0 0 53-8 0z m-32-25c5 1 7 6 7 12 0 3-1 6-3 8-3 4-9 7-15 7-6 0-11-2-14-7-2-3-4-7-4-12l10 0c0 6 3 10 8 10 4 0 7-3 7-7 0-7-7-8-11-7l0-7c5 0 12 0 12-8 0-5-4-8-9-8-6 0-9 5-9 10l-10 0c0-6 2-10 5-13 3-4 9-6 15-6 6 0 11 2 15 6 3 3 5 7 5 12 0 4-4 9-9 10z m32 25c0-2-1-4-2-6-3-4-8-5-13-5l0-9 13 0 0-34 10 0 0 53-8 0z m-32-25c5 1 7 6 7 12 0 3-1 6-3 8-3 4-9 7-15 7-6 0-11-2-14-7-2-3-4-7-4-12l10 0c0 6 3 10 8 10 4 0 7-3 7-7 0-7-7-8-11-7l0-7c5 0 12 0 12-8 0-5-4-8-9-8-6 0-9 5-9 10l-10 0c0-6 2-10 5-13 3-4 9-6 15-6 6 0 11 2 15 6 3 3 5 7 5 12 0 4-4 9-9 10z m32 25c0-2-1-4-2-6-3-4-8-5-13-5l0-9 13 0 0-34 10 0 0 53-8 0z m-32-25c5 1 7 6 7 12 0 3-1 6-3 8-3 4-9 7-15 7-6 0-11-2-14-7-2-3-4-7-4-12l10 0c0 6 3 10 8 10 4 0 7-3 7-7 0-7-7-8-11-7l0-7c5 0 12 0 12-8 0-5-4-8-9-8-6 0-9 5-9 10l-10 0c0-6 2-10 5-13 3-4 9-6 15-6 6 0 11 2 15 6 3 3 5 7 5 12 0 4-4 9-9 10z m32 25c0-2-1-4-2-6-3-4-8-5-13-5l0-9 13 0 0-34 10 0 0 53-8 0z m-32-25c5 1 7 6 7 12 0 3-1 6-3 8-3 4-9 7-15 7-6 0-11-2-14-7-2-3-4-7-4-12l10 0c0 6 3 10 8 10 4 0 7-3 7-7 0-7-7-8-11-7l0-7c5 0 12 0 12-8 0-5-4-8-9-8-6 0-9 5-9 10l-10 0c0-6 2-10 5-13 3-4 9-6 15-6 6 0 11 2 15 6 3 3 5 7 5 12 0 4-4 9-9 10z m32 25c0-2-1-4-2-6-3-4-8-5-13-5l0-9 13 0 0-34 10 0 0 53-8 0z m-32-25c5 1 7 6 7 12 0 3-1 6-3 8-3 4-9 7-15 7-6 0-11-2-14-7-2-3-4-7-4-12l10 0c0 6 3 10 8 10 4 0 7-3 7-7 0-7-7-8-11-7l0-7c5 0 12 0 12-8 0-5-4-8-9-8-6 0-9 5-9 10l-10 0c0-6 2-10 5-13 3-4 9-6 15-6 6 0 11 2 15 6 3 3 5 7 5 12 0 4-4 9-9 10z m32 25c0-2-1-4-2-6-3-4-8-5-13-5l0-9 13 0 0-34 10 0 0 53-8 0z m-32-25c5 1 7 6 7 12 0 3-1 6-3 8-3 4-9 7-15 7-6 0-11-2-14-7-2-3-4-7-4-12l10 0c0 6 3 10 8 10 4 0 7-3 7-7 0-7-7-8-11-7l0-7c5 0 12 0 12-8 0-5-4-8-9-8-6 0-9 5-9 10l-10 0c0-6 2-10 5-13 3-4 9-6 15-6 6 0 11 2 15 6 3 3 5 7 5 12 0 4-4 9-9 10z m0 0c5 1 7 6 7 12 0 3-1 6-3 8-3 4-9 7-15 7-6 0-11-2-14-7-2-3-4-7-4-12l10 0c0 6 3 10 8 10 4 0 7-3 7-7 0-7-7-8-11-7l0-7c5 0 12 0 12-8 0-5-4-8-9-8-6 0-9 5-9 10l-10 0c0-6 2-10 5-13 3-4 9-6 15-6 6 0 11 2 15 6 3 3 5 7 5 12 0 4-4 9-9 10z m32 25c0-2-1-4-2-6-3-4-8-5-13-5l0-9 13 0 0-34 10 0 0 53-8 0z m0 0c0-2-1-4-2-6-3-4-8-5-13-5l0-9 13 0 0-34 10 0 0 53-8 0z m-32-25c5 1 7 6 7 12 0 3-1 6-3 8-3 4-9 7-15 7-6 0-11-2-14-7-2-3-4-7-4-12l10 0c0 6 3 10 8 10 4 0 7-3 7-7 0-7-7-8-11-7l0-7c5 0 12 0 12-8 0-5-4-8-9-8-6 0-9 5-9 10l-10 0c0-6 2-10 5-13 3-4 9-6 15-6 6 0 11 2 15 6 3 3 5 7 5 12 0 4-4 9-9 10z m145 209l0 16-9 0 0-16-14 0 0-8 15 0 0-14 9 0 0 14 14 0 0 8z m-74-1c-3 3-7 5-12 5-5 0-10-2-12-6 0 6 2 15 11 17 4 0 6-4 7-7l10 0c-1 10-8 15-17 15-15 0-21-15-21-28 0-13 4-27 21-27 11 0 18 9 18 20-1 3-2 8-5 11z m-14-22c-6 0-9 5-9 9 0 5 3 9 9 10 5 0 8-5 8-10 0-4-3-9-8-9z m41 46c-11 0-20-6-20-27 0-20 9-28 20-28 10 0 19 7 19 28 0 20-9 27-19 27z m0-46c-9 0-9 12-9 18 0 5 0 18 9 18 9 0 9-12 9-18-1-5-1-18-9-18z m45-13c-4 2-10 1-12-2-12-20-36-31-59-28-16 2-31 9-42 22-10 12-15 29-13 45 2 17 9 31 22 42 13 10 29 16 45 14 19-3 35-13 45-28 2-4 7-5 12-2 4 2 4 7 2 11-14 20-34 32-57 35-20 2-41-4-57-18-16-13-27-31-29-52-4-43 27-81 70-85 3 0 5 0 8 0 27 0 52 15 67 37 3 2 2 7-2 9z m-143-173c5 1 7 6 7 12 0 3-1 6-3 8-3 4-9 7-15 7-6 0-11-2-14-7-2-3-4-7-4-12l10 0c0 6 3 10 8 10 4 0 7-3 7-7 0-7-7-8-11-7l0-7c5 0 12 0 12-8 0-5-4-8-9-8-6 0-9 5-9 10l-10 0c0-6 2-10 5-13 3-4 9-6 15-6 6 0 11 2 15 6 3 3 5 7 5 12 0 4-4 9-9 10z m32 25c0-2-1-4-2-6-3-4-8-5-13-5l0-9 13 0 0-34 10 0 0 53-8 0z m0 0c0-2-1-4-2-6-3-4-8-5-13-5l0-9 13 0 0-34 10 0 0 53-8 0z m-32-25c5 1 7 6 7 12 0 3-1 6-3 8-3 4-9 7-15 7-6 0-11-2-14-7-2-3-4-7-4-12l10 0c0 6 3 10 8 10 4 0 7-3 7-7 0-7-7-8-11-7l0-7c5 0 12 0 12-8 0-5-4-8-9-8-6 0-9 5-9 10l-10 0c0-6 2-10 5-13 3-4 9-6 15-6 6 0 11 2 15 6 3 3 5 7 5 12 0 4-4 9-9 10z m62 78l-109 0c-15 0-29-12-29-29l0-113 166 0 0 114c0 16-12 28-28 28z m9-123l-127 0 0 85 127 0z m-41 17l10 0 0 53-8 0c0-2-1-4-2-6-3-4-8-5-13-5l0-9 13 0z m-41 8c-6 0-9 5-9 10l-10 0c0-6 2-10 5-13 3-4 9-6 15-6 6 0 11 2 15 6 3 3 6 7 6 12 0 6-4 11-10 12 5 1 7 6 7 12 0 3-1 6-3 8-3 4-9 7-15 7-6 0-11-2-14-7-2-3-4-7-4-11l10 0c0 5 3 9 8 9 4 0 7-3 7-7 0-7-7-8-11-7l0-7c5 0 12 0 12-8 0-7-4-10-9-10z m11 20c5 1 7 6 7 12 0 3-1 6-3 8-3 4-9 7-15 7-6 0-11-2-14-7-2-3-4-7-4-12l10 0c0 6 3 10 8 10 4 0 7-3 7-7 0-7-7-8-11-7l0-7c5 0 12 0 12-8 0-5-4-8-9-8-6 0-9 5-9 10l-10 0c0-6 2-10 5-13 3-4 9-6 15-6 6 0 11 2 15 6 3 3 5 7 5 12 0 4-4 9-9 10z m32 25c0-2-1-4-2-6-3-4-8-5-13-5l0-9 13 0 0-34 10 0 0 53-8 0z m0 0c0-2-1-4-2-6-3-4-8-5-13-5l0-9 13 0 0-34 10 0 0 53-8 0z m-32-25c5 1 7 6 7 12 0 3-1 6-3 8-3 4-9 7-15 7-6 0-11-2-14-7-2-3-4-7-4-12l10 0c0 6 3 10 8 10 4 0 7-3 7-7 0-7-7-8-11-7l0-7c5 0 12 0 12-8 0-5-4-8-9-8-6 0-9 5-9 10l-10 0c0-6 2-10 5-13 3-4 9-6 15-6 6 0 11 2 15 6 3 3 5 7 5 12 0 4-4 9-9 10z m-56 116c-9-4-20-7-30-7-11 0-22 3-31 8-35-21-60-77-60-116l82 0 0 49c0 28 23 50 49 50l9 0c-7 6-13 11-19 16z m-31 111c-26 0-48-22-48-49 0-26 22-48 48-48 27 0 48 22 48 48 0 27-21 49-48 49z m119-202c0-2-1-4-2-6-3-4-8-5-13-5l0-9 13 0 0-34 10 0 0 53-8 0z m-32-25c5 1 7 6 7 12 0 3-1 6-3 8-3 4-9 7-15 7-6 0-11-2-14-7-2-3-4-7-4-12l10 0c0 6 3 10 8 10 4 0 7-3 7-7 0-7-7-8-11-7l0-7c5 0 12 0 12-8 0-5-4-8-9-8-6 0-9 5-9 10l-10 0c0-6 2-10 5-13 3-4 9-6 15-6 6 0 11 2 15 6 3 3 5 7 5 12 0 4-4 9-9 10z m32 25c0-2-1-4-2-6-3-4-8-5-13-5l0-9 13 0 0-34 10 0 0 53-8 0z m-32-25c5 1 7 6 7 12 0 3-1 6-3 8-3 4-9 7-15 7-6 0-11-2-14-7-2-3-4-7-4-12l10 0c0 6 3 10 8 10 4 0 7-3 7-7 0-7-7-8-11-7l0-7c5 0 12 0 12-8 0-5-4-8-9-8-6 0-9 5-9 10l-10 0c0-6 2-10 5-13 3-4 9-6 15-6 6 0 11 2 15 6 3 3 5 7 5 12 0 4-4 9-9 10z m32 25c0-2-1-4-2-6-3-4-8-5-13-5l0-9 13 0 0-34 10 0 0 53-8 0z m-32-25c5 1 7 6 7 12 0 3-1 6-3 8-3 4-9 7-15 7-6 0-11-2-14-7-2-3-4-7-4-12l10 0c0 6 3 10 8 10 4 0 7-3 7-7 0-7-7-8-11-7l0-7c5 0 12 0 12-8 0-5-4-8-9-8-6 0-9 5-9 10l-10 0c0-6 2-10 5-13 3-4 9-6 15-6 6 0 11 2 15 6 3 3 5 7 5 12 0 4-4 9-9 10z m32 25c0-2-1-4-2-6-3-4-8-5-13-5l0-9 13 0 0-34 10 0 0 53-8 0z m-32-25c5 1 7 6 7 12 0 3-1 6-3 8-3 4-9 7-15 7-6 0-11-2-14-7-2-3-4-7-4-12l10 0c0 6 3 10 8 10 4 0 7-3 7-7 0-7-7-8-11-7l0-7c5 0 12 0 12-8 0-5-4-8-9-8-6 0-9 5-9 10l-10 0c0-6 2-10 5-13 3-4 9-6 15-6 6 0 11 2 15 6 3 3 5 7 5 12 0 4-4 9-9 10z m32 25c0-2-1-4-2-6-3-4-8-5-13-5l0-9 13 0 0-34 10 0 0 53-8 0z m-32-25c5 1 7 6 7 12 0 3-1 6-3 8-3 4-9 7-15 7-6 0-11-2-14-7-2-3-4-7-4-12l10 0c0 6 3 10 8 10 4 0 7-3 7-7 0-7-7-8-11-7l0-7c5 0 12 0 12-8 0-5-4-8-9-8-6 0-9 5-9 10l-10 0c0-6 2-10 5-13 3-4 9-6 15-6 6 0 11 2 15 6 3 3 5 7 5 12 0 4-4 9-9 10z m32 25c0-2-1-4-2-6-3-4-8-5-13-5l0-9 13 0 0-34 10 0 0 53-8 0z m-32-25c5 1 7 6 7 12 0 3-1 6-3 8-3 4-9 7-15 7-6 0-11-2-14-7-2-3-4-7-4-12l10 0c0 6 3 10 8 10 4 0 7-3 7-7 0-7-7-8-11-7l0-7c5 0 12 0 12-8 0-5-4-8-9-8-6 0-9 5-9 10l-10 0c0-6 2-10 5-13 3-4 9-6 15-6 6 0 11 2 15 6 3 3 5 7 5 12 0 4-4 9-9 10z m32 25c0-2-1-4-2-6-3-4-8-5-13-5l0-9 13 0 0-34 10 0 0 53-8 0z m-32-25c5 1 7 6 7 12 0 3-1 6-3 8-3 4-9 7-15 7-6 0-11-2-14-7-2-3-4-7-4-12l10 0c0 6 3 10 8 10 4 0 7-3 7-7 0-7-7-8-11-7l0-7c5 0 12 0 12-8 0-5-4-8-9-8-6 0-9 5-9 10l-10 0c0-6 2-10 5-13 3-4 9-6 15-6 6 0 11 2 15 6 3 3 5 7 5 12 0 4-4 9-9 10z m32 25c0-2-1-4-2-6-3-4-8-5-13-5l0-9 13 0 0-34 10 0 0 53-8 0z m-32-25c5 1 7 6 7 12 0 3-1 6-3 8-3 4-9 7-15 7-6 0-11-2-14-7-2-3-4-7-4-12l10 0c0 6 3 10 8 10 4 0 7-3 7-7 0-7-7-8-11-7l0-7c5 0 12 0 12-8 0-5-4-8-9-8-6 0-9 5-9 10l-10 0c0-6 2-10 5-13 3-4 9-6 15-6 6 0 11 2 15 6 3 3 5 7 5 12 0 4-4 9-9 10z m32 25c0-2-1-4-2-6-3-4-8-5-13-5l0-9 13 0 0-34 10 0 0 53-8 0z m-32-25c5 1 7 6 7 12 0 3-1 6-3 8-3 4-9 7-15 7-6 0-11-2-14-7-2-3-4-7-4-12l10 0c0 6 3 10 8 10 4 0 7-3 7-7 0-7-7-8-11-7l0-7c5 0 12 0 12-8 0-5-4-8-9-8-6 0-9 5-9 10l-10 0c0-6 2-10 5-13 3-4 9-6 15-6 6 0 11 2 15 6 3 3 5 7 5 12 0 4-4 9-9 10z m32 25c0-2-1-4-2-6-3-4-8-5-13-5l0-9 13 0 0-34 10 0 0 53-8 0z m-32-25c5 1 7 6 7 12 0 3-1 6-3 8-3 4-9 7-15 7-6 0-11-2-14-7-2-3-4-7-4-12l10 0c0 6 3 10 8 10 4 0 7-3 7-7 0-7-7-8-11-7l0-7c5 0 12 0 12-8 0-5-4-8-9-8-6 0-9 5-9 10l-10 0c0-6 2-10 5-13 3-4 9-6 15-6 6 0 11 2 15 6 3 3 5 7 5 12 0 4-4 9-9 10z m32 25c0-2-1-4-2-6-3-4-8-5-13-5l0-9 13 0 0-34 10 0 0 53-8 0z m-32-25c5 1 7 6 7 12 0 3-1 6-3 8-3 4-9 7-15 7-6 0-11-2-14-7-2-3-4-7-4-12l10 0c0 6 3 10 8 10 4 0 7-3 7-7 0-7-7-8-11-7l0-7c5 0 12 0 12-8 0-5-4-8-9-8-6 0-9 5-9 10l-10 0c0-6 2-10 5-13 3-4 9-6 15-6 6 0 11 2 15 6 3 3 5 7 5 12 0 4-4 9-9 10z m32 25c0-2-1-4-2-6-3-4-8-5-13-5l0-9 13 0 0-34 10 0 0 53-8 0z m-32-25c5 1 7 6 7 12 0 3-1 6-3 8-3 4-9 7-15 7-6 0-11-2-14-7-2-3-4-7-4-12l10 0c0 6 3 10 8 10 4 0 7-3 7-7 0-7-7-8-11-7l0-7c5 0 12 0 12-8 0-5-4-8-9-8-6 0-9 5-9 10l-10 0c0-6 2-10 5-13 3-4 9-6 15-6 6 0 11 2 15 6 3 3 5 7 5 12 0 4-4 9-9 10z"/>
<glyph glyph-name="media-center" unicode="&#121;" d="M370 329l0-17-235 0 0 47 97 0c0 0 8-27 18-29 9-3 120-1 120-1z m0-37l0-145-235 0 0 145z m-72-71c-22 12-43 24-65 35l0-70c22 12 42 24 65 35z"/>
<glyph glyph-name="map" unicode="&#122;" d="M408 99l-98 58-89-52-95 58 0 268 95-41 89 37 98-41z m-99 81l77-45 0 237-77 32z m-164 219l0-225 75-45 0 239z"/>
<glyph glyph-name="press-distribute" unicode="&#65;" d="M408 205l-44-51-8 26c0 0-13-2-32-10-8-3-16-7-25-11-32-18-54-51-54-51 0 0 6 28 28 51 5 4 9 8 14 11 13 10 26 16 37 20 16 8 28 9 28 9l-7 27z m-84 184l0-176c-14-5-32-13-50-27-11-8-20-18-27-27l-133 0 0 230z m-189-66l166 0 0 36-166 0z m0-35l91 0 0 23-91 0z m0-34l91 0 0 24-91 0z m91-9l-91 0 0-58 91 0z m76-1l-60 0 0-24 60 0z m0 35l-60 0 0-24 60 0z m0 33l-60 0 0-23 60 0z"/>
<glyph glyph-name="press-officer" unicode="&#66;" d="M222 365c26 0 46-21 46-47 0-25-20-46-46-46-25 0-46 21-46 46 1 26 22 47 46 47z m-88-215c0 36 24 89 56 110 10-5 21-8 32-8 10 0 21 2 30 7 32-21 54-73 54-109z m236 0l-17 0 0 39-14 20c-8-1-20 5-28 14-11 14-12 31-4 38 9 7 25 2 36-11 8-10 11-23 8-31l17-22c1-1 1-3 1-6l0-41z"/>
<glyph glyph-name="print" unicode="&#67;" d="M382 310l-45 0 0 72-162 0 0-72-45 0c-9 0-16-8-16-17l0-88 61 0 0-74 162 0 0 74 62 0 0 88c0 9-8 17-17 17z m-66-158l-120 0 0 85 120 0z m0 158l-120 0 0 51 120 0z m50-49c-11 0-18 8-18 18 0 9 8 17 18 17 9 0 17-8 17-17 0-10-8-18-17-18z"/>
<glyph glyph-name="salade" unicode="&#68;" d="M224 132c-15 3-50 11-81 35-41 33-59 100-59 100 0 0 133-8 143-73 7-47 7-60 6-63-2 6-5 11-7 16-5 11-11 21-18 30-2 2-4 5-6 7-2 2-4 4-7 6-6 5-11 8-16 11-10 5-21 10-33 12 9-8 18-15 26-23 4-3 8-7 12-10 2-2 4-4 5-5 2-2 4-4 6-6 6-8 13-17 20-27 3-3 6-6 9-10z m21 91c-2-66 0-84 2-88 3 12 7 25 11 36 5 14 12 28 20 41 2 3 4 7 6 10l4 5 4 4c5 7 11 11 17 16 13 9 26 17 40 22-10-11-21-21-32-31-5-6-10-11-14-17l-3-4-3-4c-2-3-4-6-5-9l-22-39c-6-10-12-22-19-32 11 3 68 19 115 66 51 52 65 150 65 150 0 0-183-33-186-126z"/>
<glyph glyph-name="search" unicode="&#69;" d="M370 154l-65 64c17 18 26 41 26 68 0 55-45 100-101 100-55 0-100-45-100-100 0-56 45-101 100-101 19 0 36 5 52 15l66-67c3-3 7-4 11-4 5 0 9 1 12 4 4 5 4 14-1 21z m-140 61c-39 0-69 32-69 70 0 39 32 69 69 69 38 0 70-31 70-69 0-38-32-70-70-70z"/>
<glyph glyph-name="semester-ticket" unicode="&#70;" d="M169 123c0 37 25 89 57 109 10-5 20-7 30-7 10 0 19 2 29 6 31-21 55-72 55-108z m41 168c0 1 0 2 0 3l92 0c0-1 0-2 0-3 0-26-20-46-46-46-26 0-46 20-46 46z m99 39l-8-4 0-12-90 0 0 12-8 4-19 9 0-67-17 0 0 76-19 9 108 34 108-34z"/>
<glyph glyph-name="social-media" unicode="&#71;" d="M391 200c0 5 0 10-1 15 0 4-1 7-2 11-1 4-3 7-7 10-3 2-6 3-10 3-4 0-10 1-14 1-6 0-12 1-19 1-5 0-10 0-15 0-7 0-12 0-18 0-3 0-6 0-9 0-6 0-12 0-18-1-3 0-6 0-8-1-5-1-9-5-11-9-2-3-3-7-3-11 0-4-1-7-1-11-1-9-1-19 0-28 0-5 1-10 1-15 0-4 1-7 2-11 2-7 6-10 11-12 2-1 5-1 7-1 5 0 9-1 13-1 5 0 9 0 14 0 6 0 12 0 18 0 6 0 11 0 17 0 3 0 6 0 9 0 6 0 12 0 19 1 2 0 5 0 8 1 5 1 9 4 12 10 2 3 2 7 3 10 0 4 1 7 1 11 1 8 1 17 1 27z m-86-34l0 48c14-8 29-16 44-24-14-8-28-16-44-24z m-77 198c-7 0-14 1-22 1-6 0-13 0-20-3-13-4-22-12-28-24-3-8-5-16-5-25l0-28-33 0 0-39 34 0 0-99 39 0 0 99 32 0c2 13 3 25 5 39l-36 0 0 1c0 8 0 15 0 23 0 2 0 4 1 6 1 6 4 10 9 11 2 1 5 1 7 1 7 0 14 0 21 0l1 0 0 35c-3 0-4 2-5 2z m143-8c5 3 8 9 10 14-1 0-1 0-1-1-4-2-8-4-13-5-1 0-2 0-3 1-9 7-21 9-30 3-8-6-12-14-12-24 0-1 0-3 0-4-21 1-38 10-52 26-3-7-4-13-3-19 1-6 5-11 11-15-5 0-9 1-12 3 0-5 1-8 3-12 4-7 10-11 17-13-4-1-7-1-12 0 5-10 13-16 24-17-5-4-11-7-17-9-7-2-13-2-20-2 5-4 11-7 19-9 10-3 19-3 29-2 12 1 21 5 30 12 20 15 31 35 31 61 0 1 0 1 1 2 3 3 6 5 8 8 1 1 1 1 1 2 0 1 1 1 1 2-2 0-6-1-10-2z"/>
<glyph glyph-name="soup" unicode="&#72;" d="M257 349c-73 0-149-20-149-58 0-3 1-6 2-9 6-70 71-148 148-148 78 0 142 78 148 149 1 3 2 6 2 9 0 37-78 57-151 57z m-115-65c0 19 51 41 117 41 67 0 117-22 117-41 0-3-1-5-3-9-18-14-62-27-117-27-43 0-79 8-101 18-9 6-13 13-13 18z"/>
<glyph glyph-name="student-ticket" unicode="&#73;" d="M222 371c9 9 23 15 37 15 16 0 32-8 41-20 3-5 6-10 8-16l19 0c3 0 5-2 5-5l0-6c0-2-2-5-5-5l-120 0c0 15 6 27 15 37z m85-56c-3-18-16-33-34-40-5-2-10-2-15-2-11 0-21 5-30 10-10 7-17 19-19 32z m-174-142l14 80c3 11 14 19 26 18l30-3-19-100z m223 9l-43-6c-1 0-1 0-2 0-4 0-9 2-11 6l-18 26 2-79-85 0 23 137c8-5 17-8 27-9 3 0 6-1 9-1 8 0 15 1 23 4l1-1 35-54 35 5c7 1 16-4 17-12 1-8-4-15-13-16z"/>
<glyph glyph-name="time" unicode="&#74;" d="M251 389c-79-3-141-70-138-148 3-79 69-142 148-139 79 3 141 70 138 149-3 79-69 141-148 138z m9-266c-1 0-3 0-4 0-66 0-121 52-123 119-2 67 51 125 119 127 67 2 125-52 127-119 2-68-51-124-119-127z m-7 221c-53-2-96-47-94-100 2-54 47-97 101-94 53 2 96 47 94 100-3 53-48 96-101 94z m47-135c-2-3-5-4-8-4-2 0-4 1-6 2l-42 32 0 74c0 5 4 11 10 11 5 0 10-6 10-11l0-64 34-26c4-3 5-9 2-14z"/>
<glyph glyph-name="train" unicode="&#75;" d="M446 212l-10 0 0 10c0 12-62 112-72 112l-74 0 25 20c2 2 3 4 3 7 0 4-2 6-5 7l-57 23c-4 1-8 0-10-4-1-4 0-8 4-10l46-19-29-22c0 0-1-1-1-1l-165 0c-9-25-14-51-14-79 0-27 5-52 13-76l336 0c0 0 0 6 0 11l10 0c1 0 3 2 3 3l0 16c0 1-2 2-3 2z m-186 36l-154 0 0 53 154 0z m66 1l-50 0 0 53 50 0z m15 0l0 52c0 0 19 0 28 0 5 0 35-52 35-52z m60-95l-288 0c3-6 6-11 9-16l280 0c5 0 9 3 9 8-1 4-4 8-10 8z"/>
<glyph glyph-name="tram" unicode="&#76;" d="M374 318c-17 0-49 0-86 0l-25 19 21 29 46 0c4 0 8 3 8 8 0 4-3 8-8 8l-90 0c-4 0-9-3-9-8 0-4 3-8 9-8l25 0-18-27c-2-3-2-8 1-10l14-12c0 0-126 1-128 0-1-1-16-88-16-117 0-10 0-15 0-15l293 0c0 0 0 12 0 14 1 30-32 119-37 119z m-173-81c0 0-55 0-63 0 0 8 7 59 7 59l56 0z m79 0l-64 0 0 59 64 0z m54-36l-40 0 0 95 40 0z m14 36l0 58c0 0 23 0 26 0 2 0 18-52 18-58-13 0-44 0-44 0z m29-73l-225 0c-5 0-9-3-9-8 0-4 4-9 9-9l225 0c4 0 8 4 8 9 0 5-4 8-8 8z"/>
<glyph glyph-name="veggie-1" unicode="&#77;" d="M414 303c2 4 3 9 3 14 0 22-18 38-38 38-9 0-18-3-24-8-4 8-11 17-20 21-8 4-18 6-27 5 1 8-3 17-11 21-6 3-13 3-19 0-3 8-9 17-17 21-15 8-35 2-43-15-1-1-1-3-2-4-9 2-19-2-23-11-3-3-3-7-3-10-6 5-14 7-22 7-22 0-38-17-38-38 0-9 3-17 8-23-7 5-16 6-25 3-15-6-22-20-18-32 1-1 1-3 2-4-3-4-4-9-2-15 0 0 0 0 0-1-9-4-13-12-10-20 2-6 8-9 14-10 0-5 0-10 2-15 7-17 29-26 49-18 7 3 13 7 17 12 22-60 57-148 67-152 17-7 44-7 53 0 6 4 41 83 67 141 1 0 1 0 2 1 2-8 9-14 18-16 12-4 24 5 27 17 0 1 1 3 1 4 5 2 9 5 10 10 0 0 0 0 0 1 8-2 15 3 17 12 1 6-1 11-5 15 3 3 5 7 6 12 1 15-5 29-16 37z m-177-145c-11 19-27 49-41 69 0 1 1 1 1 2 6-3 14-3 21-1 5 2 9 5 12 9 8-28 10-64 7-79z m45-18c-3 12-4 64-7 85 10 2 18 7 23 16 4-8 11-14 20-16 1 0 7 1 9 1-16-18-38-71-45-86z"/>
<glyph glyph-name="video" unicode="&#78;" d="M278 374c27 0 49-23 49-49 0-28-23-50-49-50-28 0-51 23-51 50 0 26 23 49 51 49z m-102-34c19 0 33-14 33-33 0-18-14-33-33-33-18 0-33 15-33 33 0 19 15 33 33 33z m197-202l-54 39 2-33-182 0 0 109 182 0 0-31 52 42z"/>
<glyph glyph-name="veggie-2" unicode="&#79;" d="M398 305c-23 3-50-2-70-8 18 10 42 26 63 47 42 44-11 62-35 26-13-20-29-44-43-62 10 26 18 59 14 88-8 60-46 32-42-7 2-20 5-54 7-81-21 11-42 18-52 16-8-1-37-21-33-28 5-7 23-28 20-30-2-3-22 5-40 7-17 2-111-176-101-190 6-8 101 25 105 32 5 7-9 31-5 32 4 1 23-27 30-23 7 4 68 24 75 33 7 7-18 50-13 52 4 2 40-35 50-30 10 5 16 10 19 16 8 15 3 54-19 83 21-3 47-6 62-9 33-3 57 28 8 36z"/>
</font>
</defs>
</svg>
