<?xml version="1.0" encoding="utf-8"?>
<!-- Generator: Adobe Illustrator 23.0.1, SVG Export Plug-In . SVG Version: 6.00 Build 0)  -->
<svg version="1.1" id="Capa_1" xmlns="http://www.w3.org/2000/svg" xmlns:xlink="http://www.w3.org/1999/xlink" x="0px" y="0px"
	 viewBox="0 0 100 100" style="enable-background:new 0 0 100 100;" xml:space="preserve">
<style type="text/css">
	.st0{fill:#C42126;}
	.st1{fill:#E7E7E7;}
	.st2{fill:#DC3027;}
	.st3{fill:#F3F4F5;}
	.st4{fill:#E73625;}
	.st5{fill:#283991;}
	.st6{fill:#EFEFEF;}
</style>
<g>
	<g>
		<rect x="0.2" y="54.7" class="st0" width="99.6" height="0"/>
		<rect x="5.4" y="27.4" class="st0" width="89.2" height="0"/>
		<rect x="1.9" y="36.5" class="st0" width="96.3" height="0"/>
		<polygon class="st0" points="21.5,91.1 78.5,91.1 78.5,91.1 21.5,91.1 		"/>
		<path class="st0" d="M50,0c-1,0-2,0-2.9,0.1h5.8C52,0,51,0,50,0z"/>
		<rect x="0.2" y="45.6" class="st0" width="99.6" height="0"/>
	</g>
	<path class="st1" d="M64.8,18.3h23.9c-2.8-3.5-6.1-6.5-9.8-9.1H60.9C62.4,11.8,63.7,14.9,64.8,18.3z"/>
	<path class="st2" d="M60.9,9.2h17.9c-7.4-5.3-16.3-8.5-25.9-9.1h-1.5C55.9,0.7,58,4,60.9,9.2z"/>
	<path class="st1" d="M98.1,36.5c-0.9-3.2-2.1-6.2-3.5-9.1H67.1c0.6,2.9,1,6,1.3,9.1H98.1z"/>
	<path class="st2" d="M65.6,27.4h29c-1.7-3.3-3.6-6.3-5.9-9.1H63.3C64.2,21.1,65,24.2,65.6,27.4z"/>
	<path class="st1" d="M69.5,54.7h30.3c0.1-1.5,0.2-3.1,0.2-4.7c0-1.5-0.1-3-0.2-4.4H69.5C69.6,48.6,69.6,51.7,69.5,54.7z"/>
	<path class="st2" d="M99.8,45.6c-0.3-3.1-0.8-6.2-1.7-9.1h-31c0.3,3,0.5,6,0.6,9.1H99.8z"/>
	<path class="st1" d="M66.6,72.9h27.9c1.5-2.9,2.7-5.9,3.6-9.1H67.9C67.6,66.9,67.2,70,66.6,72.9z"/>
	<path class="st2" d="M98.1,63.8c0.8-2.9,1.4-6,1.7-9.1H68.6c-0.1,3.1-0.3,6.1-0.6,9.1L98.1,63.8L98.1,63.8z"/>
	<path class="st1" d="M78.5,91.1c3.7-2.6,7-5.6,9.9-9.1H65c-1.1,3.4-2.4,6.5-3.9,9.1L78.5,91.1L78.5,91.1z"/>
	<g>
		<path class="st2" d="M64.1,82h24.3c2.3-2.8,4.3-5.8,6-9.1H66.4C65.8,76.1,65,79.1,64.1,82z"/>
		<path class="st2" d="M48.2,100c-0.1,0-0.2,0-0.3,0C48,100,48.1,100,48.2,100z"/>
		<path class="st2" d="M50,100c10.6,0,20.4-3.3,28.5-8.9H60.4C57.2,96.6,55.1,100,50,100z"/>
	</g>
	<path class="st0" d="M50,100c-0.6,0-1.2,0-1.8,0C48.8,100,49.4,100,50,100z"/>
	<path class="st3" d="M62.6,9.2H21.1c-3.7,2.6-6.9,5.6-9.8,9.1h55.1C65.4,14.9,64.1,11.8,62.6,9.2z"/>
	<path class="st4" d="M21.1,9.2h41.5C59.7,4,55.9,0.7,51.4,0.1h-4.3C37.4,0.6,28.5,3.9,21.1,9.2z"/>
	<path class="st3" d="M1.9,36.5H70c-0.3-3.1-0.8-6.2-1.3-9.1H5.4C3.9,30.3,2.8,33.3,1.9,36.5z"/>
	<path class="st4" d="M11.3,18.3c-2.3,2.8-4.3,5.8-5.9,9.1h63.3c-0.6-3.2-1.4-6.3-2.3-9.1C66.4,18.3,11.3,18.3,11.3,18.3z"/>
	<path class="st3" d="M0,50c0,1.6,0.1,3.1,0.2,4.7h70.4c0.1-3,0.1-6.1,0-9.1H0.2C0.1,47,0,48.5,0,50z"/>
	<path class="st4" d="M0.2,45.6h70.4c-0.1-3.1-0.3-6.1-0.6-9.1H1.9C1,39.4,0.5,42.5,0.2,45.6z"/>
	<path class="st3" d="M70,63.8H1.9c0.9,3.2,2.1,6.2,3.6,9.1h63.1C69.2,70,69.7,66.9,70,63.8z"/>
	<path class="st4" d="M1.9,63.8H70c0.3-3,0.5-6,0.6-9.1H0.2C0.5,57.8,1.1,60.8,1.9,63.8z"/>
	<path class="st3" d="M21.5,91.1h41c1.5-2.6,2.8-5.7,3.9-9.1H11.6C14.4,85.4,17.8,88.5,21.5,91.1z"/>
	<g>
		<path class="st4" d="M5.5,72.9c1.7,3.3,3.7,6.3,6,9.1h54.8c0.9-2.8,1.7-5.9,2.3-9.1H5.5z"/>
		<path class="st4" d="M47.9,100c0.1,0,0.2,0,0.3,0c0.6,0,1.2,0,1.8,0c5.1,0,9.2-3.4,12.4-8.9h-41C29,96.3,38.1,99.5,47.9,100z"/>
	</g>
	<path class="st5" d="M49,0C23.3,0.5,2.5,20.3,0.2,45.5H49L49,0L49,0z"/>
	<g>
		<polygon class="st6" points="10,28.3 10.8,30.7 13.2,30.7 11.2,32.1 12,34.5 10,33 8,34.5 8.8,32.1 6.8,30.7 9.2,30.7 		"/>
		<polygon class="st6" points="10,36.6 10.8,39 13.2,39 11.2,40.4 12,42.8 10,41.3 8,42.8 8.8,40.4 6.8,39 9.2,39 		"/>
		<polygon class="st6" points="18.3,15.9 19.1,18.2 21.5,18.2 19.5,19.7 20.3,22 18.3,20.6 16.3,22 17.1,19.7 15.1,18.2 17.5,18.2 
					"/>
		<polygon class="st6" points="18.3,24.2 19.1,26.5 21.5,26.5 19.5,28 20.3,30.3 18.3,28.9 16.3,30.3 17.1,28 15.1,26.5 17.5,26.5 
					"/>
		<polygon class="st6" points="18.3,32.5 19.1,34.8 21.5,34.8 19.5,36.3 20.3,38.6 18.3,37.2 16.3,38.6 17.1,36.3 15.1,34.8 
			17.5,34.8 		"/>
		<path class="st6" d="M3.7,38.6L3,36.3l2-1.4H2.5l-0.1-0.2c-0.3,0.8-0.5,1.7-0.7,2.5l0,0L3.7,38.6z"/>
		<path class="st6" d="M8,26.2l2-1.5l2,1.5l-0.8-2.3l2-1.5h-2.5L10,20l-0.8,2.3H8.3c-0.2,0.3-0.3,0.5-0.5,0.8l0.9,0.7L8,26.2z"/>
		<path class="st6" d="M18.3,12.3l2,1.4l-0.8-2.3l2-1.5h-1.4c-1.2,0.9-2.4,1.9-3.5,2.9l-0.3,0.9L18.3,12.3z"/>
		<path class="st6" d="M24.6,9.6l2-1.5l2,1.5l-0.8-2.3l2-1.4h-2.5l-0.1-0.3c-0.8,0.4-1.7,0.9-2.5,1.3l0.6,0.4L24.6,9.6z"/>
		<polygon class="st6" points="26.6,11.8 27.3,14.1 29.8,14.1 27.8,15.5 28.6,17.9 26.6,16.4 24.6,17.9 25.3,15.5 23.4,14.1 
			25.8,14.1 		"/>
		<polygon class="st6" points="26.6,20 27.3,22.4 29.8,22.4 27.8,23.8 28.6,26.2 26.6,24.7 24.6,26.2 25.3,23.8 23.4,22.4 
			25.8,22.4 		"/>
		<polygon class="st6" points="26.6,28.3 27.3,30.7 29.8,30.7 27.8,32.1 28.6,34.5 26.6,33 24.6,34.5 25.3,32.1 23.4,30.7 
			25.8,30.7 		"/>
		<polygon class="st6" points="26.6,36.6 27.3,39 29.8,39 27.8,40.4 28.6,42.8 26.6,41.3 24.6,42.8 25.3,40.4 23.4,39 25.8,39 		"/>
		<polygon class="st6" points="34.9,7.6 35.6,10 38.1,10 36.1,11.4 36.9,13.8 34.9,12.3 32.9,13.8 33.6,11.4 31.6,10 34.1,10 		"/>
		<polygon class="st6" points="34.9,15.9 35.6,18.2 38.1,18.2 36.1,19.7 36.9,22 34.9,20.6 32.9,22 33.6,19.7 31.6,18.2 34.1,18.2 
					"/>
		<polygon class="st6" points="34.9,24.2 35.6,26.5 38.1,26.5 36.1,28 36.9,30.3 34.9,28.9 32.9,30.3 33.6,28 31.6,26.5 34.1,26.5 
					"/>
		<polygon class="st6" points="34.9,32.5 35.6,34.8 38.1,34.8 36.1,36.3 36.9,38.6 34.9,37.2 32.9,38.6 33.6,36.3 31.6,34.8 
			34.1,34.8 		"/>
		<polygon class="st6" points="43.2,3.5 43.9,5.8 46.4,5.8 44.4,7.3 45.2,9.6 43.2,8.2 41.2,9.6 41.9,7.3 39.9,5.8 42.4,5.8 		"/>
		<polygon class="st6" points="43.2,11.8 43.9,14.1 46.4,14.1 44.4,15.5 45.2,17.9 43.2,16.4 41.2,17.9 41.9,15.5 39.9,14.1 
			42.4,14.1 		"/>
		<polygon class="st6" points="43.2,20 43.9,22.4 46.4,22.4 44.4,23.8 45.2,26.2 43.2,24.7 41.2,26.2 41.9,23.8 39.9,22.4 
			42.4,22.4 		"/>
		<polygon class="st6" points="43.2,28.3 43.9,30.7 46.4,30.7 44.4,32.1 45.2,34.5 43.2,33 41.2,34.5 41.9,32.1 39.9,30.7 
			42.4,30.7 		"/>
		<polygon class="st6" points="43.2,36.6 43.9,39 46.4,39 44.4,40.4 45.2,42.8 43.2,41.3 41.2,42.8 41.9,40.4 39.9,39 42.4,39 		"/>
	</g>
</g>
</svg>
