<?xml version="1.0" encoding="utf-8"?>
<!-- Generator: Adobe Illustrator 16.0.0, SVG Export Plug-In . SVG Version: 6.00 Build 0)  -->
<!DOCTYPE svg PUBLIC "-//W3C//DTD SVG 1.1//EN" "http://www.w3.org/Graphics/SVG/1.1/DTD/svg11.dtd">
<svg version="1.1" id="Layer_1" xmlns="http://www.w3.org/2000/svg" xmlns:xlink="http://www.w3.org/1999/xlink" x="0px" y="0px"
	 width="39px" height="39px" viewBox="0 0 39 39" enable-background="new 0 0 39 39" xml:space="preserve">
<g>
	<g>
		<path fill="#FFFFFF" d="M19.5,19.744c-0.609-0.609-0.122-1.584,0.244-2.072s1.219-1.097,1.584-1.341
			c0.365-0.365,1.219-1.097,1.219-3.534c0,0,0.244-2.072-2.072-3.778h1.828l1.95-1.097h-6.581c0,0-3.9-0.122-5.728,2.194
			c-1.828,2.315-1.828,5.362,0.244,7.069c2.072,1.706,4.388,1.219,4.388,1.219s-0.366,0.731-0.244,1.462
			c0.122,0.609,0.731,1.584,0.975,1.828c0,0-4.387,0-6.581,1.95s-2.438,5.729,1.95,7.069c4.266,1.34,9.872-0.122,10.969-4.266
			c0,0,0.487-1.707-0.365-3.169C22.303,21.815,20.109,20.354,19.5,19.744z M14.747,16.331c-1.341-1.828-2.438-5.484,0-7.068
			c0,0,1.828-1.097,3.412,0.487c1.584,1.584,2.072,4.266,1.707,5.606c-0.244,1.34-1.097,1.706-1.341,1.828
			C18.159,17.428,16.087,18.159,14.747,16.331z M21.572,26.447c-0.122,0.73-0.122,2.315-2.804,3.047
			c-2.681,0.73-7.068-0.488-6.947-3.535c0,0,0-1.34,0.853-2.071c0.854-0.731,2.072-1.463,5.606-1.585c0,0,1.219,0.854,1.95,1.463
			C21.084,24.619,21.693,25.716,21.572,26.447z"/>
		<polygon fill="#FFFFFF" points="27.544,17.794 27.544,15.356 26.203,15.356 26.203,17.794 23.766,17.794 23.766,19.134 
			26.203,19.134 26.203,21.45 27.544,21.45 27.544,19.134 29.859,19.134 29.859,17.794 		"/>
	</g>
</g>
</svg>
