<?xml version="1.0" encoding="utf-8"?>
<!-- Generator: Adobe Illustrator 16.0.0, SVG Export Plug-In . SVG Version: 6.00 Build 0)  -->
<!DOCTYPE svg PUBLIC "-//W3C//DTD SVG 1.1//EN" "http://www.w3.org/Graphics/SVG/1.1/DTD/svg11.dtd">
<svg version="1.1" id="Layer_1" xmlns="http://www.w3.org/2000/svg" xmlns:xlink="http://www.w3.org/1999/xlink" x="0px" y="0px"
	 width="39px" height="39px" viewBox="0 0 39 39" enable-background="new 0 0 39 39" xml:space="preserve">
<g>
	<g>
		<path fill="#FFFFFF" d="M27.178,9.628H11.822c-1.219,0-2.072,0.975-2.072,2.072v15.356c0,1.219,0.975,2.071,2.072,2.071h15.356
			c1.219,0,2.072-0.975,2.072-2.071V11.822C29.372,10.603,28.396,9.628,27.178,9.628z M15.966,17.672
			c0.122-0.122,0.122-0.366,0.244-0.487l0,0c0.122-0.122,0.122-0.244,0.244-0.244l0,0c0.122-0.122,0.122-0.122,0.244-0.244l0,0
			c0,0,0,0,0.122-0.122l0,0l0.122-0.122l0,0c0,0,0,0,0.122,0l0,0c0,0,0.122,0,0.122-0.122h0.122c0,0,0,0,0.122,0c0,0,0,0,0.122,0
			c0,0,0,0,0.122,0c0,0,0.122,0,0.122-0.122l0,0h0.122c0,0,0,0,0.122,0h0.122l0,0h0.122l0,0h0.122l0,0h0.122l0,0h0.122l0,0h0.122
			l0,0h0.122l0,0c0,0,0.122,0,0.244,0c0.122,0,0.122,0,0.244,0l0,0H19.5l0,0h0.122l0,0h0.122l0,0h0.122l0,0h0.122l0,0h0.122l0,0
			h0.122c0,0,0,0,0.122,0h0.121l0,0c0,0,0.122,0,0.122,0.122c0,0,0,0,0.122,0c0,0,0,0,0.122,0s0,0,0.122,0h0.121
			c0,0,0.122,0,0.122,0.122l0,0c0,0,0,0,0.122,0l0,0l0.122,0.122l0,0c0,0,0,0,0.122,0.122l0,0c0.121,0.122,0.121,0.122,0.243,0.244
			l0,0c0.122,0.122,0.122,0.244,0.244,0.244l0,0c0.122,0.122,0.243,0.244,0.243,0.487c0.244,0.609,0.488,1.219,0.488,1.828
			c0,2.193-1.828,4.021-4.022,4.021c-2.193,0-4.021-1.828-4.021-4.021C15.478,18.769,15.6,18.159,15.966,17.672z M27.057,25.838
			c0,0.73-0.609,1.219-1.219,1.219H13.163c-0.731,0-1.219-0.609-1.219-1.219v-8.166h1.706c-0.244,0.609-0.244,1.219-0.244,1.828
			c0,3.412,2.681,6.094,6.094,6.094c3.412,0,6.094-2.682,6.094-6.094c0-0.609-0.122-1.219-0.244-1.828h1.707V25.838z M27.057,14.503
			c0,0.488-0.488,0.975-0.976,0.975h-1.584c-0.487,0-0.976-0.487-0.976-0.975v-1.584c0-0.488,0.488-0.975,0.976-0.975h1.584
			c0.487,0,0.976,0.487,0.976,0.975V14.503z"/>
	</g>
</g>
</svg>
