<?xml version="1.0" encoding="utf-8"?>
<!-- Generator: Adobe Illustrator 16.0.0, SVG Export Plug-In . SVG Version: 6.00 Build 0)  -->
<!DOCTYPE svg PUBLIC "-//W3C//DTD SVG 1.1//EN" "http://www.w3.org/Graphics/SVG/1.1/DTD/svg11.dtd">
<svg version="1.1" id="Layer_1" xmlns="http://www.w3.org/2000/svg" xmlns:xlink="http://www.w3.org/1999/xlink" x="0px" y="0px"
	 width="39px" height="39px" viewBox="0 0 39 39" enable-background="new 0 0 39 39" xml:space="preserve">
<g>
	<g>
		<path fill="#FFFFFF" d="M14.016,21.084l0.244-1.097c0,0,0.122-0.487-0.122-0.853c0,0-0.854-1.097-0.854-2.681
			s1.097-6.094,6.459-6.094c0,0,5.241-0.244,5.241,5.119c0,0,0,4.875-2.682,6.337c-2.681,1.463-3.899-1.219-3.29-2.681
			c0.487-1.34,1.097-3.413,1.097-4.266c-0.122-0.853-0.487-1.828-1.828-1.828s-2.56,1.584-2.56,3.413c0,0,0.122,1.219,0.488,1.95
			l-1.584,6.946c0,0-0.244,1.219-0.366,2.072c0,0.731,0.122,2.925,0.122,2.925s0,0.366,0.122,0.366c0.122,0,0.488-0.244,0.731-0.609
			c0.244-0.366,1.462-1.828,2.072-4.266l0.731-2.804c0,0,1.219,1.585,3.168,1.585c1.95,0,4.51-0.976,5.851-3.9
			c1.34-3.047,1.097-4.875,1.097-4.875S27.909,7.922,19.5,8.288c-8.409,0.244-8.775,7.8-8.775,7.8s-0.244,3.656,2.559,5.119
			C13.284,21.206,13.894,21.45,14.016,21.084z"/>
	</g>
</g>
</svg>
