<?xml version="1.0" encoding="utf-8"?>
<!-- Generator: Adobe Illustrator 16.0.0, SVG Export Plug-In . SVG Version: 6.00 Build 0)  -->
<!DOCTYPE svg PUBLIC "-//W3C//DTD SVG 1.1//EN" "http://www.w3.org/Graphics/SVG/1.1/DTD/svg11.dtd">
<svg version="1.1" id="Layer_1" xmlns="http://www.w3.org/2000/svg" xmlns:xlink="http://www.w3.org/1999/xlink" x="0px" y="0px"
	 width="39px" height="39px" viewBox="0 0 39 39" enable-background="new 0 0 39 39" xml:space="preserve">
<g>
	<path fill="#FFFFFF" d="M9.628,10.969c0,0,3.535,4.631,9.628,4.997c0,0-0.853-2.803,1.707-4.875
		c2.559-2.072,5.728-0.366,6.337,0.487c0,0,1.828-0.244,3.047-1.097c0,0-0.365,1.584-1.95,2.559c0,0,1.828-0.244,2.56-0.731
		c0,0-0.853,1.34-2.315,2.438c0,0,0.609,5.85-4.388,10.725c-4.997,4.875-13.284,3.778-16.209,1.341c0,0,4.021,0.487,6.947-1.95
		c0,0-3.413-0.122-4.388-3.169c0,0,1.707,0.122,1.95-0.243c0,0-3.656-0.854-3.656-4.631c0,0,1.097,0.609,2.072,0.609
		C10.969,17.306,7.435,14.747,9.628,10.969z"/>
</g>
</svg>
