<?xml version="1.0" encoding="utf-8"?>
<!-- Generator: Adobe Illustrator 16.0.0, SVG Export Plug-In . SVG Version: 6.00 Build 0)  -->
<!DOCTYPE svg PUBLIC "-//W3C//DTD SVG 1.1//EN" "http://www.w3.org/Graphics/SVG/1.1/DTD/svg11.dtd">
<svg version="1.1" id="Layer_1" xmlns="http://www.w3.org/2000/svg" xmlns:xlink="http://www.w3.org/1999/xlink" x="0px" y="0px"
	 width="39px" height="39px" viewBox="0 0 39 39" enable-background="new 0 0 39 39" xml:space="preserve">
<g>
	<g>
		<polygon fill="#FFFFFF" points="11.944,7.922 13.528,7.922 14.625,11.456 15.6,7.922 17.185,7.922 15.356,13.163 15.356,16.819 
			13.772,16.819 13.772,13.284 		"/>
		<path fill="#FFFFFF" d="M21.328,11.7c0,0,0-1.584-1.95-1.584c-1.95,0-2.072,1.584-2.072,1.584v3.534c0,0,0,0.853,0.488,1.219
			c0.365,0.366,0.975,0.609,1.462,0.609c0.487,0,1.218-0.122,1.707-0.609c0.487-0.487,0.487-1.341,0.487-1.341L21.328,11.7z
			 M19.866,15.356c0,0-0.122,0.487-0.609,0.487c-0.488,0-0.609-0.366-0.609-0.487V11.7c0,0,0-0.488,0.609-0.488
			c0.487,0,0.609,0.366,0.609,0.488V15.356z"/>
		<path fill="#FFFFFF" d="M22.425,10.237h1.463v5.119c0,0,0,0.365,0.365,0.365c0.244,0,0.731-0.365,0.854-0.487v-4.997h1.462v6.582
			h-1.462v-0.731c0,0-0.731,0.853-1.585,0.853c-0.975,0-0.975-1.097-0.975-1.219v-5.484H22.425z"/>
		<path fill="#FFFFFF" d="M25.472,24.862h1.097v-0.731c0,0,0-0.487-0.487-0.487c-0.609,0-0.487,0.487-0.487,0.487v0.731H25.472z"/>
		<path fill="#FFFFFF" d="M21.693,23.4c0,0-0.243,0-0.487,0.243v3.778c0,0,0.244,0.244,0.609,0.244c0.366,0,0.487-0.244,0.487-0.366
			v-3.29C22.303,24.01,22.303,23.4,21.693,23.4z"/>
		<path fill="#FFFFFF" d="M27.3,18.891H11.7c-2.438,0-4.388,1.95-4.388,4.388v3.534c0,2.438,1.95,4.388,4.388,4.388h15.6
			c2.438,0,4.388-1.95,4.388-4.388v-3.656C31.688,20.841,29.737,18.891,27.3,18.891z M14.991,21.693h-1.462v6.947h-1.341v-6.947
			h-1.341v-1.219h4.266v1.219H14.991z M19.134,28.641h-1.219v-0.609c0,0-0.731,0.731-1.462,0.731c-0.609,0-0.853-0.609-0.853-0.976
			v-5.118h1.219V27.3c0,0,0,0.366,0.366,0.366c0.365,0,0.731-0.366,0.731-0.366v-4.631h1.219V28.641z M23.521,27.544
			c0,0,0,1.219-1.097,1.219c0,0-0.609,0-1.219-0.609v0.487h-1.219v-8.166h1.219v2.682c0,0,0.366-0.609,1.097-0.609
			c0.854,0,1.098,0.854,1.098,1.463v3.534H23.521z M25.959,28.763c-1.584,0-1.706-1.706-1.706-1.706v-2.804
			c0-0.243,0.122-1.828,1.95-1.828s1.706,1.828,1.706,1.828v1.463h-2.315v1.341c0,0.73,0.487,0.609,0.487,0.609
			c0.854,0,0.609-1.098,0.609-1.098h1.219C27.787,27.666,27.544,28.763,25.959,28.763z"/>
	</g>
</g>
</svg>
