<svg xmlns="http://www.w3.org/2000/svg" width="15" height="15" viewBox="0 0 15 15">
    <path fill="#9B9B9B" fill-rule="evenodd" d="M11.454 0c-.863 0-1.726.329-2.382.986L7.51 2.547a3.344 3.344 0 0 0-.965 2.673.628.628 0 1 0 1.252-.113A2.097 2.097 0 0 1 8.4 3.435L9.96 1.873a2.116 2.116 0 0 1 2.99 0l.175.177a2.118 2.118 0 0 1 0 2.99l-1.56 1.563a2.085 2.085 0 0 1-1.672.6.635.635 0 0 0-.683.569.63.63 0 0 0 .57.683 3.346 3.346 0 0 0 2.673-.962l1.56-1.563a3.374 3.374 0 0 0 0-4.767l-.176-.178A3.363 3.363 0 0 0 11.454 0zm-1.298 4.216a.625.625 0 0 0-.444.185L4.225 9.886a.628.628 0 0 0 .888.889L10.6 5.289a.628.628 0 0 0-.444-1.074v.001zM4.94 6.531a3.335 3.335 0 0 0-2.392.978L.987 9.07A3.346 3.346 0 0 0 0 11.454c0 .9.35 1.747.984 2.381l.18.18A3.366 3.366 0 0 0 3.548 15c.863 0 1.727-.329 2.382-.986l1.564-1.563a3.337 3.337 0 0 0 .962-2.671.633.633 0 0 0-.683-.57.63.63 0 0 0-.57.683 2.088 2.088 0 0 1-.598 1.67L5.04 13.126a2.118 2.118 0 0 1-2.988.002l-.178-.18a2.1 2.1 0 0 1-.619-1.493c0-.565.22-1.095.62-1.494l1.56-1.563a2.097 2.097 0 0 1 1.672-.6.629.629 0 1 0 .112-1.252 3.472 3.472 0 0 0-.28-.014z"/>
</svg>
