<svg xmlns="http://www.w3.org/2000/svg" width="62" height="62" viewBox="0 0 62 62">
    <g fill="none" fill-rule="evenodd">
        <path fill="#E44315" d="M1 31l5.883-4H54.1L61 31v30H1z"/>
        <path fill="#FFF" d="M7 1h48v33L31.293 46 7 34z"/>
        <path fill="#F1F1F1" d="M15 9h13v11H15z"/>
        <path fill="#000" d="M15 21h13c.552 0 1-.449 1-1V9c0-.55-.448-1-1-1H15c-.55 0-1 .45-1 1v11c0 .551.45 1 1 1zm0-12h13v11H15V9zm18-.5c0-.277.227-.5.5-.5h14a.501.501 0 0 1 0 1h-14a.501.501 0 0 1-.5-.5zm0 3c0-.277.227-.5.5-.5h14a.501.501 0 0 1 0 1h-14a.501.501 0 0 1-.5-.5zm0 3c0-.277.227-.5.5-.5h14a.501.501 0 0 1 0 1h-14a.501.501 0 0 1-.5-.5zm0 3c0-.277.227-.5.5-.5h14a.501.501 0 0 1 0 1h-14a.501.501 0 0 1-.5-.5zm0 3c0-.277.227-.5.5-.5h14a.501.501 0 0 1 0 1h-14a.501.501 0 0 1-.5-.5zm0 5c0-.277.227-.5.5-.5h14a.501.501 0 0 1 0 1h-14a.501.501 0 0 1-.5-.5zm0 3c0-.277.227-.5.5-.5h14a.501.501 0 0 1 0 1h-14a.501.501 0 0 1-.5-.5zm0 3c0-.277.227-.5.5-.5h14a.501.501 0 0 1 0 1h-14a.504.504 0 0 1-.5-.5zm0 3c0-.273.227-.5.5-.5h14c.274 0 .5.227.5.5 0 .274-.226.5-.5.5h-14a.504.504 0 0 1-.5-.5zm-19-9c0-.277.223-.5.5-.5h14c.278 0 .5.223.5.5 0 .278-.222.5-.5.5h-14a.498.498 0 0 1-.5-.5zm0 3c0-.277.223-.5.5-.5h14c.278 0 .5.223.5.5 0 .278-.222.5-.5.5h-14a.498.498 0 0 1-.5-.5zm0 3c0-.277.223-.5.5-.5h14a.501.501 0 0 1 0 1h-14a.501.501 0 0 1-.5-.5zm0 3c0-.273.223-.5.5-.5h14a.501.501 0 0 1 0 1h-14a.501.501 0 0 1-.5-.5zm47.524-4.351s-.004 0-.004-.004L56 26.762V1c0-.55-.449-1-1-1H7c-.55 0-1 .45-1 1v25.527L.453 30.164l.004.004A.985.985 0 0 0 0 31v29.98A1.001 1.001 0 0 0 1.024 62H61c.57 0 1.011-.474 1-1.02V31a1 1 0 0 0-.477-.852zm-2.582.761L56 32.383V29.11l2.942 1.8zM54 2v31.383l-7.234 3.618H33.5c-.273 0-.5.226-.5.5 0 .273.227.5.5.5h11.266l-4 2H33.5c-.273 0-.5.226-.5.5 0 .273.227.5.5.5h5.266L31 44.883l-7.765-3.882H28.5a.501.501 0 0 0 0-1h-7.265l-4-2H28.5a.501.501 0 0 0 0-1H15.235L8 33.383V2h46zM6 32.383l-2.996-1.5L6 28.92v3.464zm-4 .235l4 2v.05h.098l22.668 11.333L2 59.384V32.618zM5.235 60L31 47.118 56.767 60H5.235zM60 59.384L33.235 46 60 32.618v26.766z"/>
    </g>
</svg>
