<svg xmlns="http://www.w3.org/2000/svg" width="25" height="35" viewBox="0 0 25 35">
    <g fill="none" fill-rule="evenodd">
        <path fill="#000" d="M14.144 28.498v-5.185h-3.268v5.185H7.263l5.31 6.263 5.305-6.263z"/>
        <path fill="#E44315" d="M7.377 14.137c-.235 0-.393.023-.476.046v1.504c.097.023.218.03.385.03.612 0 .99-.31.99-.832 0-.47-.325-.748-.9-.748zM12.207 14.151c-.256 0-.423.023-.521.046v3.332c.098.023.258.023.4.023 1.043.007 1.723-.567 1.723-1.783.007-1.058-.612-1.618-1.602-1.618z"/>
        <path fill="#E44315" d="M22.983 10.252V7.468a.582.582 0 0 0-.164-.399L16.032.196c-.088-.111-.268-.169-.403-.169H2.65a.566.566 0 0 0-.566.567v9.66H.303v11.254h1.78v4.768c0 .314.253.567.567.567h7.28v-1.134H3.217v-4.2h18.632v4.2h-6.76v1.134h7.327a.566.566 0 0 0 .567-.567v-4.768h1.721V10.254l-1.72-.002zm-6.787-8.278l4.863 4.927h-4.863V1.974zM8.95 16.062c-.393.37-.975.537-1.655.537-.152 0-.288-.007-.393-.023v1.82H5.759l.002-5.024c.355-.06.853-.106 1.557-.106.71 0 1.216.136 1.557.408.325.257.544.68.544 1.18-.001.498-.168.922-.47 1.208zm5.238 1.731c-.537.446-1.353.658-2.35.658-.597 0-1.02-.037-1.307-.075l-.001-5.004c.423-.067.974-.106 1.557-.106.967 0 1.595.174 2.085.544.53.393.862 1.02.862 1.92 0 .975-.355 1.647-.846 2.063zm5.093-3.544h-1.957v1.164h1.83v.937h-1.83v2.048h-1.156v-5.093h3.113v.944zm2.57-3.997H3.216V1.161h11.845v6.306c0 .314.253.567.567.567h6.22v2.218z"/>
    </g>
</svg>
